<?xml version="1.0" standalone="no"?>
<!DOCTYPE svg PUBLIC "-//W3C//DTD SVG 1.1//EN" "http://www.w3.org/Graphics/SVG/1.1/DTD/svg11.dtd" >
<svg xmlns="http://www.w3.org/2000/svg">
<metadata></metadata>
<defs>
<font id="fanfarejfregular" horiz-adv-x="1083" >
<font-face units-per-em="2048" ascent="1638" descent="-410" />
<missing-glyph horiz-adv-x="563" />
<glyph horiz-adv-x="2048" />
<glyph horiz-adv-x="2048" />
<glyph unicode="&#xd;" horiz-adv-x="563" />
<glyph unicode=" "  horiz-adv-x="563" />
<glyph unicode="&#x09;" horiz-adv-x="563" />
<glyph unicode="&#xa0;" horiz-adv-x="563" />
<glyph unicode="!" horiz-adv-x="610" d="M199 115q0 57 41 97t100 40q55 0 95 -40t40 -97t-40 -97.5t-97 -40.5t-98 40t-41 98zM246 1413q-4 78 26 125q29 41 70 41q43 0 73.5 -45t24.5 -127l-69 -1079h-58z" />
<glyph unicode="&#x22;" horiz-adv-x="831" d="M133 1448q0 61 37 100t96 39q72 0 117 -55t45 -143q0 -172 -190 -332l-31 26q121 133 121 226q0 18 -9 18q-2 0 -22.5 -6t-40.5 -6q-51 0 -87 38t-36 95zM481 1448q0 61 37 100t96 39q72 0 117 -55t45 -143q0 -172 -190 -332l-33 26q123 133 123 226q0 18 -8 18 q-2 0 -22.5 -6t-41.5 -6q-53 0 -88 38t-35 95z" />
<glyph unicode="#" horiz-adv-x="993" d="M66 559l34 127h181l69 256h-182l35 127h180l119 444h110l-118 -444h149l119 444h110l-118 -444h186l-35 -127h-186l-68 -256h187l-35 -127h-187l-131 -489h-110l131 489h-148l-131 -489h-110l131 489h-182zM391 686h150l67 256h-147z" />
<glyph unicode="$" horiz-adv-x="899" d="M104 963q0 158 90.5 262t217.5 116v215q0 31 30 31h11q31 0 30 -31v-215q35 -6 78 -26q37 -18 60 -19q53 0 86 88q12 6 26 0q14 -8 19 -20q-20 -127 -21 -391q0 -74 4 -111q-2 -12 -20 -16t-25 6q-12 135 -61 248q-59 137 -146 162v-504q176 -61 201 -76q94 -57 94 -176 q0 -127 -104 -205q-86 -61 -191 -65v-205q0 -31 -30 -31h-11q-31 0 -30 31v209q-29 4 -70 18q-33 10 -55 10q-59 0 -86 -118q-6 -10 -19 -7q-14 2 -18 15q0 119 -10 221q-14 115 -35 270q16 29 35 8q33 -109 94 -198q76 -109 164 -140v318q-150 51 -207 98q-100 82 -101 228 zM262 1044q0 -182 150 -256v476q-63 -14 -106.5 -77t-43.5 -143zM483 307q138 6 138 156q0 94 -138 147v-303z" />
<glyph unicode="%" horiz-adv-x="1478" d="M113 1106q0 211 83 346t199 135q129 0 207 -131t78 -354q0 -213 -84 -354.5t-203 -141.5q-123 0 -198 127q-82 137 -82 373zM283 1096q0 -420 110 -420q80 0 105 188q10 74 10 250q0 213 -25 305q-25 102 -88 103q-82 0 -104 -185q-8 -66 -8 -241zM291 0l825 1587h107 l-826 -1587h-106zM827 477q0 209 84 348q82 133 199 133q129 0 207 -131t78 -354q0 -213 -84 -354.5t-203 -141.5q-121 0 -199 127q-82 135 -82 373zM997 467q0 -420 111 -420q82 0 104 189q11 73 11 249q0 213 -23 306q-27 102 -90 102q-82 0 -104 -186q-8 -63 -9 -240z " />
<glyph unicode="&#x26;" horiz-adv-x="1239" d="M102 391q0 307 291 436v7q-92 29 -155 106q-74 94 -74 231q0 166 122 275.5t287 109.5q51 0 127 -28.5t97 -28.5q47 0 75 57q25 10 31 -14q-4 -37 -4 -164q0 -203 10 -303q-4 -10 -18 -10t-21 10q-16 137 -90 266q-92 158 -207 158q-98 0 -154.5 -89t-56.5 -222 q0 -326 259 -326q18 0 51 3t41 3q16 0 29.5 -18.5t13.5 -34.5q0 -18 -31 -18q-10 0 -35.5 3t-36.5 3q-160 0 -251 -106.5t-91 -293.5q0 -178 86 -276q78 -90 205 -90q125 0 211 84q92 92 92 246q0 156 -168 206q-14 25 13 41q53 -4 235 7.5t248 23.5q10 -2 16 -16 q4 -15 -2 -21q-131 -27 -174 -151q-27 -82 -53 -162q-57 -137 -150 -217q-125 -109 -313 -109q-199 0 -327 117t-128 305z" />
<glyph unicode="'" horiz-adv-x="481" d="M98 1448q0 61 37 100t96 39q72 0 117 -55t45 -143q0 -172 -190 -332l-31 26q121 133 121 226q0 18 -8 18q-2 0 -22.5 -6t-41.5 -6q-51 0 -87 38t-36 95z" />
<glyph unicode="(" horiz-adv-x="731" d="M45 782q0 326 172 578q156 229 424 354q-203 -203 -295 -416q-100 -225 -100 -516t100 -518q92 -211 295 -416q-266 125 -424 359q-172 252 -172 575z" />
<glyph unicode=")" horiz-adv-x="649" d="M0 -145q203 205 297 417q98 229 98 523q0 293 -98 520q-94 213 -297 418q600 -281 600 -938t-600 -940z" />
<glyph unicode="*" horiz-adv-x="882" d="M221 1219q0 63 72 75l106 21v11v9l-108 23q-70 12 -70 78q0 29 20.5 49t49.5 20q39 0 67 -32l72 -82q8 6 19 10l-37 106q-4 14 -4 29q0 33 20.5 56.5t52.5 23.5q72 0 72 -78q0 -14 -6 -31l-37 -106q8 -4 16 -10l74 86q27 29 66 28q31 0 52 -20t21 -49q0 -63 -71 -76 l-111 -21q2 -6 2 -12q0 -4 -2 -10l109 -21q70 -14 69 -79q0 -29 -20.5 -49.5t-48.5 -20.5q-39 0 -68 33l-72 84q-8 -6 -16 -11l37 -104q4 -14 4 -31q0 -31 -21.5 -54.5t-52.5 -23.5q-72 0 -71 76q0 16 6 33l37 104q-8 4 -15 9l-74 -84q-27 -29 -65 -29q-31 0 -52.5 20.5 t-21.5 49.5z" />
<glyph unicode="+" horiz-adv-x="1138" d="M152 672v147h340v338h155v-338h340v-147h-340v-340h-155v340h-340z" />
<glyph unicode="," horiz-adv-x="563" d="M154 113q0 61 36.5 100t96.5 39q72 0 117 -55.5t45 -145.5q0 -170 -191 -330l-31 27q121 133 121 225q0 18 -8 19q-2 0 -22.5 -6t-41.5 -6q-51 0 -86.5 37.5t-35.5 95.5z" />
<glyph unicode="-" horiz-adv-x="677" d="M72 539v88q0 31 30 30h467q31 0 31 -30v-88q0 -31 -31 -31h-467q-31 0 -30 31z" />
<glyph unicode="." horiz-adv-x="593" d="M176 115q0 57 41 97t100 40q55 0 95.5 -40t40.5 -97t-40 -97.5t-98 -40.5q-57 0 -98 40t-41 98z" />
<glyph unicode="/" horiz-adv-x="811" d="M147 -143l580 1742h107l-580 -1742h-107z" />
<glyph unicode="0" horiz-adv-x="980" d="M66 799q0 334 129 559q125 215 294 215q176 0 297 -211q127 -221 127 -571q0 -338 -135 -576q-129 -225 -295 -225q-176 0 -290 207q-127 223 -127 602zM281 780q0 -369 45 -538q47 -178 155 -179q123 0 170 201q41 168 41 547q0 365 -43 522q-47 174 -164 174 q-119 0 -163 -182q-41 -162 -41 -545z" />
<glyph unicode="1" horiz-adv-x="651" d="M51 70q0 14 47 41q57 35 82 67q106 145 107 570q0 272 -37 397q-31 109 -97.5 132t-66.5 38q0 12 59 43q78 39 117 69q98 80 139 181q12 27 25 26q18 0 18 -22q0 4 -8 -113q-10 -137 -16 -276q-8 -199 -8 -394q0 -559 80 -665q20 -27 61 -51q33 -19 33 -29q0 -18 -27 -18 q-8 0 -52 5t-77 5q-111 0 -237.5 -14.5t-112.5 -14.5q-29 0 -29 23z" />
<glyph unicode="2" horiz-adv-x="931" d="M72 90q0 205 157 377q147 143 295 287q160 182 160 413q0 354 -158 355q-127 0 -237.5 -199t-130.5 -446q-14 -8 -33 -7q-14 2 -21 11q6 80 7 204q0 434 -29 488q2 6 14 10t19 0q12 -41 47 -75.5t80 -34.5q39 0 125 60t198 60q115 0 207 -82q117 -102 117 -286 q0 -266 -178 -453q-168 -135 -334 -270q-178 -154 -178 -332q0 -57 53 -57q92 0 197 37q125 43 192.5 116.5t118.5 196.5q49 109 61 199q8 6 23 2q16 -4 18 -15q-12 -61 -35 -287q-23 -213 -22 -239q0 -45 -37 -45q-150 0 -412 -22.5t-250 -22.5q-35 0 -34 57z" />
<glyph unicode="3" horiz-adv-x="980" d="M117 621q6 6 16 6q14 0 21 -13q68 -238 96 -297q96 -211 244 -211q96 0 154.5 87.5t58.5 228.5q0 324 -228 323q-33 0 -63.5 -8t-38.5 -8q-37 0 -37 64q0 23 27 22q8 0 35.5 -2t41.5 -2q250 0 250 381q0 328 -153 328q-219 0 -351 -562q-25 -16 -34 7q8 72 8 184 q0 276 -23 377q6 18 29 18q31 -98 82 -98q25 0 72 39q63 53 100 74q74 39 164 38q139 0 225 -94q92 -102 92 -286q0 -190 -78 -312q-63 -96 -151 -114v-9q244 -41 244 -356q0 -172 -106.5 -286.5t-264.5 -114.5q-90 0 -178 38.5t-107 38.5q-61 0 -121 -98q-23 -6 -24 21 q12 68 12 284q0 225 -14 312z" />
<glyph unicode="4" horiz-adv-x="1056" d="M10 535l103 139q127 174 235 356q213 365 213 445q0 12 -4 34q-12 23 -25 39q-4 23 21 37q29 -8 111 -8q37 0 189.5 16.5t154.5 16.5q18 -1 18 -21q0 -8 -53 -35q-215 -115 -215 -768v-98q53 -4 94 -4q43 0 86 16l43 15q20 0 20 -23q0 -37 -70.5 -83t-168.5 -64 q10 -262 63 -357q41 -76 160 -110q4 -6 0 -23q-6 -16 -16 -22q-63 14 -219 14q-236 0 -344 -22q-20 8 -7 36q117 70 156 146q49 98 61 330q-74 2 -190 20q-106 16 -178 16q-68 0 -139.5 -31.5t-69.5 -31.5q-29 0 -29 25zM250 717q0 -12 16 -12q-2 0 49.5 8t87.5 8 q61 0 218 -19v62q0 397 -17 553q-354 -608 -354 -600z" />
<glyph unicode="5" horiz-adv-x="937" d="M82 -25q18 92 18 299q0 172 -10 273q23 20 39 4q29 -156 100 -281q94 -162 213 -161q98 0 163 113.5t65 316.5q0 403 -195 403q-174 0 -307 -246q-8 -4 -23.5 3.5t-17.5 13.5q39 182 39 428q0 102 -8 254.5t-8 150.5q0 39 36 39q-4 0 137.5 -8t241.5 -8t201.5 15t95.5 15 q39 1 39 -22q0 -18 -104 -174q-20 -31 -49 -31q-12 0 -139.5 16.5t-192.5 16.5q-92 0 -125 -37q-41 -49 -41 -207q0 -246 -2 -176q0 -49 12 -49q-14 0 77 51t183 51q164 0 262 -118q109 -135 109 -398q0 -225 -127 -368q-115 -131 -275 -131q-76 0 -146.5 31.5t-92.5 31.5 q-45 0 -86 -45q-33 -37 -49 -82q-25 -4 -33 16z" />
<glyph unicode="6" horiz-adv-x="991" d="M84 727q0 350 127 600t311 250q72 0 129.5 -27.5t73.5 -27.5q66 0 117 108q25 6 35 -10q-31 -201 -31 -537q0 -41 2 -63q-4 -10 -21 -12q-14 0 -20 8q-10 158 -72 299q-80 193 -205 192q-111 0 -178 -178t-76 -498q113 135 269 136q160 0 260 -117q110 -127 110 -358 q0 -219 -115.5 -355.5t-279.5 -136.5q-436 0 -436 727zM276 637q4 -291 50 -416q51 -143 174 -143q100 0 159 96q64 104 64 303q0 401 -207 402q-82 0 -147.5 -64.5t-92.5 -177.5z" />
<glyph unicode="7" horiz-adv-x="919" d="M115 1018q16 119 16 526q0 41 37 41q-6 0 121 -9t231 -9t237.5 6t123.5 6q28 0 28 -35q0 -162 -116 -405q-106 -219 -215 -439q-117 -268 -117 -489q0 -61 8 -103t8 -45q0 -29 -28 -28q-96 0 -186.5 -9.5t-82.5 -9.5q-27 0 -26 33q0 162 176 471q162 264 325 531 q176 289 176 407q0 39 -51 39q-319 0 -458 -149q-131 -143 -170 -336q-23 -16 -37 6z" />
<glyph unicode="8" horiz-adv-x="1054" d="M72 434q0 141 76.5 251t205.5 159q-233 84 -233 323q0 195 121 318q115 119 288 119q176 0 290 -110t114 -290q0 -266 -236 -358q127 -45 203 -146q82 -108 82 -260q0 -199 -137 -327q-131 -121 -320 -121q-203 0 -328.5 118.5t-125.5 323.5zM289 428q0 -170 62.5 -265 t170.5 -95q111 0 183.5 104.5t72.5 278.5q0 170 -67.5 264t-169.5 94q-125 0 -188.5 -102.5t-63.5 -278.5zM326 1157q0 -125 52 -200.5t148 -75.5q201 0 201 276q0 383 -186 383q-215 0 -215 -383z" />
<glyph unicode="9" horiz-adv-x="991" d="M86 1081q0 219 119 359q113 133 276 133q437 0 437 -727q0 -350 -128 -600t-311 -250q-74 0 -130 27.5t-73 27.5q-66 0 -116 -108q-25 -6 -35 10q31 201 31 536q0 41 -2 64q2 10 18 12q16 0 21 -8q12 -158 71 -299q82 -193 205 -192q111 0 179.5 178t76.5 497 q-113 -135 -268 -135q-162 0 -260 117q-111 127 -111 358zM279 1096q0 -401 206 -402q82 0 147.5 64.5t92.5 177.5q-6 291 -51 416q-51 143 -172 143q-102 0 -160 -96q-63 -104 -63 -303z" />
<glyph unicode=":" horiz-adv-x="512" d="M127 115q0 57 41 97t100 40q55 0 95 -40t40 -97t-39.5 -97.5t-97.5 -40.5q-57 0 -98 40t-41 98zM127 762q0 59 41 99t100 40q55 0 95 -41t40 -96q0 -57 -39.5 -98t-97.5 -41q-57 0 -98 40t-41 97z" />
<glyph unicode=";" horiz-adv-x="512" d="M117 113q0 61 36.5 100t96.5 39q72 0 117 -55.5t45 -145.5q0 -170 -191 -330l-31 27q121 133 121 225q0 18 -8 19q-2 0 -22.5 -6t-40.5 -6q-51 0 -87 37.5t-36 95.5zM127 762q0 59 40 99t99 40q55 0 95 -41t40 -96q0 -57 -39.5 -98t-97.5 -41q-57 0 -97 40t-40 97z" />
<glyph unicode="&#x3c;" horiz-adv-x="1206" d="M147 694v84l877 486v-201l-594 -328l594 -334v-186z" />
<glyph unicode="=" horiz-adv-x="1153" d="M166 494v149h835v-149h-835zM166 801v149h835v-149h-835z" />
<glyph unicode="&#x3e;" horiz-adv-x="1187" d="M184 219v201l594 328l-594 333v187l877 -480v-83z" />
<glyph unicode="?" horiz-adv-x="927" d="M162 1114q0 145 90 260q102 133 272 133q150 0 246 -125q88 -112 88 -266q0 -131 -76 -244q-39 -57 -141 -153q-72 -68 -94 -96q-41 -57 -41 -123q0 -16 4 -52t4 -53q0 -27 -14 -26q-33 0 -56 77q-16 61 -16 109q0 141 112.5 290.5t112.5 278.5t-61 197q-53 55 -135 55 q-84 0 -139.5 -68.5t-55.5 -148.5q0 -78 27 -123q23 -37 47 -37q14 0 14 -36q0 -70 -80 -70q-37 0 -69 61q-39 68 -39 160zM340 119q0 59 41 99t100 40q55 0 95 -41t40 -96q0 -57 -39.5 -98t-97.5 -41q-57 0 -98 39.5t-41 97.5z" />
<glyph unicode="@" horiz-adv-x="1961" d="M82 528q0 362 250 633q289 311 786 312q371 0 586 -205q201 -193 201 -496q0 -281 -166 -481q-156 -188 -346 -189v-2q-178 0 -226 181q-123 -174 -290 -175q-135 0 -222 91q-94 96 -94 264q0 190 139 368q158 205 383 205q162 0 222 -149l34 127h226l-183 -639 q-16 -57 -16 -94q0 -78 61 -78q115 0 234 135q147 168 147 434t-183 434t-478 168q-350 0 -592 -239q-248 -246 -248 -619q0 -326 204 -519.5t554 -193.5q336 0 633 211l61 -69q-147 -113 -280 -166q-188 -76 -426 -76q-442 0 -706.5 226.5t-264.5 600.5zM805 373 q0 -170 102 -170q109 0 214.5 196.5t105.5 376.5q0 160 -109 160q-96 0 -200 -174q-113 -184 -113 -389z" />
<glyph unicode="A" horiz-adv-x="1091" d="M-47 49q137 61 205 189q76 145 196.5 600.5t120.5 554.5q0 51 -72 94q-55 33 -122 47q-23 16 0 41q51 -8 133 -8q43 0 156.5 6t115.5 6q43 0 43 -35v-174q14 -207 76 -485q153 -707 346 -785q5 -3 5 -10q0 -4 -1 -8q-2 -16 -14 -16q-57 10 -254 10q-170 0 -275 -31 q-23 12 -12 33q84 41 119 98q49 80 49 234q0 45 -14 127q-34 14 -124 14q-36 0 -81 -2q-156 -8 -211 -39q-43 -197 -43 -256q0 -141 139 -191q6 -6 2 -20q-6 -12 -14 -14q-14 2 -92 2q-250 0 -373 -27q-11 11 -11 24q0 10 7 21zM367 627q16 -16 112 -16q24 0 53 1 q133 7 201 25q-49 213 -190 657q-68 -233 -97 -348q-25 -98 -79 -319z" />
<glyph unicode="B" horiz-adv-x="1013" d="M-82 1532q-1 5 -1 10q0 16 11 25q152 10 414 10q592 0 592 -414q0 -156 -88 -262q-66 -78 -160 -113v-8q256 -73 256 -354q0 -193 -133 -303q-145 -121 -434 -121q-313 0 -410 21q-12 16 2 38q166 49 215 291q27 119 27 389q0 502 -96 654q-63 102 -195 137zM332 643 q0 -332 28 -434q37 -133 164 -133q94 0 156.5 100t62.5 256q0 164 -59 236q-68 80 -240 80q-63 0 -87.5 -23t-24.5 -82zM340 879q0 -47 33 -60q16 -6 69 -6q152 0 224 74q77 81 77 276q0 315 -182 316q-123 0 -174 -156q-47 -141 -47 -444z" />
<glyph unicode="C" horiz-adv-x="972" d="M61 743q0 375 154 621q141 225 324 225q96 0 157.5 -48t89.5 -48q57 0 99 106q2 2 6 2t10 -2q12 -4 12 -18q-20 -143 -30 -340q-12 -204 -12 -281q0 -24 1 -36q-12 -31 -41 -13q-72 616 -274 617q-139 0 -205 -250q-57 -211 -57 -561q0 -301 80 -481q76 -172 192 -173 q143 0 219 183q61 147 62 342q0 53 29 53q47 0 47 -55q0 -238 -86 -402q-102 -188 -287 -188q-195 0 -328 166q-162 199 -162 581z" />
<glyph unicode="D" horiz-adv-x="1110" d="M0 1524q-4 6 -4 11q0 9 12 17q66 6 293 7q174 0 236 -9q131 -12 208 -63q318 -211 318 -670q0 -520 -268 -729q-78 -61 -224 -80q-74 -8 -260 -8q-238 0 -268 8q-14 16 -2 39q123 37 174 168q61 150 61 483q0 422 -73 615q-61 164 -203 211zM406 627q0 -238 14 -326 q31 -223 143 -223q125 0 201 145q94 181 94 568q0 272 -63 464q-70 213 -187 213q-202 0 -202 -833v-8z" />
<glyph unicode="E" horiz-adv-x="929" d="M-10 1499q-6 6 -6 12q0 9 12 21q72 -12 221 -12q45 0 324.5 11t287.5 11q31 0 31 -31q0 -2 -15.5 -157.5t-15.5 -208.5q0 -51 2.5 -121t2.5 -82q-6 -8 -19 -8q-14 0 -18 10q-10 158 -74 318q-78 196 -175 196h-1q-184 0 -203 -706q20 -27 53 -27q162 0 217 295q8 8 23 6 q12 0 16 -8q-26 -164 -26 -404v-18q0 -154 6 -193q-2 -10 -17 -12q-14 -2 -18 8q-14 111 -59 183q-51 86 -136 86q-41 0 -61 -41v-49q-2 -41 -2 -72q0 -438 172 -438q123 0 225 170q94 156 123 370q15 25 33 2q-18 -238 -19 -372q0 -49 2 -114l3 -65q0 -41 -52 -41 q-266 0 -512 -8q-209 -8 -297 -30q-33 14 -14 38q94 35 156 211q71 202 71 526v9q0 373 -75 551q-53 127 -166 184z" />
<glyph unicode="F" horiz-adv-x="956" d="M18 1499q-6 6 -6 12q0 10 13 21q72 -12 221 -12q45 0 324.5 11t287.5 11q31 0 31 -31q0 -2 -15.5 -157.5t-15.5 -208.5q0 -51 2 -121t2 -82q-6 -8 -18 -8q-14 0 -19 10q-10 158 -73 318q-78 196 -176 196h-1q-184 0 -202 -706q20 -27 53 -27q162 0 217 295q8 8 23 6 q12 0 16 -8q-27 -170 -27 -422q0 -154 7 -193q-2 -10 -17 -12q-14 -2 -18 8q-14 111 -60 183q-51 86 -135 86q-41 0 -61 -41v-49q-2 -41 -2 -72q0 -164 34 -285q45 -168 146 -174q6 -6 4 -22q-4 -16 -12 -19q-35 5 -111 5q-38 0 -86 -1q-209 -8 -297 -30q-33 14 -14 38 q94 35 155 211q72 205 72 535q0 373 -76 551q-53 127 -166 184z" />
<glyph unicode="G" horiz-adv-x="1048" d="M68 748q0 385 165 624q141 205 318 205q59 0 139 -49t107 -49q68 0 100 125q4 3 11 3q3 0 7 -1q12 -4 15 -13q-18 -78 -45 -325q-24 -217 -24 -298q0 -17 1 -28q-6 -10 -20 -10q-16 0 -21 6q-16 213 -76 371q-76 200 -187 200h-1q-111 0 -188 -176q-92 -207 -93 -585 q0 -356 78 -533q68 -149 177 -149h1q219 0 220 358q0 258 -250 293q-10 20 6 31q88 -3 164 -3q228 0 344 27q8 -4 13 -18q3 -7 3 -12q0 -4 -2 -7q-129 -51 -129 -444q0 -244 31 -334q-2 -8 -18 -14q-9 -4 -15 -4q-4 0 -6 2q-20 53 -57 96t-70 43q-29 0 -96.5 -43t-145.5 -43 q-186 0 -315 186q-141 209 -141 568z" />
<glyph unicode="H" horiz-adv-x="1099" d="M-41 -104q-3 8 -3 14q0 8 5 12q246 150 246 717q0 395 -43 563q-39 152 -139 201q-6 10 -2 24t12 17q37 -12 119 -12q225 0 329 28q29 -8 15 -37q-154 -154 -160 -753q32 -21 93 -21h11q55 2 111 6q82 6 123 11q68 10 110 26v21q0 371 -43 547q-41 170 -139 217 q-6 10 -2 24q2 14 12 17q43 -8 119 -9q68 0 208 10.5t181 20.5q10 0 17 -12q2 -5 2 -10q0 -8 -4 -15q-223 -184 -224 -803q0 -330 42 -487.5t135 -189.5q6 -8 2 -23q-6 -14 -19 -16q-33 12 -168 12q-203 0 -270 -29q-8 6 -12 21q-4 16 2 24q78 49 112 158q41 127 47 405 q-34 19 -141 19q-34 0 -76 -2q-174 -8 -229 -47q2 -305 27 -418q27 -129 108 -160q16 -20 -16 -39q-4 2 -23 2q-49 0 -196 -12q-203 -16 -267 -41q-8 4 -12 19z" />
<glyph unicode="I" horiz-adv-x="583" d="M35 -23q86 53 139 222q57 184 57 471q0 393 -41 563q-35 147 -124 201q-12 33 10 41q53 -12 125 -13q270 0 346 29q16 -7 16 -25q0 -6 -2 -14q-203 -154 -203 -786q0 -582 193 -660q6 -6 0 -22t-19 -19q-24 10 -90 10q-59 0 -151 -8q-201 -16 -246 -35q-17 12 -17 26 q0 9 7 19z" />
<glyph unicode="J" horiz-adv-x="890" d="M41 -127q12 63 12 328q0 266 -10 346q8 8 25 10q14 2 20 -4q18 -160 96 -324q98 -211 224 -211q121 0 157 175q29 135 29 559q0 379 -41 512q-37 127 -166 188q-8 6 -2 23q4 14 12 18q63 -12 287 -12q154 0 256 10q8 -2 14 -14q3 -6 3 -9q0 -6 -5 -8q-198 -55 -198 -388 q0 -165 -6 -438q-7 -274 -7 -349q0 -158 -98 -252q-90 -86 -219 -86q-70 0 -141.5 32.5t-102.5 32.5q-61 0 -98 -159q-3 -1 -6 -1q-7 0 -18 5q-15 8 -17 16z" />
<glyph unicode="K" horiz-adv-x="1136" d="M18 -55q231 102 232 671q0 393 -41 564q-35 150 -123 202q-16 27 8 41q43 -10 125 -10q287 0 338 14q16 -4 14 -36q-100 -47 -147 -193q-57 -174 -59 -532q135 152 260 323q166 233 166 322q0 96 -95 137q-23 29 4 37q131 -18 250 -19q162 0 316 15q12 -2 16 -19 q1 -5 1 -8q0 -9 -7 -14q-115 -37 -309 -201q-162 -135 -496 -537q143 68 240 68q78 0 122 -51t44 -137q0 -88 -41 -279.5t-41 -282.5q0 -45 21.5 -77.5t55.5 -32.5q70 0 113 90q35 80 35 182q0 119 22 119q45 0 45 -51q0 -201 -67 -311q-57 -98 -150 -99q-92 0 -145 70 q-63 80 -63 240q0 78 6 190.5t6 151.5q0 147 -103 147q-41 0 -98 -23q-68 -27 -108 -69q4 -309 45 -424t159 -156q10 -37 -16 -41q-14 6 -113 8q-31 1 -57 1q-52 0 -84 -3q-238 -18 -270 -32q-17 13 -17 27q0 9 6 18z" />
<glyph unicode="L" horiz-adv-x="935" d="M-33 41q119 27 166 139q68 156 68 549q0 455 -45 606q-37 123 -152 158q-4 18 16 37q53 -10 216 -10q174 0 333 16q8 -4 11 -18q4 -16 -5 -25q-127 -37 -186 -223q-65 -202 -65 -614v-13q0 -279 30 -405q35 -139 113 -140q190 0 287 312q76 242 80 338q8 4 14 4 q16 -1 20 -11q-12 -219 -12 -485q0 -45 5 -115.5t5 -77.5q0 -20 -5 -27t-34 -7h-163q-55 0 -353 -13q-303 -14 -325 -18q-10 2 -16 18q-4 10 -5 17q0 4 2 8z" />
<glyph unicode="M" horiz-adv-x="1349" d="M-35 1470q-1 4 -1 7q0 13 18 24q41 -4 333 -4q27 0 60 2h35q33 0 32 -65q0 -133 101.5 -493.5t138.5 -360.5q20 0 162 538q49 180 102 383q6 33 43 33h131q143 0 258 20q18 -6 18 -20q0 -5 -3 -12q-141 -41 -201 -179q-74 -170 -74 -567q0 -657 221 -734q4 -4 0 -15 q-4 -10 -11 -10.5t-64.5 -2.5t-108.5 -2q-66 0 -200 -9t-160 -17q-23 18 -11 47q199 76 199 758q0 458 -16 458q-12 0 -54 -143q-45 -162 -88 -324q-53 -195 -106 -389q-59 -211 -84 -211q-27 0 -86 197q-51 178 -100 354q-43 150 -89 271q-43 112 -53 112t-10 -344 q0 -438 53 -598q43 -125 164 -176q4 -8 0 -21q-4 -12 -12 -16q-33 10 -193 10q-55 0 -170 -10q-127 -10 -149 -20q-25 8 -13 36q92 31 170 153t78 249q0 55 2 404.5t2 424.5q0 123 -112 199q-68 47 -152 63z" />
<glyph unicode="N" horiz-adv-x="1021" d="M-72 1489q-8 7 -8 16t8 21q59 -8 174 -8q125 0 265 10q27 2 32 -31q6 -39 66 -246q70 -244 110 -344q190 -471 203 -471q16 0 17 436q0 281 -31 408q-47 199 -193 254q-14 20 9 35q25 -2 96 -2q299 0 414 18q8 -3 15 -13q4 -6 4 -10t-3 -8q-240 -82 -240 -542v-973 q0 -72 -35 -72q-31 0 -67 90q-451 1092 -485 1092q-14 0 -15 -379q0 -315 33 -457q49 -219 199 -266q14 -12 -2 -35q-14 2 -39 2q-129 0 -283 -15t-209 -32q-10 2 -17 15.5t-3 21.5q174 90 227 338q27 127 27 428q0 -1286 2 -1286t8 1601v12q0 147 -49 228q-61 104 -230 164 z" />
<glyph unicode="O" d="M66 731q0 342 137 588q143 258 354 258q207 0 338 -240q123 -231 123 -573q0 -356 -137.5 -593t-339.5 -237q-201 0 -338 231.5t-137 565.5zM295 750q0 -750 246 -750q125 0 182 174t57 571q0 768 -223 768q-123 0 -190 -190q-72 -199 -72 -573z" />
<glyph unicode="P" horiz-adv-x="970" d="M-49 1489q2 16 10 22q117 16 408 17q297 0 427 -111.5t130 -359.5q0 -238 -125 -375q-115 -125 -279 -125q-98 0 -166 53q6 -289 56 -420q49 -139 170 -172q6 -6 2 -20q-4 -12 -15 -14q-37 8 -194 8q-272 0 -346 -25h-3q-10 -1 -18 9q-10 12 -8 20q121 57 168 217 q49 168 49 539q0 457 -67 606q-51 110 -190 110h-3q-6 5 -6 15v6zM354 764q41 -133 146 -133q233 0 233 440q0 190 -57 289q-51 86 -129 86q-102 0 -147.5 -167t-45.5 -515z" />
<glyph unicode="Q" d="M66 731q0 342 137 588q143 258 354 258q207 0 338 -240q123 -231 123 -573q0 -268 -82 -479q-80 -203 -213 -293q55 -96 108 -96q84 0 125 143q8 4 23 2q14 -4 20 -12q0 -104 -47 -183q-51 -86 -129 -86q-57 0 -102 64q-27 35 -70 131q-53 -20 -110 -21 q-201 0 -338 231.5t-137 565.5zM295 750q0 -559 135 -701q10 106 113 107q74 0 131 -84q106 147 106 673q0 768 -223 768q-123 0 -190 -190q-72 -199 -72 -573zM498 47q0 -25 14 -43q14 -4 29 -4q45 0 80 20q-39 70 -78 70q-45 0 -45 -43z" />
<glyph unicode="R" horiz-adv-x="1093" d="M-49 1446q2 18 8 24q154 35 434 35q571 0 572 -413q0 -186 -105 -304q-76 -84 -168 -106v-8q66 -8 123 -58q74 -61 74 -153q0 -76 -33 -233.5t-33 -182.5q0 -94 80 -94q47 0 75 69.5t28 174.5q0 86 -1 86l-1 -7q2 33 22 33q41 0 41 -102q0 -317 -166 -318q-86 0 -145 70 q-70 86 -70 250v135q2 74 2 100q0 92 -62.5 146.5t-179.5 54.5q-72 0 -71 -61q0 -303 39 -417t155 -151q4 -6 0 -22q-6 -14 -12 -17q-33 4 -192 5q-61 0 -170 -11q-121 -10 -150 -22q-27 16 -27 39q111 68 156 180q66 170 66 549q0 690 -285 706q-4 4 -4 23zM377 821 q0 -61 19.5 -81.5t90.5 -20.5q283 0 283 360q0 170 -61 262q-55 80 -140 80q-119 0 -166 -272q-26 -140 -26 -315v-13z" />
<glyph unicode="S" horiz-adv-x="958" d="M66 1030q0 225 127 369q121 135 284 135q84 0 162 -42t94 -42q61 0 105 127q10 5 17 5q11 0 17 -11q-12 -59 -38 -334q-25 -271 -25 -355v-12q-16 -25 -41 0q0 219 -63 383q-78 207 -222 207q-98 0 -166.5 -100t-68.5 -258q0 -248 170 -352q158 -68 313 -136 q170 -92 170 -309q0 -180 -106 -278q-96 -88 -248 -88q-66 0 -158 35.5t-115 35.5q-43 0 -78.5 -45t-50.5 -108q-10 -7 -18 -7q-11 0 -16 15q8 61 8 219q0 272 -21 420q18 14 31 -2q33 -158 109 -289q115 -201 284 -201q92 0 150.5 72t58.5 178q0 150 -172 230 q-315 147 -321 151q-172 127 -172 387z" />
<glyph unicode="T" horiz-adv-x="1032" d="M66 1468q0 23 22 23h-3l85 -3q100 -3 238 -3q98 -1 340 15q230 15 230 16h-1q22 0 22 -25v2q-2 0 -30 -295q-26 -252 -26 -371q0 -23 1 -41q-14 -18 -39 0q0 186 -53 400q-57 229 -121 229q-123 0 -123 -670q0 -270 17 -383q37 -268 159 -329q23 -12 54 -21q10 -4 8 -20 q-4 -14 -17 -17q-41 4 -106 5q-324 0 -516 -31q-16 12 -6 37q176 51 237 321q33 150 33 428q0 385 -14 500q-20 176 -101 176q-78 0 -149 -215q-70 -203 -88 -442q-18 -18 -31 4q2 43 2 96q0 154 -12 396q-11 220 -12 220v-2z" />
<glyph unicode="U" horiz-adv-x="1062" d="M-25 1403q-1 2 -1 5q0 14 20 28q72 -10 162 -11q233 0 329 25q20 -4 17 -31q-92 -49 -123 -159q-43 -152 -43 -566q0 -399 39 -538q45 -154 178 -154q154 0 207 131q61 150 61 594q0 432 -51 584q-43 127 -178 180q-10 10 8 29q37 -4 137 -4q193 0 338 34q7 -2 15 -12 q5 -7 5 -12q0 -3 -1 -6q-82 -41 -136 -148q-63 -125 -63 -293q0 -45 2 -369.5t2 -371.5q0 -203 -95 -317.5t-263 -114.5q-362 0 -363 448v684q0 125 -67 238q-63 106 -136 127z" />
<glyph unicode="V" horiz-adv-x="1097" d="M-49 1438q-6 8 -6 15q0 9 10 15q35 -7 164 -7q52 0 119 1q207 4 264 8q6 -2 10 -12t0 -14q-141 -63 -141 -234q0 -236 108 -606q100 -332 125 -332q33 0 127 385q98 401 98 588q0 201 -184 254q-23 16 -6 37q37 -5 147 -5q55 0 129 1q207 6 250 12q6 -2 9 -14 q2 -6 2 -10.5t-2 -6.5q-131 -43 -207 -274q-166 -580 -351 -1221q-35 -127 -61 -127q-29 0 -63 121q-113 426 -283 1045q-92 319 -258 381z" />
<glyph unicode="W" horiz-adv-x="1468" d="M-43 1489q-7 12 -7 22q0 14 13 23q43 -10 258 -10q229 0 336 16q8 -2 6 -18q-2 -14 -10 -21q-209 -45 -209 -221q0 -180 76 -526q72 -324 90 -324q12 0 119 442q55 231 110 463q16 63 37 64q25 0 39 -60q49 -233 98 -467q94 -430 107 -430q23 0 104 353q82 362 82 491 q0 123 -63 201q-47 57 -109 76q-8 6 -4 18q2 10 8 14q63 -12 336 -12q137 0 174 4q6 -4 6 -16q0 -13 -6 -19q-180 -70 -268 -422l-274 -1103q-8 -39 -27 -39q-25 0 -33 49q-98 457 -198 930q-2 18 -15 18q-8 0 -14 -24q-111 -469 -225 -957q-10 -41 -29 -41q-23 0 -33 49 q-88 412 -231 1041q-39 166 -105.5 284.5t-138.5 151.5z" />
<glyph unicode="X" horiz-adv-x="1167" d="M-25 8q133 57 248 223q104 156 307 584q-92 182 -225 445q-96 197 -258 239q-18 20 6 35q29 -6 107 -6q295 0 407 20q18 -12 11 -41q-104 -39 -105 -147q0 -121 156 -447q188 338 188 473q0 117 -121 158q-23 16 -2 33h49q248 0 445 25q8 -4 14 -20q4 -10 4 -17 q0 -4 -2 -6q-164 -37 -311 -285q-100 -168 -221 -453q152 -319 213 -426q150 -256 272 -297q4 -6 0 -24t-14 -23q-41 10 -172 10q-262 0 -344 -18q-6 2 -11 16q-4 14 0 23q53 20 92.5 76.5t39.5 134.5t-177 440q-213 -434 -213 -553t117 -151q6 -6 -1 -23.5t-19 -19.5 q-33 8 -111 8q-203 0 -360 -33q-13 10 -13 27q0 9 4 20z" />
<glyph unicode="Y" horiz-adv-x="1052" d="M-31 1534q61 -14 285 -14q166 0 246 10q10 -4 12 -19q2 -16 -8 -18q-113 -45 -113 -129q0 -86 87 -349t112 -263q18 0 106 239q92 252 92 357q0 119 -118 178q-14 23 12 35q43 -12 192 -13q145 0 242 13q17 -11 17 -30q0 -8 -3 -18q-178 -82 -278 -311 q-160 -365 -215 -559q-18 -70 -19 -283q0 -262 189 -309q10 -10 4 -28q-4 -16 -14 -23q-41 8 -154 8q-303 0 -403 -33q-25 2 -21 41q248 104 248 402q0 178 -45 336q-27 96 -103 272q-111 252 -178 340t-176 127q-8 7 -8 18q0 18 12 23z" />
<glyph unicode="Z" horiz-adv-x="1042" d="M41 16q0 12 145 254q176 293 260 463q322 643 322 715q0 31 -55 31q-102 0 -201 -41q-115 -45 -180 -129q-90 -119 -137 -412q-8 -10 -25 -8q-16 2 -20 12q6 49 8 189q0 98 -2 243l-2 151v-1q0 61 57 61q27 0 76 -5t75 -5q170 0 415 14q226 13 226 15h-2q43 0 43 -43 q0 -23 -366 -682q-92 -166 -230.5 -443.5t-138.5 -298.5q0 -37 39 -38q256 0 377 171q109 154 174 482q6 6 21 6q14 0 22 -8q-24 -122 -24 -614v-40q0 -41 -19 -49q-10 -6 -33 -6q-272 0 -544 -12q-240 -10 -240 -11h4q-45 0 -45 39z" />
<glyph unicode="[" horiz-adv-x="626" d="M170 -307v1726h356v-59h-116q-51 0 -69.5 -19.5t-18.5 -72.5v-1420q0 -96 84 -96h120v-59h-356z" />
<glyph unicode="\" horiz-adv-x="741" d="M12 1477h121l541 -1620h-121z" />
<glyph unicode="]" horiz-adv-x="571" d="M92 -248h121q84 0 84 96v1420q0 53 -18.5 72.5t-69.5 19.5h-117v59h357v-1726h-357v59z" />
<glyph unicode="^" horiz-adv-x="1361" d="M74 987l528 567h164l528 -567h-139l-473 451l-475 -451h-133z" />
<glyph unicode="_" horiz-adv-x="1099" d="M55 -88h1004v-135h-1004v135z" />
<glyph unicode="`" horiz-adv-x="565" d="M106 1423q0 39 30 70t71 31q66 0 125 -103q39 -80 76 -159q10 -21 49 -78l-15 -15q-51 45 -90 64q-139 66 -149 72q-96 57 -97 118z" />
<glyph unicode="a" horiz-adv-x="837" d="M45 264q0 127 101.5 216t256.5 89q84 0 146 -39q-6 193 -6 261q0 168 -33 233q-29 53 -90 53q-190 0 -328 -452q-20 -18 -31 4q0 20 9.5 145t9.5 167t2 126v94q9 14 20 14q10 0 21 -12q14 -82 65 -82q20 0 120 41t184 41q111 0 157 -57q59 -72 60 -264q0 -68 -7.5 -283 t-7.5 -260q0 -135 39 -193.5t141 -70.5q6 -4 7 -23q-1 -16 -7 -24q-176 -29 -280 -29q-43 0 -43 66q0 16 2 77q-86 -82 -231 -82q-113 0 -195 70t-82 174zM225 289q0 -180 156 -180q117 0 174 92q0 90 -2 194q-39 109 -141 109q-86 0 -140 -70q-47 -61 -47 -145z" />
<glyph unicode="b" horiz-adv-x="880" d="M-104 1513q-3 6 -3 11q0 8 7 16q25 -2 88 -2q72 0 171 8q92 7 92 8h-1q33 0 33 -22v1q-1 0 -31 -517q82 121 237 121q147 0 242 -152q96 -158 96 -414q0 -268 -108 -419q-98 -133 -244 -134q-135 0 -217 119l4 -110q0 -35 -26 -35q-195 0 -271 -23q-6 4 -10 17 q-4 14 0 20q106 55 135 170q33 133 33 551q0 473 -33 606q-41 160 -194 180zM250 532q0 -436 209 -436q198 0 198 473q0 211 -49 338q-53 137 -149 137q-119 0 -168 -137q-41 -117 -41 -375z" />
<glyph unicode="c" horiz-adv-x="817" d="M57 555q0 266 107 440q104 168 258 168q63 0 117.5 -33.5t78.5 -33.5q66 0 101 104q9 7 16 7q11 0 17 -19q-10 -53 -35 -279q-16 -170 -23 -286q-4 -10 -14 -13q-12 -2 -21 13q-18 164 -75 305q-72 172 -160 172q-193 0 -193 -553q0 -256 66 -383q57 -111 152 -111 q90 0 155.5 90t65.5 236q0 35 32 35q35 0 35 -39q0 -152 -63 -256q-78 -127 -228 -127q-168 0 -276 145q-113 154 -113 418z" />
<glyph unicode="d" horiz-adv-x="892" d="M37 588q0 258 115 432q109 166 260 166q121 0 190 -119q-14 252 -67 352q-45 88 -154 119q-2 20 16 31q55 -6 117 -6q98 0 175 11q67 10 67 11h-2q37 0 37 -26q0 2 -17 -105q-20 -125 -31 -260q-16 -197 -16 -412q0 -414 49 -581q44 -143 150 -178q5 -9 5 -15 q0 -9 -9 -16q-5 1 -19 1q-35 0 -125 -7q-133 -10 -137 -11q-41 0 -41 31q0 4 2 43q0 53 2 109q-76 -156 -213 -156q-154 0 -254 162t-100 424zM211 571q0 -495 196 -495h1q194 0 194 530q0 291 -45 408q-41 106 -137 106q-94 0 -151.5 -145.5t-57.5 -403.5z" />
<glyph unicode="e" horiz-adv-x="835" d="M47 520q0 270 129 449q119 168 275 168q160 0 243 -150q76 -131 76 -344q0 -66 -6 -88.5t-31 -22.5h-176q-143 -2 -176 -2q-106 0 -158 -8v-30q0 -225 56 -347q49 -108 135 -108h2q106 0 207 137q76 104 120 244q12 8 23 2q10 -7 12 -19q-14 -74 -26 -223 q-8 -121 -9 -239q-8 -15 -18 -15q-9 0 -20 10q-8 33 -29 64q-27 37 -58 37q-14 0 -76.5 -31t-119.5 -31q-145 0 -252 133q-123 152 -123 414zM227 616q31 -12 168 -12q106 0 153.5 9.5t47.5 66.5q0 182 -21 264q-33 131 -131 131q-193 0 -217 -459z" />
<glyph unicode="f" horiz-adv-x="694" d="M39 1052.5q12 20.5 31 20.5q4 0 61 -2q66 -4 125 -6v104q0 195 95 304.5t257 109.5q96 0 166 -59q74 -66 74 -168q0 -76 -38 -120t-93 -44q-53 0 -88 34t-35 87q0 47 36 79.5t77 32.5q4 0 12 -2h12q14 0 14 15q0 27 -32 51q-39 27 -95 27q-102 0 -153 -95 q-53 -102 -72 -356q90 2 221 8t127 6q16 0 17 -24q0 -53 -58 -54q-20 0 -128.5 4.5t-176.5 4.5h-6q-8 -156 -8 -379q0 -264 6 -346q10 -113 43 -155t121 -75q4 -6 0 -20t-14 -19q-43 4 -101 4t-131 -4q-145 -8 -219 -24q-33 12 -29 43q190 74 191 409q0 92 2 254 q4 193 4 303q-198 -14 -198 -16h3q-32 0 -32 27q0 20 12 40.5z" />
<glyph unicode="g" horiz-adv-x="915" d="M49 539q0 238 112.5 399.5t262.5 161.5q94 0 156 -72q-10 74 -11 78q0 29 27 29q350 0 387 6q8 -9 8 -19q0 -8 -6 -16q-135 -51 -186 -170q-37 -86 -37 -231v-15q6 -459 8 -459t2 191q0 -197 4 -319.5t4 -198.5q0 -141 -89 -225.5t-226 -84.5q-57 0 -111.5 28t-68.5 28 q-53 0 -88 -99q-8 -6 -20 -6h-7q-16 2 -23 13q14 72 15 157q0 162 -31 254q18 29 35 15q51 -129 86 -183q84 -123 205 -123q92 0 131 132q31 106 35 354q-27 -74 -86.5 -125t-133.5 -51q-154 0 -254 155.5t-100 395.5zM223 524q0 -227 62 -348q53 -106 135 -106q80 0 129 94 q65 125 65 393q0 473 -182 473q-86 0 -145 -133q-63 -141 -64 -373z" />
<glyph unicode="h" horiz-adv-x="964" d="M-12 1573q2 16 10 20q43 -4 111 -4q57 0 142 5l85 5q35 0 35 -36v1q-1 0 -19 -220q-20 -234 -20 -353q98 162 266 162q121 0 190 -63q78 -72 78 -209q0 -104 -8 -348t-8 -295q0 -148 160 -183q4 -3 4 -13v-7q-2 -14 -8 -21q-18 2 -50.5 2t-78.5 -2q-100 -6 -150 -20 q-18 -6 -31.5 8t-13.5 37l8 117q10 137 17 276q10 201 10 406q0 213 -154 213q-182 0 -233 -236q0 -27 -4 -144.5t-4 -164.5q0 -254 24 -348q33 -119 137 -160q4 -8 -2 -26.5t-18 -22.5q-55 8 -215 8q-78 0 -166 -23q-12 2 -23.5 17.5t-9.5 28.5q123 59 148 339q6 49 6 420 q0 440 -35 590q-41 180 -176 219q-5 5 -5 15q0 4 1 10z" />
<glyph unicode="i" horiz-adv-x="518" d="M45 18q96 53 136 176t40 357q0 274 -39 377q-35 86 -133 114q-10 29 17 43q41 -5 90 -5q16 0 34 1q49 2 107.5 6.5t62.5 4.5q33 0 33 -37l-14 -66q-16 -76 -27 -166q-16 -135 -16 -303q0 -256 35 -346q27 -72 125 -131q4 -3 4 -12v-6q0 -16 -6 -21q-47 6 -152 6 q-150 0 -283 -30q-8 2 -13 16q-3 8 -3 14q0 4 2 8zM139 1276q0 51 38 87t89 36q53 0 90 -36t37 -87t-37 -87t-90 -36q-51 0 -89 36t-38 87z" />
<glyph unicode="j" horiz-adv-x="499" d="M-254 -131q18 31 35 14q25 -63 102 -131q84 -74 154 -74q111 0 143 189q25 129 25 502q0 -191 2 -191t8 459v15q0 145 -37 231q-51 119 -186 170q-12 18 4 34q35 -6 385 -6q27 1 27 -28v2q-3 0 -29 -143q-29 -160 -29 -341q0 -197 5 -424t5 -303q0 -115 -81 -190 q-72 -68 -158 -68q-55 0 -114.5 26t-74.5 26q-51 0 -88 -101q-8 -6 -20 -6h-6q-16 2 -21 14q-4 29 -51 324zM113 1276q0 51 36.5 87t90.5 36q53 0 90 -36t37 -87t-37 -87t-90 -36t-90 36t-37 87z" />
<glyph unicode="k" horiz-adv-x="962" d="M0 1444q-1 4 -1 8q0 20 19 27q31 -6 140 -6h59q152 4 186 10q29 -4 21 -31q-33 -39 -66 -184q-49 -217 -49 -545v-150q6 -8 15 -8q37 0 159 135q133 143 133 215q0 66 -100 105q-10 12 10 24q340 0 480 25q17 -4 17 -24q0 -8 -3 -19q-129 -31 -344 -217 q-84 -76 -252 -240q72 14 147 15q195 0 195 -164q0 -66 -30.5 -217.5t-30.5 -169.5q0 -82 63 -82q102 0 102 178q0 63 2 78q4 31 25 31q37 0 37 -113t-48 -174.5t-126 -61.5q-170 0 -170 281q0 201 -19 262q-25 82 -106 82q-106 0 -154 -65q4 -219 33 -304q31 -90 117 -120 q4 -6 0 -21q-6 -14 -15 -16q-57 6 -96 6q-217 0 -332 -31q-18 10 -18 24q0 5 2 11q102 51 143 207.5t41 496.5q0 336 -10 410q-33 297 -176 332z" />
<glyph unicode="l" horiz-adv-x="538" d="M-25 1491q2 10 11 14q41 -5 102 -5q20 0 43 1q61 2 141 7t82 5q41 0 41 -38v4q-1 -1 -21 -245q-22 -274 -22 -507q0 -317 10 -399q33 -262 168 -299q1 -3 1 -7q0 -8 -4 -18q-7 -16 -15 -16q-47 6 -119 6q-197 0 -358 -37q-20 12 -12 41q109 45 153 180q55 168 55 559 t-49 537.5t-200 191.5q-8 10 -7 25z" />
<glyph unicode="m" horiz-adv-x="1525" d="M-27 1102q2 16 11 22q33 -4 102 -4q68 0 148.5 7.5t76.5 7.5q35 0 35 -37q0 -4 -2 -47q-4 -55 -6 -109q104 154 262 154q92 0 158 -56q49 -41 63 -94h6q80 197 303 197q127 0 199 -78q66 -72 66 -182q0 -68 -8.5 -289t-8.5 -293q0 -137 45.5 -205.5t151.5 -97.5 q4 -2 4 -10q0 -5 -2 -13q-4 -16 -12 -18q-39 2 -72 2q-41 0 -143.5 -10t-108.5 -10q-27 0 -27 32v-4l12 174q12 199 13 396q0 283 -37 392t-137 109q-217 0 -217 -463q0 -283 53 -389q39 -74 150 -116q4 -4 -1.5 -19.5t-13.5 -19.5q-88 6 -135 6q-193 0 -297 -27 q-16 12 -12 37q57 47 82 137q35 119 35 371t-37 348q-33 90 -115 90q-170 0 -225 -256q-2 -100 -2 -209q0 -285 41 -401q35 -92 121 -131q6 -8 -2.5 -29.5t-18.5 -21.5q-23 4 -102 4q-207 0 -322 -29q-8 4 -15 19.5t-5 23.5q92 66 129 166q45 127 45 387q0 299 -58 424 q-47 102 -166 137q-5 4 -5 14q0 5 1 11z" />
<glyph unicode="n" horiz-adv-x="964" d="M-47 1079q2 16 10 21q40 -4 95 -4h38q53 0 125 4q66 6 68 6q35 0 35 -39q0 -4 -2 -41q-2 -45 -5 -94q98 162 267 162q121 0 190 -64q78 -72 78 -207q0 -106 -8 -320t-8 -267q0 -146 159 -181q5 -3 5 -13q0 -3 -1 -7q-2 -14 -8 -21q-18 2 -50.5 2t-78.5 -2 q-102 -6 -149 -20q-18 -6 -31.5 8t-13.5 37l8 102q10 119 16 248q10 186 10 389q0 213 -153 213q-182 0 -234 -235q-2 -102 -2 -224q0 -293 33 -393q27 -82 123 -141q4 -8 -2 -26.5t-18 -22.5q-55 8 -216 8q-78 0 -165 -23q-12 2 -23.5 17.5t-9.5 28.5q88 61 117 159 q36 110 36 369v14q0 299 -61 412q-45 82 -170 119q-5 5 -5 15q0 5 1 11z" />
<glyph unicode="o" horiz-adv-x="849" d="M41 537q0 268 129 440q117 158 268 158q156 0 260 -154q111 -166 111 -438q0 -254 -119 -420q-109 -158 -260 -158q-156 0 -266 144q-123 158 -123 428zM219 543q0 -264 45 -381q47 -125 164 -125q106 0 153.5 123t47.5 393q0 516 -193 516q-217 0 -217 -526z" />
<glyph unicode="p" horiz-adv-x="907" d="M-74 1122q4 10 11 15q27 -2 59 -2q72 0 182.5 13t108.5 13q43 0 43 -37q0 8 -15 -188q102 158 240 158q145 0 232 -145.5t87 -387.5q0 -258 -81 -409q-92 -168 -267 -168q-137 0 -229 120q10 -205 53 -301q35 -78 115 -127q4 -6 0 -18q-6 -12 -14 -12q-68 16 -183 16 q-152 0 -272 -29q-20 14 -12 43q96 70 137 191q57 166 57 520q0 367 -67 537q-57 141 -179 176q-6 6 -6 17v5zM291 324q55 -260 194 -261q111 0 163 106.5t52 352.5q0 483 -170 484q-162 0 -225 -256q-14 -236 -14 -426z" />
<glyph unicode="q" horiz-adv-x="907" d="M35 532q0 236 99 399t253 163q80 0 143 -56q55 -47 70 -102l-14 188q0 37 41 37q-2 0 108.5 -13t182.5 -13q35 0 61 2q6 -4 8 -15q1 -5 1 -9q0 -8 -5 -13q-121 -35 -178 -176q-70 -170 -70 -537q0 -354 58 -520q41 -121 139 -191q8 -29 -14 -43q-119 29 -273 29 q-115 0 -180 -16q-8 0 -14 12t0 18q80 49 114 127q41 96 53 301q-91 -120 -229 -120h-2q-168 0 -260 146t-92 402zM205 520q0 -457 225 -457q80 0 135 93q46 74 58 168q0 190 -13 426q-66 256 -198 256q-82 0 -144.5 -146.5t-62.5 -339.5z" />
<glyph unicode="r" horiz-adv-x="731" d="M-23 1051q4 14 13 16q38 -4 86.5 -4t107.5 4q123 7 123 8h-4q35 0 35 -37v4q-1 0 -6 -131q80 115 209 115q70 0 118 -45t48 -117q0 -66 -41 -111.5t-97 -45.5q-53 0 -89 33.5t-36 82.5q0 45 32 75t69 30q20 0 20 12q0 16 -49 16q-63 0 -116.5 -65.5t-71.5 -179.5v-209 q0 -256 34 -346q27 -72 125 -131q4 -6 -2 -22.5t-18 -18.5q-55 8 -134 8q-40 0 -85 -2q-70 -4 -209 -37q-12 0 -23.5 15.5t-9.5 27.5q98 70 135 149q53 115 54 347q0 303 -54 413q-41 84 -161 121q-5 5 -5 13q0 5 2 12z" />
<glyph unicode="s" horiz-adv-x="772" d="M47 686q0 168 100.5 274.5t237.5 106.5q55 0 106.5 -23.5t71.5 -23.5q53 0 86 88q6 3 12.5 3t14.5 -3q14 -8 18 -21q-20 -127 -20 -391q0 -74 4 -110q-2 -12 -21 -17q-18 -4 -24 6q-12 152 -72 271q-72 145 -172 145q-78 0 -131 -66.5t-53 -156.5q0 -174 135 -248 q123 -47 248 -94q133 -60 133 -197q0 -129 -109 -206q-88 -63 -192 -64q-66 0 -118 16.5t-73 16.5q-59 0 -86 -119q-4 -7 -12 -7q-3 0 -6 1q-14 2 -19 14q0 119 -10 221q-14 115 -35 271q16 29 35 8q39 -131 117 -229q96 -121 207 -121q143 0 143 155q0 94 -133 148 l-250 100q-133 84 -133 252z" />
<glyph unicode="t" horiz-adv-x="614" d="M18 973q0 14 17.5 22.5t36.5 18.5q152 80 200 248q12 45 31 45q20 0 21 -33v3q-2 0 -17 -245q61 2 158 12q86 8 92 9q25 0 25 -27q0 -18 -17.5 -49t-44.5 -31q-6 0 -84 -2q-90 -2 -133 -2q-8 -178 -8 -317q0 -295 10 -377q20 -176 103 -176q76 0 104 88q8 6 23 4 q14 -2 18 -14q-6 -59 -47 -111q-57 -72 -150 -72q-104 0 -158.5 67.5t-54.5 178.5q0 160 6.5 375t6.5 225q0 90 -93 123q-45 14 -45 37z" />
<glyph unicode="u" horiz-adv-x="944" d="M-29 1069q2 14 9 21q20 -3 52.5 -3t78.5 3q100 6 149 20q4 1 8 1q14 -1 24 -11q14 -14 13 -35l-10 -117q-10 -135 -16 -272q-8 -201 -9 -404q0 -213 152 -213q182 0 235 236q2 102 2 223q0 201 -13 286t-50 122q-14 18 -92 65q-6 8 1 26.5t17 24.5q18 -6 74 -6 q47 0 123 9.5t80 9.5q33 0 32 -43q0 4 -12 -49q-14 -59 -22 -146q-12 -121 -13 -289q0 -297 62 -411q45 -82 168 -119q7 -6 7 -17q0 -5 -1 -10q-4 -16 -10 -20q-41 5 -95 5q-18 0 -38 -1q-55 0 -123 -5t-70 -5q-35 0 -35 39v41l4 94q-98 -162 -266 -162q-119 0 -188 63 q-80 72 -80 209q0 188 8 395t8 240q0 147 -160 185q-4 4 -4 20z" />
<glyph unicode="v" horiz-adv-x="890" d="M-63 1083q-1 5 -1 10q0 22 21 35q29 -10 207 -10q188 0 254 8q18 -8 8 -41q-39 -14 -70 -53q-39 -47 -39 -110q0 -100 80 -334t107 -234q18 0 92 267.5t74 336.5q0 139 -109 177q-14 25 10 39q31 -4 103 -5q231 0 305 21q12 -12 12 -26q0 -8 -4 -17q-129 -47 -233 -279 q-47 -102 -140 -422q-84 -293 -106 -407q-10 -55 -31 -55q-20 0 -28 14q-4 4 -17 47q-168 567 -260 768q-102 225 -235 270z" />
<glyph unicode="w" horiz-adv-x="1280" d="M-68 1116q4 14 13 17q49 -12 200 -13q172 0 279 19q27 -23 8 -49q-47 -12 -77.5 -59.5t-30.5 -100.5q0 -119 65 -342q59 -209 76 -209q8 0 149 612q23 94 45 94q23 0 31 -20q10 -33 21 -66q182 -641 198 -641q18 0 73.5 240t55.5 338q0 160 -131 205q-14 27 8 39 q37 -8 156 -9q217 0 275 23q24 -11 24 -30q0 -8 -4 -17q-61 -10 -123 -70q-74 -70 -106 -176q-106 -401 -224 -829q-16 -55 -36 -56q-25 0 -46 62q-47 164 -96 328q-90 301 -106 301q-12 0 -88 -301q-41 -174 -84 -351q-16 -57 -35 -57q-20 0 -41 57q-86 332 -215 781 q-70 184 -227 249q-8 8 -8 20q0 5 1 11z" />
<glyph unicode="x" horiz-adv-x="935" d="M-33 29q129 43 275 295q70 121 149 284q-133 227 -188 301q-119 156 -236 174q-6 7 -6 14q0 9 10 17q33 0 222 10q207 12 217 13q25 -8 10 -27q-74 -18 -74 -102t135 -322q145 215 146 365q0 80 -97 100q-6 25 5 31q12 -1 33 -1q58 0 184 8q172 11 213 21q6 -4 6 -18 t-4 -21q-109 -23 -232 -194q-61 -84 -215 -356q14 -23 29 -48q147 -240 225 -331q112 -137 225 -174q8 -8 7 -25q-2 -16 -11 -25q-33 6 -108 7q-260 0 -348 -33q-20 16 -13 37q80 35 80 131q0 59 -47 155q-27 53 -127 224q-14 -25 -26 -47q-113 -195 -113 -291 q0 -98 127 -142q10 -25 -14 -30q-12 1 -30 1q-60 0 -186 -10q-163 -14 -208 -28q-8 2 -14 15q-3 8 -3 14q0 4 2 8z" />
<glyph unicode="y" horiz-adv-x="882" d="M-80 1108q-1 5 -1 9q0 16 18 22q66 -8 155 -9q238 0 305 11q23 -6 6 -27q-90 -35 -90 -158q0 -117 86 -389q80 -256 99 -256q23 0 100 264q82 276 82 408q0 143 -125 195q-14 23 10 30q41 -6 125 -6q250 0 309 17q8 -2 13 -13q4 -6 4 -10q0 -3 -2 -6q-88 -20 -160 -119 q-47 -66 -137 -332q-72 -225 -144 -448q-109 -326 -145 -400q-102 -202 -247 -202h-1q-90 0 -155.5 58t-65.5 142q0 55 41 96.5t94 41.5q51 0 84 -35t33 -84t-25 -78q-16 -18 -45.5 -29.5t-29.5 -17.5q0 -27 59 -27q88 0 158.5 94.5t70.5 227.5q0 109 -139 514 q-113 330 -172 404.5t-168 111.5z" />
<glyph unicode="z" horiz-adv-x="841" d="M137 242q137 227 205 354q229 430 229 481q0 25 -43 25q-170 0 -266 -123q-98 -129 -127 -311q-6 -8 -18 -6q-14 2 -17 10q16 125 17 432q0 51 53 51q184 -1 414 11q207 10 206 12h-2q35 0 35 -25q0 -16 -106 -190q-141 -233 -180 -301q-268 -483 -269 -547q0 -20 31 -21 q172 0 274 146q86 121 148 313q8 4 18 2q12 -4 15 -12q-35 -174 -35 -455q0 -43 -39 -43q-215 1 -431 -13q-191 -12 -191 -14h3q-34 0 -34 29q0 12 110 195z" />
<glyph unicode="{" horiz-adv-x="1024" d="M74 608v56q174 27 219 63q66 53 65 225v215q0 236 115 299q74 41 371 50v-48q-168 -10 -215 -77q-37 -53 -37 -238v-96q0 -217 -47 -291q-53 -84 -248 -129q117 -27 172 -59q68 -43 95.5 -127t27.5 -252v-99q0 -178 39 -229q47 -57 213 -64v-47q-295 0 -371 45 q-115 68 -115 299v215q0 174 -75 228q-63 43 -209 61z" />
<glyph unicode="|" horiz-adv-x="815" d="M334 -184v1749h147v-1749h-147z" />
<glyph unicode="}" horiz-adv-x="1024" d="M217 -193q166 6 213 64q39 51 39 229v99q0 170 25 243q37 119 159 164q43 14 111 31q-195 45 -248 129q-47 74 -47 291v96q0 184 -37 238q-47 68 -215 77v48q297 -8 371 -50q115 -63 114 -299v-215q0 -172 66 -225q45 -37 219 -63v-56q-125 -16 -182 -45 q-84 -45 -98 -147q-4 -35 -5 -97v-215q0 -231 -114 -299q-76 -45 -371 -45v47z" />
<glyph unicode="~" horiz-adv-x="1325" d="M72 1319q76 127 152.5 181t185.5 54q98 0 284.5 -61t284.5 -61q152 0 250 141l51 -33q-35 -88 -106 -145q-90 -74 -213 -74q-96 0 -291 62.5t-287 62.5q-152 0 -256 -158z" />
<glyph unicode="&#xa1;" horiz-adv-x="598" d="M141 1440q0 57 40 98t98 41q57 0 98 -40t41 -97q0 -59 -41 -99t-101 -40q-55 0 -95 40.5t-40 96.5zM176 147l70 1080h57l68 -1086q4 -76 -26 -120t-71 -44q-45 0 -71 41q-33 49 -27 129z" />
<glyph unicode="&#xa2;" horiz-adv-x="825" d="M74 752q0 260 99 429t247 179v196q0 31 31 31h10q31 0 31 -31v-202q33 -8 77 -37q39 -25 66 -25q66 0 100 105q23 20 33 -11q-10 -53 -35 -278q-16 -170 -22 -289q-4 -10 -15 -12q-12 0 -20 12q-14 137 -62 264q-53 154 -122 197v-1028q82 14 138 102t56 224q0 33 33 32 q35 0 35 -39q0 -143 -58 -245q-70 -123 -204 -136v-159q0 -31 -31 -31h-10q-31 0 -31 31v162q-154 18 -246 161q-100 152 -100 398zM248 743q0 -430 172 -485v1036q-172 -29 -172 -551z" />
<glyph unicode="&#xa3;" horiz-adv-x="1064" d="M82 303q0 125 141 125q49 0 129 -35q12 63 13 111q0 84 -46 217h-116q-31 0 -31 41q0 31 51 33q-39 -2 74 -2q-47 137 -47 221q0 152 99.5 255t250.5 103q66 0 150 -39q100 -43 100 -100q0 -31 -29.5 -55.5t-62.5 -24.5q-27 0 -43 41q-25 59 -35 74q-35 41 -105 41 q-80 0 -132 -56.5t-52 -136.5q0 -72 27 -164q25 -80 51 -159h219q31 0 31 -41q0 -31 -31 -31h-201q14 -59 15 -115q0 -111 -66 -244q111 -45 213 -45q213 0 228 220q12 6 24 6q31 0 43 -47q-16 -137 -94 -224q-86 -94 -221 -94q-125 0 -244 92q-82 -90 -168 -90 q-53 0 -94 36t-41 87zM160 313q0 -63 55 -63q59 0 102 63q-59 45 -106 45q-51 0 -51 -45z" />
<glyph unicode="&#xa4;" d="M61 604v39q0 31 31 31h174q-2 39 -2 82q0 41 2 80h-174q-31 0 -31 30v39q0 31 31 31h187q33 195 129 311.5t221 116.5q63 0 117.5 -34t78.5 -34q66 0 101 105q22 21 32 -10q-10 -53 -34 -279q-16 -170 -23 -289q-4 -10 -14 -12q-12 0 -21 12q-18 166 -75 305 q-72 172 -160 172q-156 0 -185 -364h261q31 0 30 -31v-39q0 -31 -30 -30h-267q-2 -41 -2 -88q0 -39 2 -74h267q31 0 30 -31v-39q0 -31 -30 -31h-258q37 -319 206 -319q90 0 156 90t66 238q0 33 32 32q35 0 35 -39q0 -152 -63 -256q-78 -127 -228 -126q-135 0 -236.5 99 t-135.5 281h-189q-31 0 -31 31z" />
<glyph unicode="&#xa7;" horiz-adv-x="876" d="M70 821q0 94 67 164q80 84 225 84q-104 90 -143 143q-53 74 -53 154q0 119 90 190q84 68 209 68q100 0 182 -59.5t82 -145.5q0 -49 -29.5 -80.5t-78.5 -31.5q-35 0 -62 22.5t-27 50.5q0 31 34 64t34 74q0 25 -45 43t-96 18q-168 0 -168 -141q0 -66 24 -109 q37 -68 156 -164l180 -147q172 -141 172 -295q0 -96 -65 -164q-80 -82 -232 -82q199 -154 199 -295q0 -100 -74 -168q-88 -84 -252 -84q-133 0 -206 66q-61 55 -62 139q0 39 21 72q25 41 71 41q96 0 96 -90q0 -33 -29.5 -73t-29.5 -48q0 -20 43 -43t107 -23q78 0 129 31 q63 39 63 113q0 61 -33.5 114.5t-142.5 147.5l-180 158q-176 154 -176 286zM188 889q0 -61 123 -203q113 -127 172 -162q80 0 140 31q84 43 84 131q-8 86 -129 205q-78 78 -162 135q-104 0 -166 -37t-62 -100z" />
<glyph unicode="&#xa8;" horiz-adv-x="722" d="M68 1419q0 43 32.5 76t77.5 33t78 -32t33 -77t-33 -77.5t-78 -32.5t-77.5 32.5t-32.5 77.5zM420 1419q0 43 32.5 76t77.5 33t78 -32t33 -77t-33 -77.5t-78 -32.5t-77.5 32.5t-32.5 77.5z" />
<glyph unicode="&#xa9;" horiz-adv-x="1683" d="M98 838q0 307 218.5 525t527.5 218q305 0 523 -218t218 -525q0 -309 -217 -527.5t-524 -218.5q-309 0 -527.5 218t-218.5 528zM197 838q0 -268 189 -458t458 -190q266 0 455.5 190t189.5 458q0 266 -188.5 455.5t-456.5 189.5t-457.5 -189.5t-189.5 -455.5zM492 788 q0 262 108 433q98 158 225 157q66 0 109 -33.5t63 -33.5q39 0 68 73q10 2 20 -12q-14 -100 -22 -237q-10 -186 -6 -220q-8 -23 -29 -8q-51 428 -190 428q-182 0 -183 -565q0 -209 56 -336q53 -119 133 -119q100 0 153 129q41 100 41 238q0 35 21 35q33 0 33 -37 q0 -166 -60 -279q-70 -133 -198 -133q-135 0 -230 115q-113 141 -112 405z" />
<glyph unicode="&#xaa;" horiz-adv-x="706" d="M80 926q0 94 76.5 161.5t193.5 67.5q61 0 109 -31q-6 145 -6 195q0 127 -25 176q-20 41 -68 41q-143 0 -245 -340q-14 -14 -23 2q0 14 7 108.5t7 125.5v94q2 63 3 71q12 20 30 2q10 -61 49 -61q14 0 88 30.5t138 30.5q84 0 118 -43q45 -53 46 -198q0 -49 -5.5 -211 t-5.5 -195q0 -102 29 -146t106 -52q4 -4 5 -17q-1 -14 -5 -18q-133 -23 -210 -23q-31 0 -31 49v60q-63 -61 -174 -62q-84 0 -145.5 52.5t-61.5 130.5zM215 944q0 -137 117 -137q88 0 131 72q0 66 -2 145q-29 82 -107 82q-63 0 -101 -50t-38 -112z" />
<glyph unicode="&#xab;" horiz-adv-x="1167" d="M135 684l428 291q-14 -55 -14 -101q0 -41 14 -90l-323 -100l323 -123q-14 -61 -14 -92q0 -35 14 -104zM532 684l429 291q-14 -55 -15 -101q0 -41 17 -90l-326 -100l326 -123q-16 -61 -17 -92q0 -35 15 -104z" />
<glyph unicode="&#xad;" horiz-adv-x="677" d="M72 539v88q0 31 30 30h467q31 0 31 -30v-88q0 -31 -31 -31h-467q-31 0 -30 31z" />
<glyph unicode="&#xae;" horiz-adv-x="1230" d="M72 1032q0 225 159.5 384t382.5 159t382 -160t159 -383t-158.5 -383t-382.5 -160q-225 0 -383.5 160t-158.5 383zM141 1032q0 -195 138.5 -334t334.5 -139q195 0 334 139t139 334q0 197 -138 335t-335 138t-335 -138t-138 -335zM356 1362q-10 8 2 20q72 16 203 17 q266 0 266 -193q0 -88 -49 -143q-35 -39 -78 -49v-4q31 -4 58 -27q35 -29 35 -72q0 -35 -15.5 -109.5t-15.5 -84.5q0 -43 37 -43q49 0 49 112q0 53 10 54q19 0 19 -47q0 -150 -78 -150q-100 0 -101 150v63.5v46.5q0 94 -112 94q-33 0 -33 -28q0 -119 6 -154q16 -92 84 -113 q2 -2 0 -10t-6 -8q-14 2 -90 2q-109 0 -150 -14q-12 6 -12 16q53 33 74 86q31 78 30 256q0 324 -133 332zM553 1079q0 -29 9 -38t44 -9q131 0 131 168q0 160 -94 160q-90 0 -90 -281z" />
<glyph unicode="&#xaf;" horiz-adv-x="591" d="M66 1384v48q0 31 30 30h406q31 0 30 -30v-48q0 -31 -30 -30h-406q-31 0 -30 30z" />
<glyph unicode="&#xb4;" horiz-adv-x="452" d="M47 1184q18 27 49 78q37 80 76 159q59 102 125 103q41 0 70.5 -31t29.5 -70q0 -61 -96 -118q-10 -6 -149 -72q-39 -18 -91 -64z" />
<glyph unicode="&#xb6;" horiz-adv-x="1024" d="M80 1133q0 139 88 233q104 115 303 115h465v-72h-129v-1409h-80v1409h-186v-1409h-84v784q-178 2 -277.5 93.5t-99.5 255.5z" />
<glyph unicode="&#xb7;" horiz-adv-x="552" d="M143 530q0 59 41 99.5t101 40.5q55 0 95 -41.5t40 -96.5q0 -57 -40 -98t-97 -41t-98.5 40t-41.5 97z" />
<glyph unicode="&#xb8;" horiz-adv-x="417" d="M53 -297q0 37 37 37q25 0 40 -51t73 -51q35 0 60.5 30.5t25.5 73.5q0 55 -58 88q-47 29 -118 33q33 31 98 137h37q-8 -20 -25 -57q146 -41 146 -162q0 -72 -53.5 -128t-129.5 -56q-51 0 -92 34.5t-41 71.5z" />
<glyph unicode="&#xba;" horiz-adv-x="694" d="M59 1155q0 201 97 332q88 117 200 117q119 0 197 -117q82 -123 82 -328q0 -190 -88 -315q-82 -117 -195 -117q-119 0 -200 107q-92 119 -93 321zM193 1159q0 -197 34 -285q35 -94 123 -94q150 0 150 387t-146 387q-162 0 -161 -395z" />
<glyph unicode="&#xbb;" horiz-adv-x="1167" d="M223 557l326 100l-326 123q16 61 17 92q0 35 -15 105l426 -320l-426 -290q14 55 15 100q0 41 -17 90zM627 557l325 100l-325 123q16 61 16 92q0 35 -14 105l428 -320l-428 -290q14 55 14 100q0 41 -16 90z" />
<glyph unicode="&#xbf;" horiz-adv-x="927" d="M80 373q0 131 76 243q39 57 141 154q72 68 94 96q41 57 41 123q0 16 -4 52t-4 53q0 27 14 26q33 0 56 -78q16 -61 16 -108q0 -141 -112.5 -290.5t-112.5 -278.5t61 -197q53 -55 135 -55q84 0 142 71q53 66 53 146q0 78 -27 123q-23 37 -47 36q-14 0 -14 37q0 70 80 70 q37 0 69 -61q39 -68 39 -158q0 -147 -90 -262q-102 -133 -272 -133q-150 0 -246 124q-88 113 -88 267zM322 1368q0 59 39.5 99t97.5 40q57 0 98 -40t41 -97t-41 -98t-100 -41q-55 0 -95 41t-40 96z" />
<glyph unicode="&#xc0;" horiz-adv-x="1091" d="M-47 49q137 61 205 189q76 145 196.5 600.5t120.5 554.5q0 51 -72 94q-55 33 -122 47q-23 16 0 41q51 -8 133 -8q43 0 156.5 6t115.5 6q43 0 43 -35v-174q14 -207 76 -485q153 -707 346 -785q8 -4 4 -18q-2 -16 -14 -16q-57 10 -254 10q-170 0 -275 -31q-23 12 -12 33 q84 41 119 98q49 80 49 234q0 45 -14 127q-47 20 -205 12q-156 -8 -211 -39q-43 -197 -43 -256q0 -141 139 -191q6 -6 2 -20q-6 -12 -14 -14q-14 2 -92 2q-250 0 -373 -27q-20 20 -4 45zM317 1915q0 39 30 69.5t71 30.5q66 0 125 -102q37 -80 75 -160q11 -21 50 -78l-15 -14 q-51 45 -90 63q-139 63 -151 72q-94 55 -95 119zM367 627q20 -20 165 -15q133 7 201 25q-49 213 -190 657q-68 -233 -97 -348q-25 -98 -79 -319z" />
<glyph unicode="&#xc1;" horiz-adv-x="1091" d="M-47 49q137 61 205 189q76 145 196.5 600.5t120.5 554.5q0 51 -72 94q-55 33 -122 47q-23 16 0 41q51 -8 133 -8q43 0 156.5 6t115.5 6q43 0 43 -35v-174q14 -207 76 -485q153 -707 346 -785q8 -4 4 -18q-2 -16 -14 -16q-57 10 -254 10q-170 0 -275 -31q-23 12 -12 33 q84 41 119 98q49 80 49 234q0 45 -14 127q-47 20 -205 12q-156 -8 -211 -39q-43 -197 -43 -256q0 -141 139 -191q6 -6 2 -20q-6 -12 -14 -14q-14 2 -92 2q-250 0 -373 -27q-20 20 -4 45zM367 627q20 -20 165 -15q133 7 201 25q-49 213 -190 657q-68 -233 -97 -348 q-25 -98 -79 -319zM475 1671q18 25 49 76q39 80 76 160q59 102 125 102q41 0 70.5 -29.5t29.5 -70.5q0 -61 -94 -119q-12 -6 -151 -72q-39 -16 -91 -61z" />
<glyph unicode="&#xc2;" horiz-adv-x="1091" d="M-47 49q137 61 205 189q76 145 196.5 600.5t120.5 554.5q0 51 -72 94q-55 33 -122 47q-23 16 0 41q51 -8 133 -8q43 0 156.5 6t115.5 6q43 0 43 -35v-174q14 -207 76 -485q153 -707 346 -785q8 -4 4 -18q-2 -16 -14 -16q-57 10 -254 10q-170 0 -275 -31q-23 12 -12 33 q84 41 119 98q49 80 49 234q0 45 -14 127q-47 20 -205 12q-156 -8 -211 -39q-43 -197 -43 -256q0 -141 139 -191q6 -6 2 -20q-6 -12 -14 -14q-14 2 -92 2q-250 0 -373 -27q-20 20 -4 45zM256 1636l289 308l289 -308h-25l-264 158l-264 -158h-25zM367 627q20 -20 165 -15 q133 7 201 25q-49 213 -190 657q-68 -233 -97 -348q-25 -98 -79 -319z" />
<glyph unicode="&#xc3;" horiz-adv-x="1091" d="M-47 49q137 61 205 189q76 145 196.5 600.5t120.5 554.5q0 51 -72 94q-55 33 -122 47q-23 16 0 41q51 -8 133 -8q43 0 156.5 6t115.5 6q43 0 43 -35v-174q14 -207 76 -485q153 -707 346 -785q8 -4 4 -18q-2 -16 -14 -16q-57 10 -254 10q-170 0 -275 -31q-23 12 -12 33 q84 41 119 98q49 80 49 234q0 45 -14 127q-47 20 -205 12q-156 -8 -211 -39q-43 -197 -43 -256q0 -141 139 -191q6 -6 2 -20q-6 -12 -14 -14q-14 2 -92 2q-250 0 -373 -27q-20 20 -4 45zM225 1698q76 217 203 217q57 0 141 -61.5t140 -61.5q68 0 127 98l24 -4 q-82 -217 -203 -217q-51 0 -143 62.5t-139 62.5q-61 0 -125 -98zM367 627q20 -20 165 -15q133 7 201 25q-49 213 -190 657q-68 -233 -97 -348q-25 -98 -79 -319z" />
<glyph unicode="&#xc4;" horiz-adv-x="1091" d="M-47 49q137 61 205 189q76 145 196.5 600.5t120.5 554.5q0 51 -72 94q-55 33 -122 47q-23 16 0 41q51 -8 133 -8q43 0 156.5 6t115.5 6q43 0 43 -35v-174q14 -207 76 -485q153 -707 346 -785q8 -4 4 -18q-2 -16 -14 -16q-57 10 -254 10q-170 0 -275 -31q-23 12 -12 33 q84 41 119 98q49 80 49 234q0 45 -14 127q-47 20 -205 12q-156 -8 -211 -39q-43 -197 -43 -256q0 -141 139 -191q6 -6 2 -20q-6 -12 -14 -14q-14 2 -92 2q-250 0 -373 -27q-20 20 -4 45zM281 1798q0 43 32.5 76t77.5 33t78 -32t33 -77t-33 -77.5t-78 -32.5t-77.5 32.5 t-32.5 77.5zM367 627q20 -20 165 -15q133 7 201 25q-49 213 -190 657q-68 -233 -97 -348q-25 -98 -79 -319zM633 1798q0 43 32.5 76t77.5 33t78 -32t33 -77t-33 -77.5t-78 -32.5t-77.5 32.5t-32.5 77.5z" />
<glyph unicode="&#xc5;" horiz-adv-x="1091" d="M-47 49q137 61 205 189q76 145 196.5 600.5t120.5 554.5q0 51 -72 94q-55 33 -122 47q-23 16 0 41q51 -8 133 -8q43 0 156.5 6t115.5 6q43 0 43 -35v-174q14 -207 76 -485q153 -707 346 -785q8 -4 4 -18q-2 -16 -14 -16q-57 10 -254 10q-170 0 -275 -31q-23 12 -12 33 q84 41 119 98q49 80 49 234q0 45 -14 127q-47 20 -205 12q-156 -8 -211 -39q-43 -197 -43 -256q0 -141 139 -191q6 -6 2 -20q-6 -12 -14 -14q-14 2 -92 2q-250 0 -373 -27q-20 20 -4 45zM348 1835q0 82 59.5 140.5t143.5 58.5t143.5 -58.5t59.5 -140.5q0 -84 -59.5 -143.5 t-143.5 -59.5t-143.5 59.5t-59.5 143.5zM367 627q20 -20 165 -15q133 7 201 25q-49 213 -190 657q-68 -233 -97 -348q-25 -98 -79 -319zM440 1835q0 -47 32 -80t79 -33t79 33t32 80q0 45 -32 78t-79 33t-79 -33t-32 -78z" />
<glyph unicode="&#xc6;" horiz-adv-x="1515" d="M-186 -49q-14 20 8 45q156 59 262 188q119 145 377 602q291 512 291 574q0 86 -156 121q-16 14 12 41q86 -14 199 -15q94 0 342 17.5t266 17.5q33 0 33 -31q0 -2 -16.5 -157.5t-16.5 -208.5q0 -51 2 -121t2 -82q-6 -8 -18 -8t-19 10q-10 158 -73 318q-76 197 -176 196 q-182 0 -203 -706q20 -27 53 -27q162 0 219 295q6 8 21 6q12 0 16 -8q-27 -170 -27 -422q0 -154 7 -193q-2 -10 -17 -12q-14 -2 -18 8q-14 111 -58 183q-53 86 -137 86q-41 0 -61 -41v-49q-2 -41 -2 -72q0 -438 174 -438q121 0 223 170q94 156 125 370q15 25 31 2 q-18 -238 -19 -372q0 -49 2 -117l2 -68q0 -41 -51 -41l-375 2q-299 0 -432 -34q-33 14 -16 38q166 59 213 478q-57 8 -236 0q-158 -10 -221 -39q-102 -197 -121 -258q-8 -31 -8 -58q0 -96 92 -131q4 -8 -6 -21.5t-16 -15.5q-14 4 -92 4q-252 0 -381 -26zM410 573 q14 -20 161 -14q160 8 240 19q6 88 6 186q0 188 -10 323q-20 115 -21 154q-137 -233 -200 -348z" />
<glyph unicode="&#xc7;" horiz-adv-x="972" d="M61 743q0 375 154 621q141 225 324 225q96 0 157.5 -48t89.5 -48q57 0 99 106q4 4 16 0t12 -18q-18 -143 -30 -340q-16 -268 -11 -317q-12 -31 -41 -13q-72 616 -274 617q-139 0 -205 -250q-57 -211 -57 -561q0 -301 80 -481q76 -172 192 -173q143 0 219 183 q61 147 62 342q0 53 29 53q47 0 47 -55q0 -231 -82 -391q-94 -186 -269 -199q-18 -39 -24 -53q145 -41 145 -162q0 -72 -53 -128t-129 -56q-53 0 -93 34.5t-40 71.5t37 37q25 0 40 -51t72 -51q35 0 60.5 30.5t25.5 73.5q0 55 -57 88q-47 29 -119 33q33 31 97 133 q-190 8 -318 174q-156 201 -156 573z" />
<glyph unicode="&#xc8;" horiz-adv-x="929" d="M-10 1499q-14 14 6 33q72 -12 221 -12q45 0 324.5 11t287.5 11q31 0 31 -31q0 -2 -15.5 -157.5t-15.5 -208.5q0 -51 2.5 -121t2.5 -82q-6 -8 -19 -8q-14 0 -18 10q-10 158 -74 318q-78 197 -176 196q-184 0 -203 -706q20 -27 53 -27q162 0 217 295q8 8 23 6q12 0 16 -8 q-27 -170 -26 -422q0 -154 6 -193q-2 -10 -17 -12q-14 -2 -18 8q-14 111 -59 183q-51 86 -136 86q-41 0 -61 -41v-49q-2 -41 -2 -72q0 -438 172 -438q123 0 225 170q94 156 123 370q15 25 33 2q-18 -238 -19 -372q0 -49 2 -114l3 -65q0 -41 -52 -41q-266 0 -512 -8 q-209 -8 -297 -30q-33 14 -14 38q94 35 156 211q72 205 71 535q0 373 -75 551q-53 127 -166 184zM258 1872q0 41 30.5 70.5t69.5 29.5q66 0 125 -100q39 -80 76 -162q10 -21 49 -76l-14 -14q-51 45 -90 61q-139 66 -150 72q-96 57 -96 119z" />
<glyph unicode="&#xc9;" horiz-adv-x="929" d="M-10 1499q-14 14 6 33q72 -12 221 -12q45 0 324.5 11t287.5 11q31 0 31 -31q0 -2 -15.5 -157.5t-15.5 -208.5q0 -51 2.5 -121t2.5 -82q-6 -8 -19 -8q-14 0 -18 10q-10 158 -74 318q-78 197 -176 196q-184 0 -203 -706q20 -27 53 -27q162 0 217 295q8 8 23 6q12 0 16 -8 q-27 -170 -26 -422q0 -154 6 -193q-2 -10 -17 -12q-14 -2 -18 8q-14 111 -59 183q-51 86 -136 86q-41 0 -61 -41v-49q-2 -41 -2 -72q0 -438 172 -438q123 0 225 170q94 156 123 370q15 25 33 2q-18 -238 -19 -372q0 -49 2 -114l3 -65q0 -41 -52 -41q-266 0 -512 -8 q-209 -8 -297 -30q-33 14 -14 38q94 35 156 211q72 205 71 535q0 373 -75 551q-53 127 -166 184zM365 1622q16 25 49 76q37 82 75 162q59 100 125 100q39 0 70 -29.5t31 -70.5q0 -61 -97 -119q-10 -6 -149 -72q-39 -16 -90 -61z" />
<glyph unicode="&#xca;" horiz-adv-x="929" d="M-10 1499q-14 14 6 33q72 -12 221 -12q45 0 324.5 11t287.5 11q31 0 31 -31q0 -2 -15.5 -157.5t-15.5 -208.5q0 -51 2.5 -121t2.5 -82q-6 -8 -19 -8q-14 0 -18 10q-10 158 -74 318q-78 197 -176 196q-184 0 -203 -706q20 -27 53 -27q162 0 217 295q8 8 23 6q12 0 16 -8 q-27 -170 -26 -422q0 -154 6 -193q-2 -10 -17 -12q-14 -2 -18 8q-14 111 -59 183q-51 86 -136 86q-41 0 -61 -41v-49q-2 -41 -2 -72q0 -438 172 -438q123 0 225 170q94 156 123 370q15 25 33 2q-18 -238 -19 -372q0 -49 2 -114l3 -65q0 -41 -52 -41q-266 0 -512 -8 q-209 -8 -297 -30q-33 14 -14 38q94 35 156 211q72 205 71 535q0 373 -75 551q-53 127 -166 184zM205 1612l289 307l288 -307h-24l-264 157l-265 -157h-24z" />
<glyph unicode="&#xcb;" horiz-adv-x="929" d="M-10 1499q-14 14 6 33q72 -12 221 -12q45 0 324.5 11t287.5 11q31 0 31 -31q0 -2 -15.5 -157.5t-15.5 -208.5q0 -51 2.5 -121t2.5 -82q-6 -8 -19 -8q-14 0 -18 10q-10 158 -74 318q-78 197 -176 196q-184 0 -203 -706q20 -27 53 -27q162 0 217 295q8 8 23 6q12 0 16 -8 q-27 -170 -26 -422q0 -154 6 -193q-2 -10 -17 -12q-14 -2 -18 8q-14 111 -59 183q-51 86 -136 86q-41 0 -61 -41v-49q-2 -41 -2 -72q0 -438 172 -438q123 0 225 170q94 156 123 370q15 25 33 2q-18 -238 -19 -372q0 -49 2 -114l3 -65q0 -41 -52 -41q-266 0 -512 -8 q-209 -8 -297 -30q-33 14 -14 38q94 35 156 211q72 205 71 535q0 373 -75 551q-53 127 -166 184zM178 1763q0 43 33 76t78 33t77.5 -32t32.5 -77t-32.5 -77.5t-77.5 -32.5t-78 32.5t-33 77.5zM530 1763q0 43 33 76t78 33t78 -32t33 -77t-33 -77.5t-78 -32.5t-78 32.5 t-33 77.5z" />
<glyph unicode="&#xcc;" horiz-adv-x="583" d="M35 -23q86 53 139 222q57 184 57 471q0 393 -41 563q-35 147 -124 201q-12 33 10 41q53 -12 125 -13q270 0 346 29q22 -10 14 -39q-203 -154 -203 -786q0 -582 193 -660q6 -6 0 -22t-19 -19q-45 18 -241 2q-201 -16 -246 -35q-27 20 -10 45zM51 1841q0 39 30 70t71 31 q66 0 124 -103q37 -80 76 -160q10 -20 49 -77l-14 -15q-51 45 -90 64q-139 63 -152 71q-94 55 -94 119z" />
<glyph unicode="&#xcd;" horiz-adv-x="583" d="M35 -23q86 53 139 222q57 184 57 471q0 393 -41 563q-35 147 -124 201q-12 33 10 41q53 -12 125 -13q270 0 346 29q22 -10 14 -39q-203 -154 -203 -786q0 -582 193 -660q6 -6 0 -22t-19 -19q-45 18 -241 2q-201 -16 -246 -35q-27 20 -10 45zM201 1620q16 25 49 76 q37 82 76 162q59 100 125 100q39 0 69.5 -29.5t30.5 -70.5q0 -61 -96 -119q-10 -6 -150 -72q-39 -16 -90 -61z" />
<glyph unicode="&#xce;" horiz-adv-x="583" d="M18 1583l289 307l287 -307h-25l-262 158l-264 -158h-25zM35 -23q86 53 137 222q57 184 57 471q0 393 -41 563q-35 147 -122 201q-12 33 10 41q53 -12 123 -13q270 0 346 29q24 -10 14 -39q-201 -154 -201 -786q0 -582 191 -660q8 -6 2 -22t-19 -19q-45 18 -241 2 q-201 -16 -248 -35q-27 20 -8 45z" />
<glyph unicode="&#xcf;" horiz-adv-x="583" d="M18 1749q0 43 33 76t78 33t78 -32t33 -77t-33 -78t-78 -33t-78 33t-33 78zM35 -23q86 53 139 222q57 184 57 471q0 393 -41 563q-35 147 -124 201q-12 33 10 41q53 -12 125 -13q270 0 346 29q22 -10 14 -39q-203 -154 -203 -786q0 -582 193 -660q6 -6 0 -22t-19 -19 q-45 18 -241 2q-201 -16 -246 -35q-27 20 -10 45zM371 1749q0 43 32.5 76t77.5 33t78 -32t33 -77t-33 -78t-78 -33t-77.5 33t-32.5 78z" />
<glyph unicode="&#xd0;" horiz-adv-x="1122" d="M29 1524q-12 16 8 28q66 6 293 7q174 0 235 -9q131 -12 209 -63q301 -201 301 -670q0 -532 -252 -729q-78 -61 -223 -80q-74 -8 -260 -8q-238 0 -268 8q-14 16 -2 39q117 37 170 158q59 137 65 440q-209 -10 -239 -86q-2 -4 -11 0q-6 2 -8 8q8 20 2 111q-8 90 -16 110 q8 12 20 7q45 -76 252 -88q0 416 -74 608q-61 162 -202 209zM434 627q0 -238 12 -324q33 -225 146 -225q125 0 201 145q94 181 94 568q0 272 -64 464q-70 213 -186 213q-193 0 -201 -763q123 0 172 22q33 14 58 55q14 6 18 -4q-6 -25 -6 -57q0 -123 12 -158q-4 -10 -16 -6 q-31 41 -66 57q-57 27 -174 31v-18z" />
<glyph unicode="&#xd1;" horiz-adv-x="1021" d="M-72 1489q-16 14 0 37q59 -8 174 -8q125 0 265 10q27 2 32 -31q6 -39 66 -246q70 -244 110 -344q190 -471 203 -471q16 0 17 436q0 281 -31 408q-47 199 -193 254q-14 20 9 35q25 -2 96 -2q299 0 414 18q8 -2 15 -12.5t1 -18.5q-240 -82 -240 -542v-973q0 -72 -35 -72 q-31 0 -67 90q-451 1092 -485 1092q-14 0 -15 -379q0 -315 33 -457q49 -219 199 -266q14 -12 -2 -35q-14 2 -39 2q-129 0 -283 -15t-209 -32q-10 2 -17 15.5t-3 21.5q174 90 227 338q27 127 27 428q0 -2720 10 315q2 156 -49 240q-61 104 -230 164zM209 1700q76 217 203 217 q57 0 141 -61.5t139 -61.5q68 0 127 98l25 -4q-82 -217 -203 -217q-51 0 -143 62.5t-140 62.5q-61 0 -125 -98z" />
<glyph unicode="&#xd2;" d="M66 731q0 342 137 588q143 258 354 258q207 0 338 -240q123 -231 123 -573q0 -356 -137.5 -593t-339.5 -237q-201 0 -338 231.5t-137 565.5zM283 1921q0 41 29.5 70.5t70.5 29.5q66 0 125 -100q39 -80 76 -160q10 -21 49 -78l-15 -14q-51 45 -90 64q-139 63 -149 71 q-96 55 -96 117zM295 750q0 -750 246 -750q125 0 182 174t57 571q0 768 -223 768q-123 0 -190 -190q-72 -199 -72 -573z" />
<glyph unicode="&#xd3;" d="M66 731q0 342 137 588q143 258 354 258q207 0 338 -240q123 -231 123 -573q0 -356 -137.5 -593t-339.5 -237q-201 0 -338 231.5t-137 565.5zM295 750q0 -750 246 -750q125 0 182 174t57 571q0 768 -223 768q-123 0 -190 -190q-72 -199 -72 -573zM453 1665q16 25 49 76 q37 82 76 162q59 100 124 100q39 0 70 -29.5t31 -70.5q0 -61 -96 -119q-10 -6 -150 -72q-39 -16 -90 -61z" />
<glyph unicode="&#xd4;" d="M66 731q0 342 137 588q143 258 354 258q207 0 338 -240q123 -231 123 -573q0 -356 -137.5 -593t-339.5 -237q-201 0 -338 231.5t-137 565.5zM268 1632l289 307l289 -307h-25l-264 158l-264 -158h-25zM295 750q0 -750 246 -750q125 0 182 174t57 571q0 768 -223 768 q-123 0 -190 -190q-72 -199 -72 -573z" />
<glyph unicode="&#xd5;" d="M66 731q0 342 137 588q143 258 354 258q207 0 338 -240q123 -231 123 -573q0 -356 -137.5 -593t-339.5 -237q-201 0 -338 231.5t-137 565.5zM240 1690q76 217 202 217q57 0 141.5 -61.5t139.5 -61.5q68 0 127 98l24 -2q-82 -219 -202 -219q-51 0 -143.5 62.5t-139.5 62.5 q-61 0 -125 -98zM295 750q0 -750 246 -750q125 0 182 174t57 571q0 768 -223 768q-123 0 -190 -190q-72 -199 -72 -573z" />
<glyph unicode="&#xd6;" d="M66 731q0 342 137 588q143 258 354 258q207 0 338 -240q123 -231 123 -573q0 -356 -137.5 -593t-339.5 -237q-201 0 -338 231.5t-137 565.5zM262 1772q0 43 33 75.5t78 32.5t77.5 -31.5t32.5 -76.5t-32.5 -78t-77.5 -33t-78 32.5t-33 78.5zM295 750q0 -750 246 -750 q125 0 182 174t57 571q0 768 -223 768q-123 0 -190 -190q-72 -199 -72 -573zM614 1772q0 43 33 75.5t78 32.5t78 -31.5t33 -76.5t-33 -78t-78 -33t-78 32.5t-33 78.5z" />
<glyph unicode="&#xd8;" d="M55 -37q0 8 129 236q-119 225 -118 532q0 342 137 588q143 258 354 258q182 0 307 -191l109 191q8 14 24 14q35 1 35 -32q0 -6 -131 -238q117 -227 117 -557q0 -356 -137.5 -593t-339.5 -237q-184 0 -318 199l-108 -186q-8 -14 -25 -15q-35 0 -35 31zM295 750 q0 -188 14 -330l445 774q-51 319 -197 319q-123 0 -190 -190q-72 -199 -72 -573zM326 313q55 -313 215 -313q125 0 182 174t57 571q0 195 -14 338z" />
<glyph unicode="&#xd9;" horiz-adv-x="1062" d="M-25 1403q-4 16 19 33q72 -10 162 -11q233 0 329 25q20 -4 17 -31q-92 -49 -123 -159q-43 -152 -43 -566q0 -399 39 -538q45 -154 178 -154q154 0 207 131q61 150 61 594q0 432 -51 584q-43 127 -178 180q-10 10 8 29q37 -4 137 -4q193 0 338 34q8 -2 15.5 -12t3.5 -18 q-82 -41 -136 -148q-63 -125 -63 -293q0 -45 2 -369.5t2 -371.5q0 -203 -95 -317.5t-263 -114.5q-362 0 -363 448v684q0 125 -67 238q-63 106 -136 127zM287 1886q0 39 29.5 70t70.5 31q66 0 125 -103q37 -80 76 -160q10 -20 49 -77l-14 -15q-51 45 -91 64q-139 63 -151 71 q-94 55 -94 119z" />
<glyph unicode="&#xda;" horiz-adv-x="1062" d="M-25 1403q-4 16 19 33q72 -10 162 -11q233 0 329 25q20 -4 17 -31q-92 -49 -123 -159q-43 -152 -43 -566q0 -399 39 -538q45 -154 178 -154q154 0 207 131q61 150 61 594q0 432 -51 584q-43 127 -178 180q-10 10 8 29q37 -4 137 -4q193 0 338 34q8 -2 15.5 -12t3.5 -18 q-82 -41 -136 -148q-63 -125 -63 -293q0 -45 2 -369.5t2 -371.5q0 -203 -95 -317.5t-263 -114.5q-362 0 -363 448v684q0 125 -67 238q-63 106 -136 127zM455 1624q16 25 49 76q37 82 76 162q59 100 125 100q39 0 69.5 -29.5t30.5 -70.5q0 -61 -96 -119q-10 -6 -150 -72 q-39 -16 -90 -61z" />
<glyph unicode="&#xdb;" horiz-adv-x="1062" d="M-25 1403q-4 16 19 33q72 -10 162 -11q233 0 329 25q20 -4 17 -31q-92 -49 -123 -159q-43 -152 -43 -566q0 -399 39 -538q45 -154 178 -154q154 0 207 131q61 150 61 594q0 432 -51 584q-43 127 -178 180q-10 10 8 29q37 -4 137 -4q193 0 338 34q8 -2 15.5 -12t3.5 -18 q-82 -41 -136 -148q-63 -125 -63 -293q0 -45 2 -369.5t2 -371.5q0 -203 -95 -317.5t-263 -114.5q-362 0 -363 448v684q0 125 -67 238q-63 106 -136 127zM266 1618l289 307l289 -307h-25l-264 158l-264 -158h-25z" />
<glyph unicode="&#xdc;" horiz-adv-x="1062" d="M-25 1403q-4 16 19 33q72 -10 162 -11q233 0 329 25q20 -4 17 -31q-92 -49 -123 -159q-43 -152 -43 -566q0 -399 39 -538q45 -154 178 -154q154 0 207 131q61 150 61 594q0 432 -51 584q-43 127 -178 180q-10 10 8 29q37 -4 137 -4q193 0 338 34q8 -2 15.5 -12t3.5 -18 q-82 -41 -136 -148q-63 -125 -63 -293q0 -45 2 -369.5t2 -371.5q0 -203 -95 -317.5t-263 -114.5q-362 0 -363 448v684q0 125 -67 238q-63 106 -136 127zM256 1749q0 43 33 76t78 33t77.5 -32t32.5 -77t-32.5 -78t-77.5 -33t-78 33t-33 78zM608 1749q0 43 33 76t78 33 t77.5 -32t32.5 -77t-32.5 -78t-77.5 -33t-78 33t-33 78z" />
<glyph unicode="&#xdd;" horiz-adv-x="1052" d="M-43 1516q2 14 12 18q61 -14 285 -14q166 0 246 10q10 -4 12 -19q2 -16 -8 -18q-113 -45 -113 -129q0 -86 87 -349t112 -263q18 0 106 239q92 252 92 357q0 119 -118 178q-14 23 12 35q43 -12 192 -13q145 0 242 13q24 -15 14 -48q-178 -82 -278 -311 q-160 -365 -215 -559q-18 -70 -19 -283q0 -262 189 -309q10 -10 4 -28q-4 -16 -14 -23q-41 8 -154 8q-303 0 -403 -33q-25 2 -21 41q248 104 248 402q0 178 -45 336q-27 96 -103 272q-111 252 -178 340t-176 127q-10 8 -8 23zM518 1634q18 25 49 76q39 80 76 160 q59 102 125 102q41 0 70.5 -29.5t29.5 -70.5q0 -61 -94 -119q-12 -6 -151 -72q-39 -16 -91 -61z" />
<glyph unicode="&#xde;" horiz-adv-x="899" d="M35 18q86 53 139 222q57 184 57 471q0 393 -41 563q-35 147 -124 201q-12 33 10 41q53 -12 125 -13q270 0 346 29q23 -10 14 -39q-100 -76 -149 -264q39 12 90 12q143 0 243 -94q132 -121 132 -365q0 -252 -134 -385q-113 -113 -280 -112q-39 0 -68 8q49 -203 156 -246 q6 -6 0 -22t-19 -19q-45 18 -241 2q-201 -16 -246 -35q-27 20 -10 45zM358 707q0 -150 13 -267q29 -82 82 -82q117 0 178 134q53 116 53 296q0 381 -184 381q-61 0 -113 -49q-29 -172 -29 -413z" />
<glyph unicode="&#xdf;" horiz-adv-x="872" d="M-49 -61q106 35 137 145.5t31 464.5q0 61 -8.5 241.5t-8.5 278.5q0 168 88 297q104 156 283 156q127 0 202 -83t75 -222q0 -127 -78 -213q-82 -92 -226 -113q184 -31 287 -186q92 -138 92 -324t-77 -297q-70 -100 -173 -100q-92 0 -157.5 59t-65.5 143q0 55 42 96.5 t95 41.5q49 0 83 -36t34 -85t-26 -78q-16 -16 -50 -31q-25 -10 -24 -16q0 -27 59 -27q100 0 101 238q0 389 -222 545q-25 14 -49 30q-16 10 -16 27q0 27 51 49q195 88 195 307q0 213 -150 213q-209 0 -209 -663q0 -55 2 -125v-80q0 -395 21 -490q23 -117 123 -137 q16 -23 6 -49q-84 14 -189 14q-174 0 -258 -41q-23 14 -20 50z" />
<glyph unicode="&#xe0;" horiz-adv-x="837" d="M45 264q0 127 101.5 216t256.5 89q84 0 146 -39q-6 193 -6 261q0 168 -33 233q-29 53 -90 53q-190 0 -328 -452q-20 -18 -31 4q0 20 9.5 145t9.5 167t2 126v94q18 27 41 2q14 -82 65 -82q20 0 120 41t184 41q111 0 157 -57q59 -72 60 -264q0 -68 -7.5 -283t-7.5 -260 q0 -135 39 -193.5t141 -70.5q6 -4 7 -23q-1 -16 -7 -24q-176 -29 -280 -29q-43 0 -43 66q0 16 2 77q-86 -82 -231 -82q-113 0 -195 70t-82 174zM190 1501q0 39 30 70t71 31q66 0 125 -103q37 -80 76 -160q10 -20 49 -77l-15 -15q-51 45 -90 64q-139 63 -151 71 q-94 55 -95 119zM225 289q0 -180 156 -180q117 0 174 92q0 90 -2 194q-39 109 -141 109q-86 0 -140 -70q-47 -61 -47 -145z" />
<glyph unicode="&#xe1;" horiz-adv-x="837" d="M45 264q0 127 101.5 216t256.5 89q84 0 146 -39q-6 193 -6 261q0 168 -33 233q-29 53 -90 53q-190 0 -328 -452q-20 -18 -31 4q0 20 9.5 145t9.5 167t2 126v94q18 27 41 2q14 -82 65 -82q20 0 120 41t184 41q111 0 157 -57q59 -72 60 -264q0 -68 -7.5 -283t-7.5 -260 q0 -135 39 -193.5t141 -70.5q6 -4 7 -23q-1 -16 -7 -24q-176 -29 -280 -29q-43 0 -43 66q0 16 2 77q-86 -82 -231 -82q-113 0 -195 70t-82 174zM225 289q0 -180 156 -180q117 0 174 92q0 90 -2 194q-39 109 -141 109q-86 0 -140 -70q-47 -61 -47 -145zM299 1245q18 25 49 76 q39 80 76 160q59 102 125 102q41 0 70.5 -29.5t29.5 -70.5q0 -61 -94 -119q-12 -6 -152 -72q-39 -16 -90 -61z" />
<glyph unicode="&#xe2;" horiz-adv-x="837" d="M45 264q0 127 101.5 216t256.5 89q84 0 146 -39q-6 193 -6 261q0 168 -33 233q-29 53 -90 53q-190 0 -328 -452q-20 -18 -31 4q0 20 9.5 145t9.5 167t2 126v94q18 27 41 2q14 -82 65 -82q20 0 120 41t184 41q111 0 157 -57q59 -72 60 -264q0 -68 -7.5 -283t-7.5 -260 q0 -135 39 -193.5t141 -70.5q6 -4 7 -23q-1 -16 -7 -24q-176 -29 -280 -29q-43 0 -43 66q0 16 2 77q-86 -82 -231 -82q-113 0 -195 70t-82 174zM121 1249l289 307l288 -307h-24l-264 158l-265 -158h-24zM225 289q0 -180 156 -180q117 0 174 92q0 90 -2 194q-39 109 -141 109 q-86 0 -140 -70q-47 -61 -47 -145z" />
<glyph unicode="&#xe3;" horiz-adv-x="837" d="M45 264q0 127 101.5 216t256.5 89q84 0 146 -39q-6 193 -6 261q0 168 -33 233q-29 53 -90 53q-190 0 -328 -452q-20 -18 -31 4q0 20 9.5 145t9.5 167t2 126v94q18 27 41 2q14 -82 65 -82q20 0 120 41t184 41q111 0 157 -57q59 -72 60 -264q0 -68 -7.5 -283t-7.5 -260 q0 -135 39 -193.5t141 -70.5q6 -4 7 -23q-1 -16 -7 -24q-176 -29 -280 -29q-43 0 -43 66q0 16 2 77q-86 -82 -231 -82q-113 0 -195 70t-82 174zM125 1286q76 217 205 217q55 0 140 -61.5t140 -61.5q68 0 127 97l23 -2q-80 -217 -201 -218q-53 0 -144 61.5t-141 61.5 q-59 0 -122 -98zM225 289q0 -180 156 -180q117 0 174 92q0 90 -2 194q-39 109 -141 109q-86 0 -140 -70q-47 -61 -47 -145z" />
<glyph unicode="&#xe4;" horiz-adv-x="837" d="M45 264q0 127 101.5 216t256.5 89q84 0 146 -39q-6 193 -6 261q0 168 -33 233q-29 53 -90 53q-190 0 -328 -452q-20 -18 -31 4q0 20 9.5 145t9.5 167t2 126v94q18 27 41 2q14 -82 65 -82q20 0 120 41t184 41q111 0 157 -57q59 -72 60 -264q0 -68 -7.5 -283t-7.5 -260 q0 -135 39 -193.5t141 -70.5q6 -4 7 -23q-1 -16 -7 -24q-176 -29 -280 -29q-43 0 -43 66q0 16 2 77q-86 -82 -231 -82q-113 0 -195 70t-82 174zM150 1368q0 43 32.5 76t77.5 33t78 -32t33 -77t-33 -78t-78 -33t-77.5 33t-32.5 78zM225 289q0 -180 156 -180q117 0 174 92 q0 90 -2 194q-39 109 -141 109q-86 0 -140 -70q-47 -61 -47 -145zM502 1368q0 43 32.5 76t77.5 33t78 -32t33 -77t-33 -78t-78 -33t-77.5 33t-32.5 78z" />
<glyph unicode="&#xe5;" horiz-adv-x="837" d="M45 264q0 127 101.5 216t256.5 89q84 0 146 -39q-6 193 -6 261q0 168 -33 233q-29 53 -90 53q-190 0 -328 -452q-20 -18 -31 4q0 20 9.5 145t9.5 167t2 126v94q18 27 41 2q14 -82 65 -82q20 0 120 41t184 41q111 0 157 -57q59 -72 60 -264q0 -68 -7.5 -283t-7.5 -260 q0 -135 39 -193.5t141 -70.5q6 -4 7 -23q-1 -16 -7 -24q-176 -29 -280 -29q-43 0 -43 66q0 16 2 77q-86 -82 -231 -82q-113 0 -195 70t-82 174zM225 289q0 -180 156 -180q117 0 174 92q0 90 -2 194q-39 109 -141 109q-86 0 -140 -70q-47 -61 -47 -145zM229 1454 q0 82 59.5 140.5t143.5 58.5t143.5 -58.5t59.5 -140.5q0 -84 -59.5 -143.5t-143.5 -59.5t-143.5 59.5t-59.5 143.5zM322 1454q0 -47 31.5 -80t78.5 -33t79 33t32 80q0 45 -32 78t-79 33t-78.5 -33t-31.5 -78z" />
<glyph unicode="&#xe6;" horiz-adv-x="1343" d="M49 264q0 127 101.5 216t257.5 89q84 0 145 -39q-6 193 -6 261q0 168 -33 233q-29 53 -90 53q-190 0 -328 -452q-20 -18 -30 4q0 20 9 145t9 167t2 126v94q18 27 41 2q14 -82 66 -82q20 0 119.5 41t183.5 41q86 0 131 -33q55 -39 73 -139q115 145 258 146q160 0 246 -150 q74 -131 74 -344q0 -66 -6 -88.5t-31 -22.5h-176q-143 -2 -176 -2q-106 0 -158 -8v-30q-2 -225 53 -347q51 -109 140 -108q106 0 206 137q76 104 121 244q12 8 23 2q10 -7 12 -19q-14 -74 -26 -223q-8 -121 -9 -239q-14 -27 -39 -5q-8 33 -28 64q-27 37 -58 37 q-14 0 -76.5 -31t-119.5 -31q-184 0 -295 197q-111 -150 -309 -150q-113 0 -195 70t-82 174zM229 289q0 -180 156 -180q117 0 174 92q0 90 -2 194q-39 109 -141 109q-86 0 -140 -70q-47 -61 -47 -145zM735 616q31 -12 168 -12q106 0 153.5 9.5t47.5 66.5q0 182 -21 264 q-33 131 -131 131q-193 0 -217 -459z" />
<glyph unicode="&#xe7;" horiz-adv-x="817" d="M57 555q0 266 107 440q104 168 258 168q63 0 117.5 -33.5t78.5 -33.5q66 0 101 104q23 19 33 -12q-10 -53 -35 -279q-16 -170 -23 -286q-4 -10 -14 -13q-12 -2 -21 13q-18 164 -75 305q-72 172 -160 172q-193 0 -193 -553q0 -256 66 -383q57 -111 152 -111q90 0 155.5 90 t65.5 236q0 35 32 35q35 0 35 -39q0 -147 -59 -250q-74 -125 -211 -133q-16 -35 -23 -49q145 -41 146 -162q0 -72 -53.5 -128t-128.5 -56q-51 0 -92.5 34.5t-41.5 71.5t37 37q25 0 40.5 -51t72.5 -51q35 0 60.5 30.5t25.5 73.5q0 55 -57 88q-47 29 -119 33q33 31 94 129 q-162 10 -264 153q-106 152 -107 410z" />
<glyph unicode="&#xe8;" horiz-adv-x="835" d="M47 520q0 270 129 449q119 168 275 168q160 0 243 -150q76 -131 76 -344q0 -66 -6 -88.5t-31 -22.5h-176q-143 -2 -176 -2q-106 0 -158 -8v-30q0 -225 56 -347q49 -109 137 -108q106 0 207 137q76 104 120 244q12 8 23 2q10 -7 12 -19q-14 -74 -26 -223q-8 -121 -9 -239 q-14 -27 -38 -5q-8 33 -29 64q-27 37 -58 37q-14 0 -76.5 -31t-119.5 -31q-145 0 -252 133q-123 152 -123 414zM227 616q31 -12 168 -12q106 0 153.5 9.5t47.5 66.5q0 182 -21 264q-33 131 -131 131q-193 0 -217 -459zM238 1462q0 39 29.5 70t68.5 31q68 0 127 -103 q37 -80 76 -160q8 -20 47 -77l-15 -15q-51 45 -90 64q-137 66 -149 71q-94 57 -94 119z" />
<glyph unicode="&#xe9;" horiz-adv-x="835" d="M47 520q0 270 129 449q119 168 275 168q160 0 243 -150q76 -131 76 -344q0 -66 -6 -88.5t-31 -22.5h-176q-143 -2 -176 -2q-106 0 -158 -8v-30q0 -225 56 -347q49 -109 137 -108q106 0 207 137q76 104 120 244q12 8 23 2q10 -7 12 -19q-14 -74 -26 -223q-8 -121 -9 -239 q-14 -27 -38 -5q-8 33 -29 64q-27 37 -58 37q-14 0 -76.5 -31t-119.5 -31q-145 0 -252 133q-123 152 -123 414zM227 616q31 -12 168 -12q106 0 153.5 9.5t47.5 66.5q0 182 -21 264q-33 131 -131 131q-193 0 -217 -459zM313 1233q18 25 49 76q39 80 76 159q59 102 125 103 q41 0 71 -30t30 -71q0 -61 -95 -118q-12 -6 -151 -72q-39 -16 -90 -61z" />
<glyph unicode="&#xea;" horiz-adv-x="835" d="M47 520q0 270 129 449q119 168 275 168q160 0 243 -150q76 -131 76 -344q0 -66 -6 -88.5t-31 -22.5h-176q-143 -2 -176 -2q-106 0 -158 -8v-30q0 -225 56 -347q49 -109 137 -108q106 0 207 137q76 104 120 244q12 8 23 2q10 -7 12 -19q-14 -74 -26 -223q-8 -121 -9 -239 q-14 -27 -38 -5q-8 33 -29 64q-27 37 -58 37q-14 0 -76.5 -31t-119.5 -31q-145 0 -252 133q-123 152 -123 414zM150 1204l288 307l289 -307h-25l-264 158l-264 -158h-24zM227 616q31 -12 168 -12q106 0 153.5 9.5t47.5 66.5q0 182 -21 264q-33 131 -131 131 q-193 0 -217 -459z" />
<glyph unicode="&#xeb;" horiz-adv-x="835" d="M47 520q0 270 129 449q119 168 275 168q160 0 243 -150q76 -131 76 -344q0 -66 -6 -88.5t-31 -22.5h-176q-143 -2 -176 -2q-106 0 -158 -8v-30q0 -225 56 -347q49 -109 137 -108q106 0 207 137q76 104 120 244q12 8 23 2q10 -7 12 -19q-14 -74 -26 -223q-8 -121 -9 -239 q-14 -27 -38 -5q-8 33 -29 64q-27 37 -58 37q-14 0 -76.5 -31t-119.5 -31q-145 0 -252 133q-123 152 -123 414zM156 1337q0 43 32.5 76t77.5 33t78 -32t33 -77t-33 -77.5t-78 -32.5t-77.5 32.5t-32.5 77.5zM227 616q31 -12 168 -12q106 0 153.5 9.5t47.5 66.5q0 182 -21 264 q-33 131 -131 131q-193 0 -217 -459zM508 1337q0 43 32.5 76t77.5 33t78 -32t33 -77t-32.5 -77.5t-78.5 -32.5q-45 0 -77.5 32.5t-32.5 77.5z" />
<glyph unicode="&#xec;" horiz-adv-x="518" d="M-2 1442q0 39 29.5 69.5t70.5 30.5q66 0 125 -102q39 -80 76 -160q10 -21 49 -78l-14 -14q-51 45 -90 63q-139 63 -152 72q-94 55 -94 119zM45 18q96 53 136 176t40 357q0 274 -39 377q-35 86 -133 114q-10 29 17 43q55 -6 124 -4q49 2 107.5 6.5t62.5 4.5q33 0 33 -37 l-14 -66q-16 -76 -27 -166q-16 -135 -16 -303q0 -256 35 -346q27 -72 125 -131q6 -4 4 -18q0 -16 -6 -21q-47 6 -152 6q-150 0 -283 -30q-8 2 -13 16t-1 22z" />
<glyph unicode="&#xed;" horiz-adv-x="518" d="M45 18q96 53 136 176t40 357q0 274 -39 377q-35 86 -133 114q-10 29 17 43q55 -6 124 -4q49 2 107.5 6.5t62.5 4.5q33 0 33 -37l-14 -66q-16 -76 -27 -166q-16 -135 -16 -303q0 -256 35 -346q27 -72 125 -131q6 -4 4 -18q0 -16 -6 -21q-47 6 -152 6q-150 0 -283 -30 q-8 2 -13 16t-1 22zM164 1249q16 25 49 76q37 82 76 162q59 100 125 100q39 0 69.5 -29.5t30.5 -70.5q0 -61 -96 -119q-10 -6 -150 -72q-39 -16 -90 -61z" />
<glyph unicode="&#xee;" horiz-adv-x="518" d="M-39 1194l289 307l289 -307h-25l-264 158l-264 -158h-25zM45 18q96 53 136 176t40 357q0 274 -39 377q-35 86 -133 114q-10 29 17 43q55 -6 124 -4q49 2 107.5 6.5t62.5 4.5q33 0 33 -37l-14 -66q-16 -76 -27 -166q-16 -135 -16 -303q0 -256 35 -346q27 -72 125 -131 q6 -4 4 -18q0 -16 -6 -21q-47 6 -152 6q-150 0 -283 -30q-8 2 -13 16t-1 22z" />
<glyph unicode="&#xef;" horiz-adv-x="518" d="M-33 1354q0 43 33 75.5t78 32.5t77.5 -31.5t32.5 -76.5t-32.5 -78t-77.5 -33t-78 33t-33 78zM45 18q96 53 136 176t40 357q0 274 -39 377q-35 86 -133 114q-10 29 17 43q55 -6 124 -4q49 2 107.5 6.5t62.5 4.5q33 0 33 -37l-14 -66q-16 -76 -27 -166q-16 -135 -16 -303 q0 -256 35 -346q27 -72 125 -131q6 -4 4 -18q0 -16 -6 -21q-47 6 -152 6q-150 0 -283 -30q-8 2 -13 16t-1 22zM319 1354q0 43 33 75.5t78 32.5t78 -31.5t33 -76.5t-33 -78t-78 -33t-78 33t-33 78z" />
<glyph unicode="&#xf0;" horiz-adv-x="849" d="M41 537q0 268 129 440q117 158 268 158q53 0 105 -21q-33 106 -76 180q-57 -45 -94 -75q-14 -12 -29 -7q-33 12 -20 43q4 10 108 91q-63 80 -139 79q-57 0 -117 -65q-29 -39 -59 -78q-20 -12 -41 14q25 31 78 150q14 45 30.5 93t32.5 48q61 0 144 -49t153 -131 q61 47 98 78q12 12 29 6q31 -12 21 -41q-4 -12 -109 -92q256 -344 256 -807q0 -207 -86 -375q-106 -211 -293 -211q-156 0 -266 144q-123 158 -123 428zM219 543q0 -264 45 -381q47 -125 164 -125q201 0 201 516t-193 516q-217 0 -217 -526z" />
<glyph unicode="&#xf1;" horiz-adv-x="964" d="M-47 1079q2 16 10 21q53 -6 133 -4q53 0 125 4q66 6 68 6q35 0 35 -39q0 -4 -2 -41q-2 -45 -5 -94q98 162 267 162q121 0 190 -64q78 -72 78 -207q0 -106 -8 -320t-8 -265q-1 -148 159 -183q6 -6 4 -20t-8 -21q-37 4 -129 0q-102 -6 -149 -20q-18 -6 -31.5 8t-13.5 37 l8 102q10 119 16 248q10 186 10 389q0 213 -153 213q-182 0 -234 -235q-2 -102 -2 -224q0 -293 33 -393q27 -82 123 -141q4 -8 -2 -26.5t-18 -22.5q-55 8 -216 8q-78 0 -165 -23q-12 2 -23.5 17.5t-9.5 28.5q88 61 117 159q37 113 36 383q0 299 -61 412q-45 82 -170 119 q-8 8 -4 26zM178 1262q76 217 205 217q55 0 140 -61.5t141 -61.5q68 0 127 96l22 -2q-80 -217 -201 -217q-53 0 -144 61.5t-140 61.5q-59 0 -123 -99z" />
<glyph unicode="&#xf2;" horiz-adv-x="849" d="M41 537q0 268 129 440q117 158 268 158q156 0 260 -154q111 -166 111 -438q0 -254 -119 -420q-109 -158 -260 -158q-156 0 -266 144q-123 158 -123 428zM170 1475q0 39 29.5 69.5t70.5 30.5q66 0 125 -102q37 -80 76 -160q10 -21 49 -78l-14 -14q-51 45 -90 63 q-139 63 -152 72q-94 55 -94 119zM219 543q0 -264 45 -381q47 -125 164 -125q106 0 153.5 123t47.5 393q0 516 -193 516q-217 0 -217 -526z" />
<glyph unicode="&#xf3;" horiz-adv-x="849" d="M41 537q0 268 129 440q117 158 268 158q156 0 260 -154q111 -166 111 -438q0 -254 -119 -420q-109 -158 -260 -158q-156 0 -266 144q-123 158 -123 428zM219 543q0 -264 45 -381q47 -125 164 -125q106 0 153.5 123t47.5 393q0 516 -193 516q-217 0 -217 -526zM330 1217 q18 25 49 75q39 80 76 160q59 102 125 102q41 0 70.5 -29.5t29.5 -70.5q0 -61 -94 -119q-12 -6 -152 -71q-39 -16 -90 -62z" />
<glyph unicode="&#xf4;" horiz-adv-x="849" d="M41 537q0 268 129 440q117 158 268 158q156 0 260 -154q111 -166 111 -438q0 -254 -119 -420q-109 -158 -260 -158q-156 0 -266 144q-123 158 -123 428zM158 1190l288 307l289 -307h-24l-265 158l-264 -158h-24zM219 543q0 -264 45 -381q47 -125 164 -125 q106 0 153.5 123t47.5 393q0 516 -193 516q-217 0 -217 -526z" />
<glyph unicode="&#xf5;" horiz-adv-x="849" d="M41 537q0 268 129 440q117 158 268 158q156 0 260 -154q111 -166 111 -438q0 -254 -119 -420q-109 -158 -260 -158q-156 0 -266 144q-123 158 -123 428zM113 1251q76 217 204 217q55 0 140.5 -61t140.5 -61q68 0 127 96l23 -2q-80 -217 -201 -217q-53 0 -144.5 61.5 t-140.5 61.5q-59 0 -123 -99zM219 543q0 -264 45 -381q47 -125 164 -125q106 0 153.5 123t47.5 393q0 516 -193 516q-217 0 -217 -526z" />
<glyph unicode="&#xf6;" horiz-adv-x="849" d="M41 537q0 268 129 440q117 158 268 158q156 0 260 -154q111 -166 111 -438q0 -254 -119 -420q-109 -158 -260 -158q-156 0 -266 144q-123 158 -123 428zM143 1348q0 43 33 75.5t78 32.5t78 -31.5t33 -76.5t-33 -78t-78 -33t-78 33t-33 78zM219 543q0 -264 45 -381 q47 -125 164 -125q106 0 153.5 123t47.5 393q0 516 -193 516q-217 0 -217 -526zM496 1348q0 43 32.5 75.5t77.5 32.5t78 -31.5t33 -76.5t-33 -78t-78 -33t-77.5 33t-32.5 78z" />
<glyph unicode="&#xf8;" horiz-adv-x="849" d="M41 537q0 268 129 440q117 158 268 158q125 0 219 -105l78 135q10 16 25 17q35 0 35 -33q0 -8 -93 -174q107 -164 107 -432q0 -254 -119 -420q-109 -158 -260 -158q-137 0 -240 113l-75 -131q-8 -14 -25 -15q-35 0 -35 31q0 8 90 170q-104 156 -104 404zM219 543 q0 -156 14 -256q130 229 359 628q-45 154 -156 154q-217 0 -217 -526zM254 190q47 -154 174 -153q106 0 153.5 123t47.5 393q0 158 -17 264q-129 -229 -358 -627z" />
<glyph unicode="&#xf9;" horiz-adv-x="944" d="M-29 1069q2 14 9 21q39 -6 131 0q100 6 149 20q18 4 31.5 -9.5t13.5 -35.5l-10 -117q-10 -135 -16 -272q-8 -201 -9 -404q0 -213 152 -213q182 0 235 236q2 102 2 223q0 201 -13 286t-50 122q-14 18 -92 65q-6 8 1 26.5t17 24.5q18 -6 74 -6q47 0 123 9.5t80 9.5 q33 0 32 -43q0 4 -12 -49q-14 -59 -22 -146q-12 -121 -13 -289q0 -297 62 -411q45 -82 168 -119q10 -8 6 -27q-4 -16 -10 -20q-55 6 -133 4q-55 0 -123 -5t-70 -5q-35 0 -35 39v41l4 94q-98 -162 -266 -162q-119 0 -188 63q-80 72 -80 209q0 188 8 395t8 240q0 147 -160 185 q-4 4 -4 20zM238 1458q0 39 29.5 70t70.5 31q66 0 125 -103q37 -80 76 -160q10 -20 49 -77l-15 -15q-51 45 -90 64q-139 63 -151 71q-94 55 -94 119z" />
<glyph unicode="&#xfa;" horiz-adv-x="944" d="M-29 1069q2 14 9 21q39 -6 131 0q100 6 149 20q18 4 31.5 -9.5t13.5 -35.5l-10 -117q-10 -135 -16 -272q-8 -201 -9 -404q0 -213 152 -213q182 0 235 236q2 102 2 223q0 201 -13 286t-50 122q-14 18 -92 65q-6 8 1 26.5t17 24.5q18 -6 74 -6q47 0 123 9.5t80 9.5 q33 0 32 -43q0 4 -12 -49q-14 -59 -22 -146q-12 -121 -13 -289q0 -297 62 -411q45 -82 168 -119q10 -8 6 -27q-4 -16 -10 -20q-55 6 -133 4q-55 0 -123 -5t-70 -5q-35 0 -35 39v41l4 94q-98 -162 -266 -162q-119 0 -188 63q-80 72 -80 209q0 188 8 395t8 240q0 147 -160 185 q-4 4 -4 20zM354 1239q18 25 49 76q39 80 76 160q59 102 125 102q41 0 71 -29.5t30 -70.5q0 -61 -95 -119q-12 -6 -151 -72q-39 -16 -90 -61z" />
<glyph unicode="&#xfb;" horiz-adv-x="944" d="M-29 1069q2 14 9 21q39 -6 131 0q100 6 149 20q18 4 31.5 -9.5t13.5 -35.5l-10 -117q-10 -135 -16 -272q-8 -201 -9 -404q0 -213 152 -213q182 0 235 236q2 102 2 223q0 201 -13 286t-50 122q-14 18 -92 65q-6 8 1 26.5t17 24.5q18 -6 74 -6q47 0 123 9.5t80 9.5 q33 0 32 -43q0 4 -12 -49q-14 -59 -22 -146q-12 -121 -13 -289q0 -297 62 -411q45 -82 168 -119q10 -8 6 -27q-4 -16 -10 -20q-55 6 -133 4q-55 0 -123 -5t-70 -5q-35 0 -35 39v41l4 94q-98 -162 -266 -162q-119 0 -188 63q-80 72 -80 209q0 188 8 395t8 240q0 147 -160 185 q-4 4 -4 20zM168 1186l289 307l288 -307h-24l-264 157l-264 -157h-25z" />
<glyph unicode="&#xfc;" horiz-adv-x="944" d="M-27 1069q0 14 7 21q39 -6 131 0q100 6 149 20q18 4 31.5 -9.5t13.5 -35.5l-8 -117q-12 -135 -18 -272q-8 -201 -9 -404q0 -213 152 -213q184 0 235 236q2 102 2 223q0 201 -13 286t-48 122q-16 18 -94 65q-4 8 2 26.5t18 24.5q16 -6 74 -6q45 0 121 9.5t80 9.5 q33 0 32 -43q0 4 -12 -49q-14 -59 -22 -146q-12 -121 -13 -289q0 -297 62 -411q45 -82 170 -119q8 -8 4 -27q-4 -16 -10 -20q-53 6 -133 4q-55 0 -123 -5t-70 -5q-35 0 -35 39q0 4 2 41q2 47 2 94q-98 -162 -266 -162q-119 0 -188 63q-78 72 -78 209q0 188 8 395t8 240 q0 147 -162 185q-4 4 -2 20zM174 1337q0 43 33 76t78 33t77.5 -32t32.5 -77t-32.5 -77.5t-77.5 -32.5t-78 32.5t-33 77.5zM526 1337q0 43 33 76t78 33t78 -32t33 -77t-33 -77.5t-78 -32.5t-78 32.5t-33 77.5z" />
<glyph unicode="&#xfd;" horiz-adv-x="882" d="M-80 1108q-6 23 17 31q66 -8 155 -9q238 0 305 11q23 -6 6 -27q-90 -35 -90 -158q0 -117 86 -389q80 -256 99 -256q23 0 100 264q82 276 82 408q0 143 -125 195q-14 23 10 30q41 -6 125 -6q250 0 309 17q8 -2 13.5 -12.5t1.5 -16.5q-88 -20 -160 -119q-47 -66 -137 -332 q-72 -225 -144 -448q-109 -326 -145 -400q-102 -203 -248 -202q-90 0 -155.5 58t-65.5 142q0 55 41 96.5t94 41.5q51 0 84 -35t33 -84t-25 -78q-16 -18 -45.5 -29.5t-29.5 -17.5q0 -27 59 -27q88 0 158.5 94.5t70.5 227.5q0 109 -139 514q-113 330 -172 404.5t-168 111.5z M391 1270q18 25 49 78q39 80 76 159q59 100 125 101q41 0 70.5 -30t29.5 -69q0 -63 -94 -118q-12 -8 -151 -72q-39 -18 -90 -64z" />
<glyph unicode="&#xfe;" horiz-adv-x="907" d="M-74 1430q2 12 11 16q39 -4 86 -4q78 0 173 14t91 14q41 0 41 -36q0 -301 -13 -498q102 158 240 158q145 0 232 -145.5t87 -387.5q0 -258 -83 -409q-90 -168 -265 -168q-137 0 -231 120q12 -205 53 -301q35 -78 115 -127q6 -6 0 -18t-14 -12q-66 16 -181 16 q-154 0 -272 -29q-23 14 -14 43q106 47 149 232q47 199 47 647q0 379 -69 606q-66 215 -177 248q-8 8 -6 21zM291 324q55 -260 192 -261q113 0 164 106.5t51 352.5q0 483 -168 484q-162 0 -227 -256q-12 -236 -12 -426z" />
<glyph unicode="&#xff;" horiz-adv-x="882" d="M-80 1108q-6 23 17 31q66 -8 155 -9q238 0 305 11q23 -6 6 -27q-90 -35 -90 -158q0 -117 86 -389q80 -256 99 -256q23 0 100 264q82 276 82 408q0 143 -125 195q-14 23 10 30q41 -6 125 -6q250 0 309 17q8 -2 13.5 -12.5t1.5 -16.5q-88 -20 -160 -119q-47 -66 -137 -332 q-72 -225 -144 -448q-109 -326 -145 -400q-102 -203 -248 -202q-90 0 -155.5 58t-65.5 142q0 55 41 96.5t94 41.5q51 0 84 -35t33 -84t-25 -78q-16 -18 -45.5 -29.5t-29.5 -17.5q0 -27 59 -27q88 0 158.5 94.5t70.5 227.5q0 109 -139 514q-113 330 -172 404.5t-168 111.5z M195 1430q0 43 32.5 75.5t77.5 32.5t78 -31.5t33 -76.5t-33 -78t-78 -33t-77.5 32.5t-32.5 78.5zM547 1430q0 43 32.5 75.5t77.5 32.5t78 -31.5t33 -76.5t-33 -78t-78 -33t-77.5 32.5t-32.5 78.5z" />
<glyph unicode="&#x152;" horiz-adv-x="1550" d="M63 731q0 342 138 588q143 258 354 258q96 0 166 -55q31 -2 117 -2q45 0 325.5 11t286.5 11q33 0 33 -31q0 -2 -16.5 -157.5t-16.5 -208.5q0 -51 2 -121t2 -82q-6 -8 -18 -8t-17 10q-12 158 -73 318q-78 197 -179 196q-182 0 -202 -706q23 -27 53 -27q162 0 219 295 q8 8 20 6q12 0 19 -8q-29 -170 -29 -422q0 -154 8 -193q-4 -10 -18 -12q-12 -2 -18 8q-14 111 -58 183q-53 86 -135 86q-43 0 -61 -41q0 -6 -2 -48t-2 -73q0 -438 174 -438q123 0 223 170q96 156 125 370q14 25 30 2q-18 -238 -18 -372q0 -49 3 -114l3 -65q0 -41 -53 -41 q-266 0 -512 -8q-117 -6 -231 -20q-72 -55 -166 -56q-201 0 -338.5 231.5t-137.5 565.5zM293 750q0 -750 246 -750q125 0 182 174t57 571q0 768 -223 768q-123 0 -190 -190q-72 -199 -72 -573z" />
<glyph unicode="&#x153;" horiz-adv-x="1423" d="M41 537q0 268 129 440q117 158 268 158q188 0 293 -213q123 215 307 215q160 0 244 -150q76 -131 76 -344q0 -66 -6 -88.5t-31 -22.5h-176q-143 -2 -176 -2q-106 0 -158 -8v-30q-2 -225 53 -347q51 -109 140 -108q106 0 206 137q76 104 121 244q12 8 23 2q10 -7 12 -19 q-14 -74 -27 -223q-10 -121 -10 -239q-12 -27 -37 -5q-8 33 -28 64q-27 37 -58 37q-14 0 -76.5 -31t-119.5 -31q-182 0 -291 191q-115 -199 -289 -199q-156 0 -266 144q-123 158 -123 428zM219 543q0 -264 45 -381q47 -125 164 -125q106 0 153.5 123t47.5 393 q0 516 -193 516q-217 0 -217 -526zM813 616q33 -12 170 -12q106 0 153.5 9.5t47.5 66.5q0 182 -21 264q-33 131 -131 131q-193 0 -219 -459z" />
<glyph unicode="&#x178;" horiz-adv-x="1052" d="M-43 1516q2 14 12 18q61 -14 285 -14q166 0 246 10q10 -4 12 -19q2 -16 -8 -18q-113 -45 -113 -129q0 -86 87 -349t112 -263q18 0 106 239q92 252 92 357q0 119 -118 178q-14 23 12 35q43 -12 192 -13q145 0 242 13q24 -15 14 -48q-178 -82 -278 -311 q-160 -365 -215 -559q-18 -70 -19 -283q0 -262 189 -309q10 -10 4 -28q-4 -16 -14 -23q-41 8 -154 8q-303 0 -403 -33q-25 2 -21 41q248 104 248 402q0 178 -45 336q-27 96 -103 272q-111 252 -178 340t-176 127q-10 8 -8 23zM287 1767q0 43 32.5 76t77.5 33t78 -32t33 -77 t-33 -77.5t-78 -32.5t-77.5 32.5t-32.5 77.5zM639 1767q0 43 33 76t78 33t77.5 -32t32.5 -77t-32.5 -77.5t-77.5 -32.5t-78 32.5t-33 77.5z" />
<glyph unicode="&#x2c6;" horiz-adv-x="700" d="M63 1245l289 307l287 -307h-25l-262 158l-264 -158h-25z" />
<glyph unicode="&#x2dc;" horiz-adv-x="774" d="M78 1321q76 217 203 217q57 0 141 -61.5t139 -61.5q68 0 127 98l25 -2q-82 -219 -201 -219q-53 0 -145.5 62.5t-139.5 62.5q-61 0 -123 -98z" />
<glyph unicode="&#x2000;" horiz-adv-x="1017" />
<glyph unicode="&#x2001;" horiz-adv-x="2034" />
<glyph unicode="&#x2002;" horiz-adv-x="1017" />
<glyph unicode="&#x2003;" horiz-adv-x="2034" />
<glyph unicode="&#x2004;" horiz-adv-x="678" />
<glyph unicode="&#x2005;" horiz-adv-x="508" />
<glyph unicode="&#x2006;" horiz-adv-x="339" />
<glyph unicode="&#x2007;" horiz-adv-x="339" />
<glyph unicode="&#x2008;" horiz-adv-x="254" />
<glyph unicode="&#x2009;" horiz-adv-x="406" />
<glyph unicode="&#x200a;" horiz-adv-x="113" />
<glyph unicode="&#x2010;" horiz-adv-x="677" d="M72 539v88q0 31 30 30h467q31 0 31 -30v-88q0 -31 -31 -31h-467q-31 0 -30 31z" />
<glyph unicode="&#x2011;" horiz-adv-x="677" d="M72 539v88q0 31 30 30h467q31 0 31 -30v-88q0 -31 -31 -31h-467q-31 0 -30 31z" />
<glyph unicode="&#x2012;" horiz-adv-x="677" d="M72 539v88q0 31 30 30h467q31 0 31 -30v-88q0 -31 -31 -31h-467q-31 0 -30 31z" />
<glyph unicode="&#x2013;" horiz-adv-x="980" d="M72 539v88q0 31 30 30h768q31 0 31 -30v-88q0 -31 -31 -31h-768q-31 0 -30 31z" />
<glyph unicode="&#x2014;" horiz-adv-x="1404" d="M72 539v88q0 31 30 30h1182q31 0 31 -30v-88q0 -31 -31 -31h-1182q-31 0 -30 31z" />
<glyph unicode="&#x2018;" horiz-adv-x="532" d="M127 1257q0 172 190 332l31 -26q-121 -133 -121 -226q0 -18 9 -18q2 0 22.5 6t40.5 6q51 0 87 -38t36 -95q0 -61 -37 -100t-96 -39q-72 0 -117 55t-45 143z" />
<glyph unicode="&#x2019;" horiz-adv-x="516" d="M133 1448q0 61 37 100t96 39q72 0 117 -55t45 -143q0 -172 -190 -332l-31 26q121 133 121 226q0 18 -9 18q-2 0 -22.5 -6t-40.5 -6q-51 0 -87 38t-36 95z" />
<glyph unicode="&#x201a;" horiz-adv-x="503" d="M117 113q0 61 36.5 100t96.5 39q72 0 117 -55.5t45 -145.5q0 -170 -191 -330l-31 27q121 133 121 225q0 18 -8 19q-2 0 -22.5 -6t-40.5 -6q-51 0 -87 37.5t-36 95.5z" />
<glyph unicode="&#x201c;" horiz-adv-x="827" d="M74 1257q0 172 190 332l31 -26q-121 -133 -121 -226q0 -18 8 -18q2 0 22.5 6t41.5 6q51 0 87 -38t36 -95q0 -61 -37 -100t-96 -39q-72 0 -117 55t-45 143zM422 1257q0 172 190 332l31 -26q-123 -133 -123 -226q0 -18 10 -18l20 6q21 6 42 6q53 0 89 -38t36 -95 q0 -61 -38 -100t-97 -39q-72 0 -116 55t-44 143z" />
<glyph unicode="&#x201d;" horiz-adv-x="831" d="M133 1448q0 61 37 100t96 39q72 0 117 -55t45 -143q0 -172 -190 -332l-31 26q121 133 121 226q0 18 -9 18q-2 0 -22.5 -6t-40.5 -6q-51 0 -87 38t-36 95zM481 1448q0 61 37 100t96 39q72 0 117 -55t45 -143q0 -172 -190 -332l-33 26q123 133 123 226q0 18 -8 18 q-2 0 -22.5 -6t-41.5 -6q-53 0 -88 38t-35 95z" />
<glyph unicode="&#x201e;" horiz-adv-x="831" d="M117 113q0 61 36.5 100t96.5 39q72 0 117 -55.5t45 -145.5q0 -170 -191 -330l-31 27q121 133 121 225q0 18 -8 19q-2 0 -22.5 -6t-40.5 -6q-51 0 -87 37.5t-36 95.5zM465 113q0 61 37 100t96 39q72 0 117 -55.5t45 -145.5q0 -170 -191 -330l-32 27q123 133 122 225 q0 18 -8 19q-2 0 -22.5 -6t-40.5 -6q-53 0 -88 37.5t-35 95.5z" />
<glyph unicode="&#x2022;" horiz-adv-x="966" d="M215 805q0 111 79 189.5t189 78.5q111 0 190 -78.5t79 -189.5t-79 -189.5t-190 -78.5t-189.5 78.5t-78.5 189.5z" />
<glyph unicode="&#x2026;" horiz-adv-x="1214" d="M141 82q0 43 32 73.5t77 30.5t77.5 -30.5t32.5 -73.5q0 -45 -32.5 -76t-77.5 -31t-77 31t-32 76zM516 82q0 43 32 73.5t77 30.5t77.5 -30.5t32.5 -73.5q0 -45 -32.5 -76t-77.5 -31t-77 31t-32 76zM893 82q0 43 31.5 73.5t76.5 30.5t77 -30.5t32 -73.5q0 -45 -31.5 -76 t-77.5 -31q-45 0 -76.5 31t-31.5 76z" />
<glyph unicode="&#x202f;" horiz-adv-x="406" />
<glyph unicode="&#x2039;" horiz-adv-x="786" d="M147 684l428 291q-14 -55 -14 -101q0 -41 14 -90l-323 -100l323 -123q-14 -61 -14 -92q0 -35 14 -104z" />
<glyph unicode="&#x203a;" horiz-adv-x="786" d="M223 557l326 100l-326 123q16 61 17 92q0 35 -15 105l426 -320l-426 -290q14 55 15 100q0 41 -17 90z" />
<glyph unicode="&#x205f;" horiz-adv-x="508" />
<glyph unicode="&#x2122;" horiz-adv-x="1236" d="M72 1546q0 10 10 10q-8 0 37 -2h104q45 0 151.5 7.5t100.5 7.5q10 -1 10 -13q0 10 -13 -126t-9 -187q-6 -8 -19 0q0 84 -22 178q-27 102 -55 103q-53 0 -54 -299q0 -133 9 -185q20 -123 92 -139q4 -2 4 -10q-2 -6 -6 -6q-18 2 -50 2q-143 0 -227 -15q-8 4 -4 17 q121 35 121 332q0 172 -6 223q-10 78 -45 78t-67 -93.5t-38 -199.5q-10 -8 -14 2v43q0 68 -5 176.5t-5 95.5zM532 1548q-2 8 9 15q16 -2 147 -2h26h15q16 0 16 -29q0 -59 45.5 -219t61.5 -160q8 0 70 238q23 82 47 172q2 12 18 12h57q66 0 117 10q10 -4 6 -14 q-63 -18 -90 -80q-33 -76 -33 -252q0 -291 99 -326q2 -2 0 -6q-2 -6 -4 -6h-29q-27 -2 -49 -2q-115 0 -160 -10q-10 8 -4 20q88 35 88 336q0 205 -8 205q-4 0 -64 -207q-23 -88 -45 -174q-27 -92 -39 -92q-10 0 -81 244q-49 170 -64 170q-4 0 -4 -154q0 -195 25 -266 q18 -55 71 -78q8 -12 -4 -14q-16 4 -86 4q-111 0 -141 -15q-12 4 -6 17q41 14 74.5 67.5t33.5 110.5q0 25 2 180v189q0 92 -117 116z" />
<glyph unicode="&#xe000;" horiz-adv-x="1208" d="M0 0v1208h1208v-1208h-1208z" />
</font>
</defs>
</svg>
