<?xml version="1.0" standalone="no"?>
<!DOCTYPE svg PUBLIC "-//W3C//DTD SVG 1.1//EN" "http://www.w3.org/Graphics/SVG/1.1/DTD/svg11.dtd" >
<svg xmlns="http://www.w3.org/2000/svg">
<metadata></metadata>
<defs>
<font id="kon_tiki_enchanted_jfregular" horiz-adv-x="2146" >
<font-face units-per-em="2048" ascent="1638" descent="-410" />
<missing-glyph horiz-adv-x="491" />
<glyph horiz-adv-x="2048" />
<glyph horiz-adv-x="2048" />
<glyph unicode="&#xd;" horiz-adv-x="491" />
<glyph unicode=" "  horiz-adv-x="491" />
<glyph unicode="&#x09;" horiz-adv-x="491" />
<glyph unicode="&#xa0;" horiz-adv-x="491" />
<glyph unicode="!" horiz-adv-x="483" d="M244 25q0 86 55 86t55 -86q0 -88 -55 -88t-55 88zM264 248q8 166 27 1347q0 25 35 25t68.5 -22.5t27.5 -49.5q-47 -201 -70 -628q-18 -367 -12 -676q0 -37 -45 -37q-33 0 -31 41z" />
<glyph unicode="&#x22;" horiz-adv-x="505" d="M164 1548q0 86 57 86q43 0 55 -86q10 -80 -36 -174q-18 -37 -54 -63l-14 16q14 10 43 64q12 33 6 69q-57 0 -57 88zM328 1548q0 86 55 86q45 0 55 -86q10 -80 -37 -174q-18 -37 -51 -63l-16 16q16 10 45 64q10 33 4 69q-55 0 -55 88z" />
<glyph unicode="#" horiz-adv-x="1378" d="M152 571l24 76h252l94 273h-252l27 75h252l117 346h92l-117 -346h262l119 346h92l-119 -346h256l-28 -75h-252l-97 -273h256l-26 -76h-254l-117 -342h-92l117 342h-264l-115 -342h-96l118 342h-249zM520 647h262l95 273h-263z" />
<glyph unicode="$" horiz-adv-x="1509" d="M104 487q0 92 97 148q74 41 149 41q41 0 41 -25t-45 -24.5t-90 -35.5t-45 -81q0 -70 94 -131q111 -76 307 -96l45 508l-28 6q-195 41 -281 84q-137 68 -137 174q0 117 151 196q135 72 345 95l20 223q4 31 35 30q35 0 33 -30l-21 -219q47 4 100 4l21 215q2 31 35 30 q35 0 31 -30l-21 -217q260 -14 326 -109q41 16 65 -4q16 -14 25 -35q4 -12 0 -20t-17 -6q-45 10 -82 -23q-25 -29 -83 -78q-72 -45 -125 -45q-23 0 -37.5 9.5t-30.5 40t-18 46.5q0 10 5 17.5t19 5.5q39 -10 82 4q41 29 133 76q-51 63 -268 57l-43 -491l88 -21 q410 -90 424 -231q16 -143 -144.5 -243.5t-420.5 -121.5l-23 -231q-4 -41 -39 -41q-33 0 -28 41l22 229q-14 -2 -29 -2q-35 0 -71 2l-21 -229q-4 -41 -41 -41q-31 0 -26 41l22 235q-221 23 -366 121q-133 88 -134 182zM307 1042q2 -119 340 -192l17 -4l34 418 q-162 -33 -270 -88q-123 -63 -121 -134zM680 276q45 -4 90 -2h8l43 480l-98 22zM729 831l96 -20l43 475l-30 -4q-29 -2 -70 -8zM846 274q236 14 375 99q124 78 108 166q-18 109 -366 184l-76 16z" />
<glyph unicode="%" horiz-adv-x="1343" d="M57 1069q-2 147 80 266q94 131 240 131q147 0 225 -96q68 -86 74 -231q111 31 228.5 97.5t172.5 125.5l66 90q10 16 26 16q29 0 29 -30q0 -15 -10 -29l-1006 -1427q-8 -14 -26 -15q-31 0 -31 29q0 12 10 29l848 1204q-152 -104 -309 -148q-12 -127 -109.5 -223 t-218.5 -96q-135 0 -213 88q-72 82 -76 219zM145 1155q-12 -319 187 -338q104 -10 178 68q68 74 72 180q-70 -6 -117 14q-168 70 -158 324q-74 -29 -121 -109q-39 -68 -41 -139zM360 1413q-6 -131 41 -211q60 -96 181 -84q-12 281 -183 295q-20 2 -39 0zM674 285 q-4 150 80 268q94 129 241 129q154 0 232 -104q67 -90 67 -244q0 -139 -100 -248t-229 -109q-135 0 -213 89q-74 82 -78 219zM756 375q-16 -326 200 -346q104 -10 177 71q65 74 73 187q8 109 -35 209q-53 129 -161 137q-111 10 -185 -82q-66 -80 -69 -176z" />
<glyph unicode="&#x26;" horiz-adv-x="1564" d="M74 293q0 184 260 389l143 115q-139 172 -139 346q0 172 127 295t301 135q141 8 247.5 -51.5t121.5 -165.5q20 -176 -232 -369l-291 -219q82 -115 267 -270q162 -137 325 -246q66 80 66 203q0 61 -21 112q8 10 49 21q33 0 54 -60q18 -47 18 -88q0 -117 -98 -237 q76 -61 235 -133q29 -13 13 -29q-23 -18 -68 -2q-137 49 -223 113q-78 -63 -201 -113q-150 -61 -309 -72q-43 -4 -84 -4q-209 0 -363 78q-127 63 -174 152q-25 47 -24 100zM158 272q0 -49 26 -94q41 -68 189 -119q158 -55 311 -45q317 23 479 183q-451 311 -628 522 q-377 -258 -377 -447zM455 1149q0 -143 98 -297q33 25 195 152q207 164 210 167q89 84 91 172q0 90 -82 144q-70 43 -152 41q-229 -6 -334 -244q-27 -61 -26 -135z" />
<glyph unicode="'" horiz-adv-x="362" d="M164 1548q0 86 57 86q43 0 55 -86q10 -80 -36 -174q-18 -37 -54 -63l-14 16q14 10 43 64q12 33 6 69q-57 0 -57 88z" />
<glyph unicode="(" horiz-adv-x="722" d="M139 776q0 330 348 774q29 35 54 58q6 8 14 8q20 0 20 -23q0 -8 -8 -16t-49 -53q-127 -154 -201.5 -352.5t-74.5 -395.5q0 -205 92 -431t235 -388q6 -6 6 -14q0 -20 -20 -21q-10 0 -14 6q-12 12 -56 68q-160 221 -235 369q-111 221 -111 411z" />
<glyph unicode=")" horiz-adv-x="741" d="M176 -57q0 8 4 14q145 162 237.5 388t92.5 431q0 197 -75 395.5t-202 352.5q-29 33 -51 55q-6 6 -6 14q0 23 21 23q8 0 16 -8.5t51 -57.5q348 -444 348 -774q0 -190 -110 -411q-76 -147 -238 -369q-29 -39 -53 -68q-6 -6 -14 -6q-20 0 -21 21z" />
<glyph unicode="*" horiz-adv-x="770" d="M123 1169l160 154l-160 154l213 -62l53 215l55 -215l211 62l-157 -154l157 -154l-211 60l-55 -213l-53 213z" />
<glyph unicode="+" horiz-adv-x="1165" d="M119 596v102h420v428h104v-426h422v-102h-420v-434h-106v432h-420z" />
<glyph unicode="," horiz-adv-x="358" d="M135 25q0 86 55 86q46 0 56 -86q10 -80 -37 -177q-18 -37 -51 -63l-17 16q14 10 45 64q10 35 4 72q-55 0 -55 88z" />
<glyph unicode="-" horiz-adv-x="849" d="M170 539q18 41 55 41h428q33 0 21 -35q-20 -51 -62 -51h-428q-31 0 -14 45z" />
<glyph unicode="." horiz-adv-x="358" d="M135 25q0 86 55 86q56 0 56 -86q0 -88 -56 -88q-55 0 -55 88z" />
<glyph unicode="/" horiz-adv-x="786" d="M39 -47l821 1669h74l-821 -1669h-74z" />
<glyph unicode="0" horiz-adv-x="1523" d="M86 594q0 326 182 588q205 293 518 293q334 0 502 -226q150 -200 150 -542q0 -303 -220.5 -542t-502.5 -239q-293 0 -465 191q-164 182 -164 477zM221 793q-10 -336 92 -545q117 -240 367 -264q27 -2 53 -2q238 0 397 194q144 178 162 436q4 43 4 90q0 264 -90 453 q-119 248 -364 268q-289 23 -469 -213q-145 -190 -152 -417z" />
<glyph unicode="1" horiz-adv-x="649" d="M131 1122q66 111 168 328q6 12 23 25q43 27 69 22q35 -1 33 -24q-53 -786 -57 -1455q0 -16 -13 -30q-35 -43 -61 -41q-25 0 -27 20q-16 145 -16 299q0 147 55 1049q-37 -68 -135 -217z" />
<glyph unicode="2" horiz-adv-x="1245" d="M90 1026q0 117 117 231q92 92 221 152q143 68 313 68q232 0 336 -131q57 -74 58 -164q0 -121 -97 -258q-135 -195 -364 -381q-276 -227 -441 -416h791q29 0 29 -29q0 -35 -29 -68.5t-63 -33.5h-863q-2 72 177.5 255t361.5 365q377 383 377 603q0 84 -55.5 146t-182.5 62 q-168 0 -315 -88q-111 -63 -193 -163.5t-82 -180.5q0 -33 15 -57q37 -61 112 -61q82 0 148 55q80 63 133 190q12 27 31 29q8 0 8 -10q0 -8 -4 -39q-18 -111 -137 -211q-70 -57 -183 -57q-168 0 -207 120q-12 35 -12 72z" />
<glyph unicode="3" horiz-adv-x="1355" d="M113 1032q4 209 239 338q203 111 422 103q162 -6 266 -70q119 -70 121 -193q0 -106 -125 -225q-100 -96 -221 -154v-12q125 2 244 -61q135 -74 174 -201q18 -68 18 -131q0 -207 -184 -344q-174 -131 -420 -131q-266 0 -491 211q-20 18 -25 57q-8 55 11.5 90t41.5 6 q213 -268 576 -252q197 8 311 111q106 94 107 219q0 59 -25 111q-96 203 -399 203q-121 0 -219 -33q-12 -4 -23.5 14.5t-11.5 38.5t12 25q186 82 260 122q182 104 232 218q23 51 22 104q0 150 -160 195q-72 20 -139 20q-98 0 -209 -45q-150 -59 -239 -165.5t-76 -203.5 q12 -102 108 -102q29 0 58 12q143 63 206 252q6 20 19 19q23 -4 12 -48q-55 -262 -295 -292q-84 -12 -141 44t-57 150z" />
<glyph unicode="4" horiz-adv-x="1277" d="M96 420q0 49 33 72q532 348 752 968q6 18 32 10q47 -14 48 -65l-3 -922h195q39 -3 43 -26q4 -12 -6 -21q-25 -20 -29 -24q-20 -25 -67 -27h-133v-332q0 -70 -54 -90q-59 -25 -59 23v399h-719q-31 0 -33 35zM221 483h623l6 754q-92 -215 -264 -420q-166 -197 -365 -334z " />
<glyph unicode="5" horiz-adv-x="1277" d="M127 270q31 37 33 41q16 16 37 23q37 8 47 -21q49 -123 140 -180t259 -63q186 -8 296 61.5t132 202.5q6 35 6 69q0 190 -172 310q-150 104 -348 104q-188 0 -309 -90q-12 -10 -25 -10q-37 0 -30 55l8 557q0 45 37.5 80t105.5 35l688 2q51 2 71.5 -16.5t14.5 -45.5 q-18 -66 -92 -63l-745 14l-17 -514q184 113 348 113q184 0 330 -94q166 -109 197 -293q10 -55 10 -107q0 -240 -193 -374q-162 -115 -381 -115q-283 0 -446 258q-23 35 -2 61z" />
<glyph unicode="6" horiz-adv-x="1390" d="M123 578q-8 328 178 593q201 291 508 302q299 12 403 -189q14 -25 -16.5 -59.5t-56.5 -42.5q-29 -10 -41 12q-72 119 -140 170q-76 57 -178 57q-29 0 -63 -6q-197 -27 -336 -254q-123 -201 -137 -420q-2 -51 4 -147q63 104 192 182q158 96 344 94q156 -4 285 -77 q141 -83 188 -226q16 -53 17 -108q0 -195 -166 -346q-172 -158 -410 -158q-35 0 -69 4q-238 25 -368 190.5t-138 428.5zM276 475q-6 -160 130.5 -304t291.5 -153q199 -10 328 94.5t129 282.5q0 29 -4 60q-18 145 -121 231q-109 94 -289 98q-168 4 -311 -88 q-150 -94 -154 -221z" />
<glyph unicode="7" horiz-adv-x="1052" d="M76 1374q0 72 57 70l795 -25q43 -2 59 -33q18 -33 -8 -69q-575 -795 -662 -1342q-43 -18 -116 -18q-12 0 -13 33q0 199 291 692q252 426 449 651l-813 -18q-39 -2 -39 59z" />
<glyph unicode="8" horiz-adv-x="1282" d="M106 340q0 141 105 260q84 94 213 154q-254 104 -270 260q-2 23 -2 43q0 193 178 317q162 113 370 111q168 -2 293 -72q143 -80 162 -217q2 -27 2 -53q0 -143 -115 -258q-43 -43 -204 -152q117 -37 202 -104q109 -89 119 -195q18 -219 -153.5 -349t-450.5 -118 q-145 6 -276 90q-150 94 -168 232q-4 27 -5 51zM203 410q-16 -162 129 -269q135 -102 334 -102q76 0 147 16q86 20 162 80q106 82 106 195q0 34 -10 71q-33 117 -262 211q-166 57 -332 115q-256 -133 -274 -317zM260 1102q0 -47 12 -92q25 -78 228 -158q131 -47 262 -92 q147 90 172 110q115 99 119 234q4 129 -134.5 230.5t-306.5 92.5q-164 -8 -262 -106q-90 -90 -90 -219z" />
<glyph unicode="9" horiz-adv-x="1335" d="M90 963q0 195 164 346q172 158 410 157q33 0 65 -2q248 -27 377 -202q115 -158 123 -424q8 -326 -174 -590q-199 -287 -506 -299q-299 -10 -406 188q-12 25 21 62q27 35 53 43q29 8 43 -13q72 -119 139 -170q76 -57 176 -57q31 0 66 4q197 27 336 256q123 199 135 418 q4 51 -4 147q-59 -100 -193 -182q-162 -96 -348 -106q-150 -6 -280.5 80t-177.5 231q-18 55 -19 113zM201 1028q0 -31 4 -59q20 -147 121 -234q109 -92 288 -98q170 -4 316.5 89t150.5 220q6 160 -130 304.5t-292 152.5q-199 10 -328.5 -94.5t-129.5 -280.5z" />
<glyph unicode=":" horiz-adv-x="358" d="M135 25q0 86 55 86q56 0 56 -86q0 -88 -56 -88q-55 0 -55 88zM135 639q0 88 55 88q56 0 56 -88q0 -86 -56 -86q-55 0 -55 86z" />
<glyph unicode=";" horiz-adv-x="358" d="M135 25q0 86 55 86q46 0 56 -86q10 -80 -37 -177q-18 -37 -51 -63l-17 16q14 10 45 64q10 35 4 72q-55 0 -55 88zM135 639q0 88 55 88q56 0 56 -88q0 -86 -56 -86q-55 0 -55 86z" />
<glyph unicode="&#x3c;" horiz-adv-x="1081" d="M178 498v106l744 316v-123l-600 -246l600 -246v-121z" />
<glyph unicode="=" horiz-adv-x="1492" d="M272 639v98h1010v-98h-1010zM274 338v94h1008v-94h-1008z" />
<glyph unicode="&#x3e;" horiz-adv-x="1110" d="M262 129v121l596 248l-596 243v123l744 -315v-107z" />
<glyph unicode="?" horiz-adv-x="811" d="M139 1057q39 100 226 276q150 141 264 142q49 0 79.5 -32t30.5 -83q0 -86 -84 -211q-94 -141 -112 -170q-51 -82 -76 -141q-55 -139 -55 -619q0 -10 -23 -29q-27 -25 -33 3q-16 100 -16 405q0 180 18.5 246.5t223.5 320.5q100 125 100 205q0 57 -51 57 q-61 0 -188.5 -153.5t-178.5 -255.5q-6 -12 -49 -8t-63.5 15t-12.5 32zM317 25q0 86 56 86q57 0 57 -86q0 -88 -57 -88q-55 0 -56 88z" />
<glyph unicode="@" horiz-adv-x="1478" d="M127 381q0 301 201 485q195 180 497 181q229 0 381 -127q164 -136 164 -361q0 -174 -84 -301q-96 -147 -262 -147q-123 0 -156 129q-98 -133 -221 -134q-98 0 -154.5 62.5t-56.5 163.5q0 152 88 280q100 145 246 146q137 0 170 -142l33 119h117q-31 -109 -64 -215 q-49 -178 -49 -231q0 -84 86 -84q115 0 182 121q55 100 55 225q0 211 -147 326q-135 106 -350 106q-254 0 -419 -169t-165 -423q0 -244 158 -388t403 -144q221 0 465 149l37 -51q-250 -166 -520 -166q-268 0 -449 160q-186 166 -186 430zM561 313q0 -53 28.5 -90t80.5 -37 q98 0 168 142q61 118 61 227q0 49 -30.5 85t-82.5 36q-92 0 -163 -139q-61 -121 -62 -224z" />
<glyph unicode="A" horiz-adv-x="2168" d="M55 653q4 365 298 641.5t753 333.5q78 8 151 8q375 0 553 -217q21 -27 21 -44q0 -10 -6 -17q-4 -4 -9 -4q-16 0 -47 32q-170 184 -479 185q-72 0 -149 -10q-420 -57 -713 -359q-260 -268 -281 -561q-2 -26 -2 -51q0 -230 166 -389q219 -207 656 -207q346 0 559 172 q162 131 219 334q37 121 37 315q0 86 -8.5 200.5t-8.5 123.5q0 31 17 49q39 43 102 74q35 18 45 6q12 -10 13 -133q0 -127 -17 -473q-12 -290 -12 -376v-20q2 -131 12 -169t41 -42h6q42 0 107 72q68 72 110 164q14 29 33 22q13 -6 13 -20q0 -9 -5 -21q-47 -102 -133 -206 q-97 -115 -160 -115h-6q-129 14 -135 287q-2 70 -4 208q-86 -240 -291 -397q-229 -174 -528 -174q-375 4 -645 225q-273 227 -273 546v7z" />
<glyph unicode="B" horiz-adv-x="1878" d="M23 1405q0 233 598 235h25q372 0 654 -116q310 -129 310 -323v-11q-10 -195 -416 -318q588 -174 588 -473q0 -201 -269 -360q-258 -154 -591 -176q-61 -4 -119 -4q-322 0 -541 108q-45 23 -47 39q-2 10 14 12q18 2 45 -6q86 -25 205 -35q-59 51 -84 103q-4 6 -4 47 q0 121 37 666v20q-138 31 -138 79q0 3 1 7q8 43 147 59q29 449 31 543q0 49 18 49q29 0 29 -49v-6q-1 -35 -1 -93q0 -146 7 -437q39 2 78 2q99 0 203 -11q70 -6 284 -53q178 31 295 107.5t117 169.5q0 190 -418 307q-309 86 -563 88q-162 0 -280 -29q-135 -35 -144 -92 q-1 -5 -1 -10q0 -46 48 -90q57 -55 158 -84q8 -4 10 -25q1 -8 1 -16q0 -39 -17 -80q-12 -35 -43 -21q-74 31 -137 89q-90 78 -90 188zM528 793q20 -702 29 -793q2 -14 -2 -29q48 -2 103 -2q82 0 178 4q350 16 579 142q238 130 238 326v16q-4 117 -146.5 221t-384.5 174 q-243 -60 -451 -60q-33 0 -65 1q-41 2 -78 6v-6z" />
<glyph unicode="C" horiz-adv-x="2050" d="M33 684q0 397 401 682q390 274 900 274h7q281 0 439 -61q123 -47 149 -117q25 4 46 4q14 0 28 -2q33 -6 51 -57q4 -8 2 -14q0 -6 -8 -4q-10 2 -25 2q-70 0 -111.5 -43t-125.5 -117q-105 -69 -176 -69q-9 0 -17 1q-27 2 -42 12.5t-37.5 55.5t-24.5 67q-2 10 2 14.5t14 2.5 q27 -7 54 -7q39 0 79 15q35 14 88 49q61 43 84 53q10 6 60 25q-12 55 -146 90q-125 33 -280 35q-322 0 -633 -141q-297 -135 -485 -351q-193 -221 -193 -444q0 -51 10 -100q59 -258 357 -422q272 -147 626 -160q49 -2 95 -2q562 0 780 225q43 45 74 119q8 18 28 12 q18 -4 18 -15q0 -4 -3 -9q-25 -47 -72 -125q-94 -129 -291 -213q-246 -106 -590 -107q-61 0 -125 4q-352 18 -637 209q-303 203 -358 498q-12 66 -12 131z" />
<glyph unicode="D" horiz-adv-x="2232" d="M27 1128q0 20 2 43q25 190 306 325.5t652 135.5q106 0 211 -12q412 -49 680 -289q260 -233 260 -530q0 -401 -385 -647q-327 -209 -731 -209h-23q-225 4 -458 92q2 -31 2 -37q1 -8 1 -16q0 -39 -28 -39q-6 0 -14 4q-80 45 -121 131q-2 4 -2 29q-137 68 -242 147 q-37 29 -37 45q0 10 21 10q27 0 53 -18q55 -41 205 -98q6 147 35 598l39 637q-166 -49 -265.5 -120t-97.5 -145q2 -155 208 -155h3q25 0 43 2q12 4 12 -27q0 -39 -18.5 -94t-32.5 -55q-61 0 -151 61q-127 86 -127 231zM502 1444q-1 -32 -1 -77q0 -180 13 -574 q10 -338 23 -652q231 -68 452 -71q29 -1 57 -1q341 0 603 111q405 175 428 572q1 13 1 26q0 269 -280 482q-266 203 -610 237q-94 8 -191 8q-262 0 -495 -61z" />
<glyph unicode="E" horiz-adv-x="1894" d="M23 399q0 299 589 473q-406 123 -415 318v14q0 191 307 320q281 116 651 116h31q279 0 438 -61q123 -47 150 -117q25 4 45 4q14 0 26 -2q35 -6 53 -57q4 -8 3 -14q-2 -6 -9 -4q-12 2 -24 2q-70 0 -112 -43t-128 -117q-104 -69 -173 -69q-9 0 -17 1q-27 2 -42.5 12.5 t-39 55.5t-25.5 67q0 10 4 14.5t13 2.5q28 -7 55 -7q40 0 80 15q35 14 88 49q61 43 84 53q10 6 57 25q-10 55 -145 92q-125 33 -281 33q-254 -2 -561 -88q-420 -117 -420 -307q0 -92 117 -169t295 -108q215 47 284 53q100 10 201 11q299 0 311 -68q1 -3 1 -7q0 -34 -78 -62 q-84 -30 -236 -37q-30 -1 -61 -1q-213 0 -457 60q-242 -70 -383 -174.5t-147 -220.5v-13q0 -198 239 -329q227 -125 578 -142q76 -4 145 -4q526 0 729 213q43 45 76 117q6 18 27 12q19 -4 19 -15q0 -4 -3 -9q-25 -47 -74 -125q-90 -125 -286 -205q-242 -98 -582 -98 q-66 0 -135 4q-334 18 -592 172q-270 162 -270 364z" />
<glyph unicode="F" horiz-adv-x="1517" d="M39 1528q0 29 19.5 78t21.5 39q37 -83 169 -83q14 0 30 1q109 6 349 51t373 53q80 6 156 6q444 0 594 -153q23 -24 23 -45q0 -6 -2 -11q-10 -35 -48 -2q-45 43 -170 72q-131 29 -299 29h-41q-164 -4 -342 -47q-143 -41 -288 -80q0 -231 10 -582q166 9 305 9q46 0 90 -1 q274 -4 381 -47q50 -21 50 -41q0 -3 -1 -6q-4 -10 -61 2q-76 18 -218 18q-68 0 -151 -4q-78 -4 -201 -22q-172 -27 -190 -29q20 -662 29 -739v-11q0 -44 -29 -44q-6 0 -14 4q-80 45 -121 131q-2 6 -2 47q0 117 31 598q-113 -14 -156 -25q-20 -4 -29 41q-2 19 -2 34 q0 60 37 65q33 6 158 14q23 358 35 575q-129 -30 -231 -30h-7q-197 0 -244 71q-14 20 -14 64z" />
<glyph unicode="G" horiz-adv-x="1789" d="M70 -137q14 270 387 350q45 10 49 -16q2 -16 -31 -23q-111 -14 -211 -86q-121 -84 -121 -192q0 -20 4 -41q29 -119 259 -185q181 -52 404 -52q31 0 62 1q586 20 693 256q29 63 28 137q0 143 -102 293q-41 59 -115 150q-205 -199 -470 -199h-5q-295 2 -518 174 q-231 176 -231 420v10q4 281 242.5 504t594.5 268q61 8 121 8q186 0 330 -73q86 -45 125 -92q23 -29 0 -45q-16 -12 -41 16q-113 125 -361 125q-63 0 -133 -10q-326 -43 -559 -281q-211 -211 -227 -436q-1 -18 -1 -35q0 -179 134 -297q160 -138 468 -138q26 0 54 1 q276 10 432 137q-119 160 -127 303q-2 31 -2 60q0 151 53 245q61 102 164 103q195 -2 195 -242q0 -31 -4 -61q-29 -221 -166 -392q53 -63 151 -198q74 -123 74 -244q0 -106 -57 -221q-76 -150 -215 -236q-190 -117 -529 -141q-51 -2 -102 -2q-299 0 -502 110 q-194 106 -194 254v13zM1292 913q0 -59 11 -120q16 -115 96 -213q86 77 129 190q39 102 39 203q0 209 -146 211q-61 0 -95 -77t-34 -194z" />
<glyph unicode="H" horiz-adv-x="2048" d="M20 410q0 111 166 221q182 121 471 170l2 33q41 618 41 749q2 49 21 49q29 0 29 -49v-6q-2 -45 -2 -121q0 -202 12 -622l2 -19q125 16 260 16q408 0 752 -206q6 104 12 209q39 606 41 749q2 49 20 49q29 0 29 -49v-6q-2 -46 -2 -122q0 -203 12 -621l31 -875v-12 q0 -43 -27 -43q-8 0 -14 4q-80 45 -121 131q-4 8 -4 63q0 119 18 459q-311 213 -757 223h-32q-111 0 -218 -12l18 -594q184 6 336 94q100 59 141 117q26 40 43 40q2 0 5 -1q12 -2 6 -39q-14 -66 -140 -145q-162 -106 -389 -119l9 -248v-12q0 -43 -27 -43q-8 0 -14 4 q-80 45 -121 131q-4 6 -4 65q0 40 2 103q-270 12 -434 86q-172 78 -173 199zM166 453v-6q0 -94 115 -166q127 -80 348 -99q8 259 26 572q-211 -41 -347 -126t-142 -175z" />
<glyph unicode="I" horiz-adv-x="2013" d="M16 244q0 195 197 346q188 143 426 153q15 1 30 0q136 0 260 -49q138 -55 201 -145q10 -16 9 -35q-4 -18 -17 -22q-20 -8 -45 28q-51 78 -182 128q-113 43 -230 43q-19 0 -38 -1q-195 -10 -355 -127q-168 -123 -168 -274q0 -33 9 -64q37 -139 200 -209q143 -59 361 -59 q115 0 233 16q389 57 638 337t294 700q8 70 8 143q0 188 -47 311q-55 150 -164 150q-113 0 -176 -144q-50 -111 -50 -247q0 -19 1 -39q8 -139 67.5 -268.5t143.5 -196.5q10 -6 6 -19q-12 -29 -41 -6q-113 90 -174 248q-55 143 -55 301q0 182 67 305q76 143 222 144 q150 0 217 -228q43 -150 43 -349q0 -45 -2 -93q-20 -428 -211 -719q-207 -313 -584 -416q-184 -51 -393 -51q-254 0 -443 78q-258 109 -258 330z" />
<glyph unicode="J" horiz-adv-x="1945" d="M14 -63q0 199 201 348q193 141 430 147h10q146 0 279 -57q131 -57 196 -146q10 -16 9 -36q-4 -18 -17 -23q-20 -6 -45 29q-53 80 -174 132q-117 50 -244 50h-10q-205 -4 -373 -123q-174 -123 -174 -281q0 -37 11 -73q43 -139 192 -219q141 -74 332 -74q133 0 258 39 q430 137 704 592q254 424 254 899q0 289 -55 399q-47 -203 -188 -428q-59 -84 -119 -170q-66 -100 -66 -166q0 -29 13 -55q29 -57 82 -76q25 -8 96 -10q27 -2 31 -17q2 -18 -21 -28q-59 -29 -135 -29q-137 0 -184 107q-12 29 -13 59q0 78 97 195q162 197 168 204 q113 172 174 363q25 84 49 166q12 12 37 12q45 0 71.5 -27.5t26.5 -265.5q0 -158 -12 -373q-25 -449 -228 -845q-229 -446 -579 -592q-172 -72 -381 -72q-260 0 -457 102q-211 109 -240 283q-6 29 -6 60z" />
<glyph unicode="K" horiz-adv-x="1599" d="M96 842q8 133 17 688q0 49 18 49q29 0 29 -48v-7v-18q0 -66 10 -246q16 -262 20 -394q25 4 48 4q233 -2 393 -174q346 80 579 344q127 147 183 303q14 47 43 197q6 34 88 68q73 31 110 30h8q25 -1 25 -20v-6q-16 -80 -84 -213q-96 -190 -242 -352q-264 -291 -669 -400 q109 -174 215 -348q129 -199 260 -233q49 -12 100 -13q129 0 244 82q94 68 135 150q20 43 35 22q4 -7 4 -16q0 -18 -16 -47q-172 -324 -453 -324q-53 0 -109 12q-131 33 -225 162q-59 80 -142 270.5t-132 264.5q-111 -24 -217 -24q-16 0 -31 1q-72 2 -141 19 q10 -326 45 -707v-12q0 -43 -27 -43q-8 0 -14 4q-80 45 -121 131q-8 18 -10 223q0 225 14 445q-74 38 -74 87q0 53 84 89zM193 811q0 2 4 -131q41 -12 90 -14l60 -2q100 0 196 16q-133 135 -312 135q-18 0 -38 -4z" />
<glyph unicode="L" horiz-adv-x="2017" d="M100 78q0 56 52 98q54 43 149 43q100 0 281 -72q63 121 63 273q0 125 -60.5 334t-60.5 321q0 72 17 144q45 203 270 327q194 107 407 107h15q233 -2 401 -99q190 -111 207 -297q1 -13 0 -25q0 -51 -12 -104q31 7 58 7q13 0 26 -2q29 -4 43 -56q4 -10 2 -14q-2 -6 -8 -4 q-8 2 -19 2q-59 0 -94 -43t-104 -119q-89 -69 -148 -69q-6 0 -12 1q-25 4 -37 13.5t-30.5 55.5t-20.5 69q-2 10 1 14t11 2q20 -6 43 -7q33 0 70 15q39 14 86 56q55 47 69 55q23 59 23 116q0 18 -2 37q-14 121 -144 197q-123 70 -305 82q-23 1 -46 1q-190 0 -373 -89 q-225 -111 -277 -285q-18 -68 -18 -137q0 -80 45 -267.5t45 -320.5q0 -188 -70 -315q365 -145 635 -148h22q571 0 738 312q18 35 33 24q10 -8 10 -22q0 -11 -6 -25q-84 -203 -346 -317q-211 -94 -436 -94q-35 0 -70 2q-217 12 -621 202q-108 -139 -256 -139h-8 q-100 0 -168 44q-70 45 -70 116zM217 4q42 -29 107 -29h16q117 2 201 111q-147 70 -207 76q-18 2 -34 2q-55 0 -88 -22q-40 -26 -40 -64q0 -46 45 -74z" />
<glyph unicode="M" horiz-adv-x="2033" d="M92 96q0 188 35 738q12 307 35 725q2 29 37 49q18 10 30 10q17 0 23 -21q96 -287 307 -669q274 -500 440 -500q168 0 447 500q201 362 311 667q8 23 33 23q43 0 43 -43l-10 -494q0 -135 4 -247l28 -875q1 -9 1 -16q0 -39 -27 -39q-6 0 -14 4q-80 45 -121 131q-2 6 -2 57 q0 188 34 738q29 451 37 657q-152 -387 -315 -678q-272 -483 -471 -483q-201 0 -465 444q-207 348 -297 647q2 -266 12 -587l31 -875v-11q0 -44 -29 -44q-6 0 -14 4q-80 45 -119 131q-4 6 -4 57z" />
<glyph unicode="N" horiz-adv-x="2113" d="M41 256q0 80 22 156q39 115 146 200q84 68 160 86q43 10 49 -12q10 -29 -33 -43q-166 -57 -219 -270q-16 -61 -16 -133q0 -270 188 -316q29 -6 57 -6q279 0 379 651q29 180 41 599t12 423q6 29 43 23q59 -10 107 -74q16 -20 18 -41q33 -334 172 -713q96 -262 248 -497 q137 -215 235 -290q82 -62 142 -62q12 0 23 2q84 18 104 120q12 59 12 142q0 137 -71 604q-35 223 -35 377q0 360 200 458q49 25 121 25q154 0 258 -68q19 -10 19 -22q0 -7 -6 -14q-6 -10 -43 2q-55 18 -111 18q-74 0 -125 -31q-205 -119 -205 -551q0 -106 15 -231 q16 -133 32 -264q18 -166 19 -275q0 -96 -14 -163q-16 -78 -66 -132q-55 -57 -131 -57q-115 0 -252 127q-94 86 -207 252q-160 236 -280 526q-94 229 -148 451l-18 -4q11 -204 11 -368q0 -204 -17 -347q-31 -270 -144 -448q-131 -203 -321 -203q-43 0 -86 10 q-141 33 -217 145q-68 100 -68 238z" />
<glyph unicode="O" d="M29 758q0 297 235 536q182 186 352 224q25 4 41 4q25 0 25 -11q0 -18 -49 -32q-164 -45 -320 -209q-211 -221 -211 -516q0 -322 297 -543q285 -213 668 -213q381 0 649 225q285 238 285 604q0 338 -246 539q-193 158 -434 178q-55 4 -109 4q-244 0 -395 -96 q-139 -86 -141 -205q0 -141 155 -231q117 -68 283 -88q59 -8 125 -8q156 0 250 28q37 12 49 4q14 -10 -14 -34q-115 -106 -318 -107q-53 0 -112 8q-199 25 -333 148t-134 268q0 205 241 328q187 95 384 95q19 0 38 -1q307 -12 531 -232q243 -238 243 -598q0 -424 -290 -696 q-281 -262 -697 -262q-461 0 -754.5 252t-293.5 637z" />
<glyph unicode="P" horiz-adv-x="1896" d="M33 1231q8 70 114 164q127 113 324 182q240 86 537 90h19q363 0 609 -151q226 -138 234 -308q0 -11 1 -22q0 -254 -265 -443q-246 -176 -510 -178h-16q-259 0 -433 62q-170 59 -184 153q-1 10 -1 20q0 60 52 107q53 47 113 54q23 2 28 -11q10 -14 -18 -20 q-45 -12 -78 -43q-34 -30 -33 -67v-11q8 -59 162 -102q137 -37 316 -37q40 0 81 2q295 12 513.5 164.5t218.5 339.5q0 141 -179 256q-211 135 -563 135q-371 0 -674 -109q-1 -35 -1 -83q0 -203 14 -644q25 -766 30 -833v-12q0 -44 -28 -44q-6 0 -15 4q-80 45 -118 131 q-4 6 -4 52q0 158 34 702q14 287 39 709q-266 -115 -266 -228q0 -88 188 -104q4 0 5 -6q0 -14 -26 -49t-42 -39q-9 -3 -20 -3q-32 0 -72 29q-87 64 -87 166q0 12 1 25z" />
<glyph unicode="Q" d="M29 758q0 297 235 536q182 186 352 224q25 4 41 4q25 0 25 -11q0 -18 -49 -32q-164 -45 -320 -209q-211 -221 -211 -516q0 -223 154 -408q143 -172 383 -266q122 172 361 172q25 0 51 -2q211 -16 401 -180q246 96 393 288q156 205 156 469q0 338 -246 539 q-193 158 -434 178q-55 4 -109 4q-244 0 -395 -96q-139 -86 -141 -205q0 -141 155 -231q117 -68 283 -88q59 -8 125 -8q156 0 250 28q37 12 49 4q14 -10 -14 -34q-115 -106 -318 -107q-53 0 -112 8q-199 25 -333 148t-134 268q0 211 243 334q183 91 384 91q20 0 40 -1 q295 -12 518 -232q248 -242 248 -600q0 -287 -143 -514q-135 -215 -369 -333q137 -123 199 -164q113 -74 219 -78q13 -1 26 -1q150 0 226 89q10 14 25 10q9 -1 9 -11q0 -6 -3 -15q-25 -61 -80 -117q-86 -82 -201 -82q-111 0 -250 106q-43 33 -250 228q-182 -72 -391 -72 q-463 0 -755.5 250t-292.5 635zM694 59q180 -63 373 -63q156 0 303 45q-164 150 -321 158q-21 1 -41 1q-218 0 -314 -141z" />
<glyph unicode="R" horiz-adv-x="1947" d="M33 1231q8 70 121 168q135 115 338 186q250 90 548 90q389 0 631 -186q197 -152 197 -324v-10q-6 -240 -241.5 -436.5t-518.5 -214.5q121 -186 215 -283q186 -190 424 -254q93 -26 148 -26q27 0 44 6q25 8 33 0q4 -3 4 -9t-4 -16q-48 -97 -180 -97q-12 0 -25 1 q-240 18 -512 328q-84 92 -235 350q-231 8 -350 53q-78 29 -133 80q-63 57 -64 113q0 102 143 102q70 0 150 -29q143 -53 268 -215q244 4 494 156q289 176 289 412q0 141 -179 256q-211 135 -563 135q-371 0 -674 -109q-1 -35 -1 -83q0 -203 14 -644q20 -674 30 -772v-12 q0 -43 -28 -43q-6 0 -15 4q-80 45 -118 131q-4 6 -4 45q0 102 34 647q14 287 39 709q-266 -115 -266 -228q0 -88 188 -104q4 0 5 -6q0 -14 -26 -49t-42 -39q-9 -3 -20 -3q-32 0 -72 29q-87 64 -87 166q0 12 1 25zM532 778q-3 -7 -3 -14q0 -59 167 -121q76 -27 254 -33 q-90 119 -192 164q-68 31 -154 31q-63 0 -72 -27z" />
<glyph unicode="S" horiz-adv-x="2082" d="M33 319q0 133 137 213q109 63 221 64q53 0 47 -27q-6 -16 -51 -16q-78 0 -150.5 -60.5t-72.5 -138.5q0 -141 203 -250q244 -131 661 -131q391 0 641 127q227 117 227 275q0 199 -571 325l-508 113q-293 63 -424 129q-199 98 -198 254q0 201 292 326q262 113 633 120 q29 1 57 1q485 0 592 -166q28 4 52 4q16 0 30 -2q33 -6 52 -58q4 -8 2 -14q0 -6 -9 -4q-10 2 -24 2q-70 0 -112 -43t-126 -117q-104 -68 -173 -68q-10 0 -19 1q-27 2 -42.5 12t-38 55t-24.5 68q-2 10 2 14t15 2q27 -7 54 -7q39 0 79 15q37 14 106.5 61.5t114.5 61.5 q-61 115 -385 115q-88 0 -193 -10q-289 -25 -536 -129q-285 -117 -285 -258q0 -195 531 -314l503 -112q610 -137 633 -346q2 -17 2 -34q0 -209 -262 -355q-282 -158 -731 -162h-20q-403 0 -680 159q-252 143 -252 305z" />
<glyph unicode="T" horiz-adv-x="1239" d="M25 1493q-4 18 -4 40.5t4 49.5q8 49 19 69q7 12 11 13q3 0 6 -6q37 -82 185 -82h14q109 2 360.5 41t387.5 43q35 1 68 0q212 0 386 -32q200 -38 289 -109q23 -19 23 -41q0 -7 -2 -15q-10 -35 -48 -2q-45 43 -170 72q-131 29 -299 29h-41q-143 -4 -323 -54q0 -217 14 -673 l29 -863v-11q0 -44 -29 -44q-6 0 -14 4q-80 45 -121 131q-2 6 -2 62q0 227 31 706q29 446 41 674q-231 -68 -361 -90q-109 -18 -198 -19q-236 0 -256 107z" />
<glyph unicode="U" horiz-adv-x="2037" d="M35 1241q-2 15 -2 30q0 135 162 253q171 121 352 121h6q244 -4 397 -146q160 -147 161 -396q0 -12 -1 -24q-6 -158 -172 -323q-154 -133 -307 -269q-164 -152 -164 -274q0 -141 170 -223q143 -66 330 -66q68 0 120 10q358 74 574 465q-16 717 -16 1043q0 31 16 49 q49 53 86 72.5t49 7.5q10 -10 10 -189q0 -180 -12 -630q-12 -374 -12 -466v-20q2 -131 12 -169t41 -42h6q42 0 107 72q68 72 110 164q14 29 33 22q13 -6 13 -20q0 -9 -5 -21q-47 -102 -133 -206q-97 -115 -160 -115h-6q-129 14 -135 287l-2 55q-203 -336 -545 -424 q-86 -20 -190 -21q-240 0 -432 99q-207 104 -207 256q0 98 127 229q74 78 270.5 232.5t245.5 203.5q111 109 121 201q2 19 2 38q0 162 -125 286q-145 141 -379 141q-217 0 -356 -113q-106 -84 -106 -167q0 -10 1 -19q12 -74 94 -133q90 -61 207 -62q41 0 33 -30 q-4 -23 -39 -23q-98 0 -180 35q-150 63 -170 219z" />
<glyph unicode="V" horiz-adv-x="1681" d="M43 1563q0 31 8 40t39 7q43 -4 81 -21.5t36 -32.5q-1 -24 -1 -54q0 -97 15 -247q25 -246 82 -469q80 -307 252 -540q166 -225 301 -230h3q78 0 202 119q113 106 201 248q-37 53 -58 117q-43 121 -43 299q0 213 61.5 437t157.5 363q88 133 172 140q6 0 11 1 q132 0 133 -235q0 -26 -2 -53q-25 -293 -144 -631q-66 -190 -211 -430q57 -68 117 -94q35 -14 35 -35q0 -31 -39 -31q-57 0 -149 101q-258 -399 -492 -400q-147 0 -330 222q-195 236 -307 585q-131 408 -131 801v23zM1223 793q0 -141 28 -240q16 -57 52 -113 q115 176 192 387q88 238 125 531q10 76 10 121q0 113 -51 125q-7 2 -14 2q-65 0 -150 -136q-90 -139 -143 -327q-49 -168 -49 -350z" />
<glyph unicode="W" horiz-adv-x="2486" d="M20 1059q0 182 136 342q94 113 246.5 180.5t302.5 67.5q100 0 180 -35q150 -63 223 -277q55 -164 82 -475q18 -221 18 -349q0 -46 -2 -79q76 276 187 533q121 276 219 379q8 8 20 8q17 0 42 -14q44 -24 38 -46q-41 -133 -41 -362q0 -293 70 -526q127 -418 326 -418h6 q117 4 155 258q23 156 23 483v53v59q0 352 45 523q61 233 229 272q29 6 58 6q123 0 227 -81q12 -8 16 -25v-6q0 -9 -4 -12q-12 -6 -54 12t-102 18q-57 0 -102 -20q-106 -49 -174 -203q-84 -192 -84 -521v-30v-39q0 -359 -35 -540q-55 -279 -207 -289q-11 -1 -21 -1 q-267 0 -403 445q-98 326 -98 623q0 59 2 119q-82 -94 -225 -496q-106 -315 -215 -631q-6 -12 -39 -20q-20 -6 -35 -4q-18 2 -16 12q20 143 39 287q32 268 32 477v35q-2 358 -30 501q-47 238 -193 308q-70 34 -149 34h-4q-227 0 -416 -215q-158 -178 -158 -358 q0 -82 45 -131q51 -55 150 -55q145 0 231 86q20 18 21 -13q0 -8 -4 -14q-33 -43 -114 -72.5t-167 -29.5q-125 0 -197 65q-80 72 -80 201z" />
<glyph unicode="X" horiz-adv-x="1957" d="M16 1378v9q0 111 144 176q129 59 307 59q303 0 461 -233q57 -86 180 -457q412 596 442 659q16 35 30 35h3q25 -6 4 -53q-16 -37 -190 -311q-170 -266 -264 -408q29 -90 53 -184q68 -252 172 -424q141 -227 307 -228q131 0 268 195q14 20 43 74q16 29 29 28q20 1 20 -22 t-36 -78q-72 -106 -115 -147q-121 -115 -273 -115h-10q-184 4 -327 207q-117 168 -181 428q-14 57 -32 145q-553 -809 -615 -872q-8 -8 -28 -8h-9q-92 10 -118 61q-10 20 8 37q156 129 395 418q201 240 348 450q-57 258 -71 316q-45 164 -103 251t-158 140q-97 51 -200 51 h-8q-150 0 -252.5 -53.5t-102.5 -139.5q0 -16 4 -32q12 -57 99 -97q76 -36 161 -36h5q39 0 40 -25q4 -23 -38 -23q-131 0 -248 52q-135 61 -144 155z" />
<glyph unicode="Y" horiz-adv-x="1744" d="M70 -137q14 270 387 350q45 10 49 -16q2 -16 -31 -23q-111 -14 -211 -86q-121 -84 -121 -192q0 -20 4 -41q29 -119 259 -189q185 -54 407 -54q29 0 59 1q256 8 428 74q193 70 232 190q14 47 14 92q0 35 -32 183q-29 138 -29 284v19q2 293 55 536q-117 -283 -233 -479 q-180 -305 -309 -305h-3q-162 4 -329 336q-106 209 -199 506q-106 344 -119 526q-2 41 8 49q6 5 19.5 5t34.5 -5q53 -12 106 -90q8 -12 47 -191q51 -233 92 -380q184 -676 344 -676q125 0 304 346q156 305 200 526q23 122 23 235q0 49 -4 95v12q0 43 28 43q6 0 13 -4 q47 -27 94 -76q54 -53 54 -89q0 -6 -1 -11q-49 -193 -88 -498q-41 -313 -41 -506q0 -88 14.5 -206.5t14.5 -161.5q0 -72 -23 -133q-117 -326 -719 -371q-51 -2 -102 -2q-299 0 -502 110q-194 106 -194 254v13z" />
<glyph unicode="Z" horiz-adv-x="1955" d="M51 -8q98 98 387 121q346 264 695 651q260 291 518 680q-131 -49 -420 -49q-78 0 -148 4q-127 8 -393 59q-240 47 -364 47q-156 -2 -207 -112q-6 -14 -19 4q-20 35 -20 80q0 63 43 102q55 51 184 51q102 0 248 -31q186 -45 371 -90q217 -53 381 -57h19q244 0 362 100 q78 68 133 68q75 0 75 -61q0 -37 -36 -91q-92 -135 -283 -338.5t-383 -410.5q-154 -170 -670 -608q19 1 39 0q125 0 271 -21q10 -2 364 -70q206 -38 328 -38h6q31 0 59 2q166 12 209 110q10 18 27.5 -19.5t17.5 -82.5q0 -35 -14 -55q-47 -68 -244 -68q-115 0 -223 18 q-86 16 -350 95q-217 66 -365 73q-24 1 -52 1q-56 0 -128 -5q-78 -66 -178 -129q-84 -55 -160 -55q-37 0 -68 14q-38 20 -38 51q0 35 26 60z" />
<glyph unicode="[" horiz-adv-x="753" d="M313 -109v1698h283v-67h-154v-1563h154v-68h-283z" />
<glyph unicode="\" horiz-adv-x="1130" d="M180 1622h74l823 -1669h-73z" />
<glyph unicode="]" horiz-adv-x="753" d="M233 -41h154v1563h-154v67h283v-1698h-283v68z" />
<glyph unicode="^" horiz-adv-x="1099" d="M156 1206l401 404l414 -404h-105l-309 221l-301 -221h-100z" />
<glyph unicode="_" horiz-adv-x="960" d="M0 -88h961v-102h-961v102z" />
<glyph unicode="`" horiz-adv-x="466" d="M80 1548q0 25 23.5 44.5t50.5 19.5t47 -41q10 -20 52 -61.5t62.5 -52.5t40.5 -19q27 -17 27 -29q0 -25 -33 -25q-51 0 -155 56q-115 61 -115 108z" />
<glyph unicode="a" horiz-adv-x="759" d="M-2 305q0 49 8 101q29 178 144 305q106 117 212 120h14q60 0 97 -30q35 -27 37 -68q0 -18 -6 -28.5t-17 -6.5q-10 6 -12 25q-6 59 -80 59q-102 0 -190 -159q-70 -127 -86 -246q-6 -57 -6 -107q0 -233 114 -233q80 0 172 61q-20 72 -30 176q-3 35 -3 77q0 56 5 124 q10 133 39 199q10 25 24 24q43 0 82 -49q25 -31 14 -57q-18 -55 -36 -172q-20 -131 -21 -230q0 -133 41 -155q16 -10 37 -10q70 0 145 104q53 78 88 170l39 -12q-18 -53 -88 -178q-109 -152 -207 -152q-82 0 -120 115q-92 -92 -191 -92h-8q-84 2 -147.5 91t-63.5 234z" />
<glyph unicode="b" horiz-adv-x="759" d="M18 193q0 219 21 595q16 260 45 478q25 190 37 202q9 9 24 8q5 0 11 -1q66 -12 73 -58q0 4 -32 -194q-41 -252 -60 -559l-2 -35q49 84 117 143q82 74 160 74h4q94 -2 143 -111q43 -90 43 -223q0 -117 -37 -248q-39 -145 -100 -223q20 -16 41 -18q8 -1 15 0q116 0 216 170 q39 70 49 104l37 -12q-10 -37 -65 -140q-124 -185 -240 -185q-10 0 -20 1q-45 6 -78 35q-48 -39 -105 -39h-10q-115 6 -178 131q0 -74 -4 -80q-10 -14 -55 -2q-25 6 -37.5 19.5t-12.5 167.5zM125 180q74 -158 166 -162h3q138 0 179 398q6 61 6 116q0 242 -88 263q-5 1 -11 1 q-47 0 -120 -75q-74 -76 -129 -176q-6 -125 -6 -284v-81z" />
<glyph unicode="c" horiz-adv-x="655" d="M6 383q10 195 125 332q94 114 181 114h7q102 -2 142 -90q16 -37 16 -84q0 -37 -10 -80q-8 -42 -33 -42q-5 0 -12 2q-51 16 -74.5 28t-21.5 27q2 8 24 20q12 8 26 48q10 28 11 53q0 10 -2 20q-12 61 -66 62q-74 0 -135 -131.5t-61 -276.5q0 -127 45 -218t115 -114 q51 -16 98 -16q125 0 209 90q45 47 90 172l41 -14q-14 -43 -82 -166q-43 -66 -123 -113q-94 -53 -197 -53q-35 0 -67 6q-96 18 -166 107q-81 105 -81 272q0 22 1 45z" />
<glyph unicode="d" horiz-adv-x="806" d="M12 305q0 49 8 101q29 178 146 305q104 115 211 120q29 2 53 -2l2 43q27 391 74 560q6 24 23 24h1q43 0 82 -49q23 -31 15 -57q-61 -207 -95 -736q-14 -229 -14 -348q0 -215 43 -231q18 -8 37 -8q78 0 158 120q51 76 75 152l39 -12q-18 -53 -88 -178q-111 -152 -213 -152 q-11 0 -22 2q-53 10 -90 113q-114 -92 -225 -92h-9q-84 2 -147.5 91t-63.5 234zM125 260q0 -225 131 -225q82 0 188 78q-25 88 -28 161q-2 65 -2 138q0 164 12 368q-8 1 -17 1q-16 0 -32 -5q-72 -20 -144 -133q-78 -121 -100 -266q-8 -63 -8 -117z" />
<glyph unicode="e" horiz-adv-x="561" d="M-12 385q4 186 112 324q96 125 197 125q94 0 94 -113q0 -88 -49 -191q-70 -139 -223 -245q20 -88 70.5 -149.5t103.5 -72.5q35 -6 61 -6q72 0 142 70q47 49 90 172l41 -14q-14 -43 -82 -166q-104 -162 -254 -162q-15 0 -31 2q-100 10 -176 96q-96 110 -96 307v23z M106 387q0 -27 5 -51q127 86 192 219q45 96 45 170q0 70 -55 70q-72 0 -131 -140q-55 -131 -56 -268z" />
<glyph unicode="f" horiz-adv-x="540" d="M14 268q0 84 41 138q2 100 8 200q20 346 105.5 612.5t181.5 266.5h2q111 0 111 -225q0 -98 -23 -213q-47 -242 -155 -392q-16 -23 -31 -22q-14 0 -16 18q0 20 18 47q82 113 131 361q27 121 27 223q0 133 -47 137h-3q-64 0 -110 -231q-37 -176 -72 -555q-6 -74 -10 -160 q39 0 64 -6q170 -51 180 -385q47 35 94 104q25 39 55 115l39 -12q-14 -43 -67 -142q-59 -80 -123 -118q-4 -160 -41 -271q-47 -137 -135 -137h-7q-131 10 -168 469q-49 72 -49 178zM170 377q0 -164 12 -318q27 -20 82 -28q11 -2 21 -2q43 0 88 28q0 109 -25 197 q-29 102 -82 125q-25 10 -48 10q-25 0 -48 -12zM188 0q14 -117 40 -193.5t46 -76.5q31 2 61 83.5t36 190.5q-43 -18 -92 -18q-43 0 -91 14z" />
<glyph unicode="g" horiz-adv-x="675" d="M-16 -276q0 72 63 129q45 41 82 51q4 2 16 -6q39 -25 60 -68q4 -10 4 -16q0 -4 -6 -4q-53 0 -103 -21q-57 -27 -57 -68t45 -77q61 -51 178 -52q119 0 178 56q43 41 45 100v6q0 32 -20 82q-37 98 -39 107q-12 39 -27 127q-90 -90 -182 -90h-8q-84 2 -143 88 q-66 94 -66 241q0 47 8 97q25 178 144 305q104 115 211 120h15q61 0 97 -30q35 -27 35 -68q2 -18 -5 -28.5t-17 -6.5q-10 6 -13 25q-4 57 -80 57q-16 0 -32 -4q-72 -20 -144 -127q-82 -121 -98 -272q-6 -55 -6 -105q0 -235 113 -235h1q72 0 162 59q-22 78 -22 219q0 43 2 93 q10 290 63 290q45 0 82 -49q25 -31 17 -57q-33 -92 -48 -252q-7 -78 -7 -149q0 -123 22 -224q8 -29 47 -112q29 -62 29 -107v-6q-4 -86 -95.5 -140.5t-214.5 -54.5q-121 0 -203.5 49.5t-82.5 127.5z" />
<glyph unicode="h" horiz-adv-x="770" d="M16 131q0 322 23 643q33 543 78 692q3 10 19 10q18 0 52 -12q23 -8 34 -30.5t7 -36.5q-55 -180 -82 -561q-17 -233 -17 -429q0 -77 3 -147q0 -18 4 -70q20 76 88 242q61 143 131 270t93 129q6 1 12 1q23 0 53 -18q38 -23 47 -48q4 -10 -8 -39q-82 -180 -111 -328 q-14 -66 -14 -141q0 -205 59 -231q23 -8 45 -9q100 0 187 129q51 76 76 152l39 -12q-18 -53 -89 -178q-39 -53 -106 -99q-78 -53 -141 -53q-143 0 -150 319v26q0 184 53 388q-37 -68 -137 -278q-66 -156 -127 -377q-4 -20 -18 -45h-1q-10 0 -83 59q-18 16 -19 82z" />
<glyph unicode="i" horiz-adv-x="413" d="M25 274q-2 56 -2 108q0 272 53 425q10 27 24 27q45 0 82 -50q23 -31 17 -57q-39 -139 -58 -358q-6 -76 -6 -140q0 -176 45 -196q14 -6 31 -6q72 0 151 120q51 76 76 152l39 -12q-18 -53 -88 -178q-45 -61 -108 -107q-64 -45 -110 -45q-9 0 -17 2q-49 12 -84 86 q-41 88 -45 229zM74 1006q0 53 19.5 91t45.5 38q27 0 46.5 -38t19.5 -91t-19.5 -91t-46.5 -38t-46 37.5t-19 91.5z" />
<glyph unicode="j" horiz-adv-x="393" d="M-274 -313q0 72 63 129q45 41 82 51q4 2 16 -6q39 -25 60 -68q4 -10 4 -16q0 -4 -6 -4q-53 0 -103 -21q-57 -27 -57 -67q0 -39 45 -76q61 -47 178 -47q199 0 219 151q1 5 1 11q0 33 -19 94q-37 102 -41 125q-51 223 -51 497q-29 -106 -86 -229l-31 29q20 45 74 206 q55 186 73 312q4 25 25 24q43 0 82 -49q25 -31 14 -57q-37 -111 -41 -336q-1 -35 -1 -67q0 -218 24 -306q4 -20 49 -141q26 -69 26 -107q0 -8 -1 -14q-14 -88 -101.5 -138t-210.5 -50q-121 0 -200 45q-86 47 -86 125zM141 1006q0 53 19.5 91t46.5 38t46 -38t19 -91 t-19.5 -91t-45.5 -38q-27 0 -46.5 37.5t-19.5 91.5z" />
<glyph unicode="k" horiz-adv-x="774" d="M10 133q2 45 10 154q4 162 19 489q39 643 55 668q7 10 22 10q12 0 29 -6q60 -22 60 -52l-39 -534q-29 -435 -29 -584v-18q0 -18 4 -70q20 76 88 242q92 217 162 320q29 43 74 75q53 41 96 41q16 0 29 -6q35 -18 35 -96q0 -84 -35 -172q-39 -98 -201 -272q-2 -19 -2 -38 q0 -79 33 -157q35 -84 72 -100q23 -8 45 -9q100 0 186 129q51 76 76 152l39 -12q-18 -53 -88 -178q-39 -53 -107 -99q-78 -53 -141 -53q-16 0 -31 4q-59 16 -121 84q-76 88 -94 207q-6 37 -2 47t31 35l4 2q39 37 80 72q63 57 106 116q106 150 107 256q0 45 -31 45 q-51 0 -121 -98q-76 -104 -162 -315q-72 -178 -127 -377q-4 -20 -18 -45h-1q-10 0 -83 59q-31 26 -31 64q0 10 2 20z" />
<glyph unicode="l" horiz-adv-x="442" d="M-6 664q8 270 98 512q83 227 160 227h6q80 -8 80 -227q0 -115 -25 -248q-23 -117 -71 -228q-41 -90 -76 -131q-6 -6 -12 -4q-8 4 -9 15q0 6 7 14q55 86 104 354q31 172 31 279q0 115 -39 119h-1q-49 0 -85 -240q-35 -217 -41 -512q-1 -49 -1 -94q0 -181 19 -303 q25 -141 66 -156q18 -6 37 -6q82 0 159 127q27 47 66 137l39 -14q-8 -27 -41 -97q-55 -98 -94 -141q-76 -86 -166 -86q-23 0 -45 6q-96 20 -137 238q-30 150 -30 364q0 46 1 95z" />
<glyph unicode="m" horiz-adv-x="1064" d="M6 133q0 2 10 170q6 129 45 307q35 164 54 187q6 8 24 8q64 0 64 -43q0 -25 -27 -180q-37 -203 -37 -322q2 -16 6 -94q29 78 101 246q164 332 198 338q23 4 48 -11q35 -16 49 -51q0 -2 -9 -39q-14 -61 -45 -352l-4 -35q29 84 60 170q47 119 123.5 258t99.5 141q6 1 12 1 q22 0 52 -18q38 -23 49 -48q6 -14 -9 -39q-61 -117 -110 -328q-20 -84 -21 -184q0 -166 56 -190q16 -6 36 -7q98 0 185 129q51 76 76 152l38 -12q-18 -53 -88 -178q-111 -154 -229 -154q-147 0 -154 324v26q0 178 50 369q-37 -53 -129 -258q-76 -199 -119 -422 q-2 -18 -29 -17q-29 2 -57.5 25t-26.5 49q4 76 17 271q6 80 36 305l-118 -232q-57 -111 -138 -360q-4 -20 -20 -45h-1q-8 0 -58 33q-62 40 -62 92q0 9 2 18z" />
<glyph unicode="n" horiz-adv-x="757" d="M6 133q2 53 10 170q12 135 47 309t52 195q6 6 18 6q70 0 70 -51q0 -25 -27 -180q-37 -203 -37 -322q2 -23 2 -80q20 63 101 260q59 143 122.5 264t84.5 127q5 2 12 2q12 0 28 -6q61 -20 80 -61q4 -10 -8 -39q-127 -299 -127 -491q0 -178 45 -201q20 -10 43 -10 q102 0 185 122q51 76 75 152l39 -12q-20 -53 -88 -178q-41 -55 -100 -101q-74 -53 -135 -53q-92 0 -125 127q-14 61 -19 194q0 98 21 242q18 119 37 180q-35 -61 -133 -274q-82 -199 -134 -389q-4 -20 -20 -45h-1q-8 0 -58 33q-62 40 -62 92q0 9 2 18z" />
<glyph unicode="o" horiz-adv-x="741" d="M14 334q0 182 97.5 338.5t216.5 156.5q115 0 182 -127q65 -117 65 -301v-6q0 -162 -53 -274q133 0 199 88q25 33 45 90l39 -12q-8 -29 -51 -107q-75 -106 -215 -106q-20 0 -41 2q-68 -104 -176 -113q-11 -1 -22 -1q-122 0 -206 124q-80 115 -80 248zM88 266 q0 -109 59 -182q55 -66 127 -72h1q57 0 118 97q-102 55 -153 204q-41 113 -41 226q0 37 6 65q-98 -162 -115 -295q-2 -23 -2 -43zM254 551q0 -125 31 -211q51 -145 131 -188q78 136 78 372q0 227 -109 240q-5 1 -10 1q-52 0 -90 -56q-31 -47 -31 -158z" />
<glyph unicode="p" horiz-adv-x="755" d="M-2 -276q0 236 22 585q8 145 37 334q29 182 40.5 192.5t31.5 6.5q66 -12 76 -58l-35 -157q123 217 240 219h3q92 0 142 -109q41 -90 41 -225q0 -117 -35 -248q-39 -145 -102 -223q20 -16 41 -18q8 -1 16 -1q117 0 215 171q39 70 51 104l37 -12q-12 -37 -65 -140 q-126 -185 -242 -185q-10 0 -20 1q-45 6 -78 35q-48 -39 -105 -39h-10q-123 6 -184 147q-4 -285 -11 -573q-6 -9 -23 -9q-13 0 -32 5q-27 8 -39 21.5t-12 175.5zM119 184q76 -162 166 -166h3q140 0 179 398q6 63 6 121q0 246 -88 258h-5q-40 0 -114 -97q-70 -90 -119 -194 q-14 -90 -22 -197q-4 -61 -6 -123z" />
<glyph unicode="q" horiz-adv-x="792" d="M2 309q0 47 8 97q27 178 144 305q104 115 211 120h14q70 0 106 -36q8 37 15 44q5 4 16 4q6 0 14 -1q66 -12 74 -58l-35 -180q-41 -207 -47 -377q-2 -49 -6 -207q109 0 193 89q39 41 90 145q6 14 18 45l39 -14q-6 -16 -29 -68q-43 -92 -84 -141q-47 -51 -133 -103 q86 -56 86 -209v-14q-4 -113 -44 -178.5t-99 -75.5q-7 -1 -14 -1q-43 0 -82 42q-37 39 -43 76q-17 87 -17 169v9q0 33 11 285q-85 -96 -187 -96h-8q-86 2 -145 88q-66 94 -66 241zM117 272q0 -235 113 -235h1q76 0 162 59q6 4 17 10q4 100 12 203q12 205 51 428 q-20 43 -76 43q-16 0 -32 -4q-72 -20 -144 -127q-82 -121 -98 -272q-6 -55 -6 -105zM510 -274q4 -156 39 -162q6 -1 11 -1q39 0 65 52q24 53 24 131q0 147 -67 178q-10 5 -23 5q-19 0 -45 -11l-4 -194v2z" />
<glyph unicode="r" horiz-adv-x="645" d="M4 248q27 51 94 289q24 104 24 208q0 15 -1 31q-31 35 -31 74q4 72 61 72h3q55 -2 59 -86q4 -90 41 -115q20 -12 39 -12q23 0 39 20q27 35 49 29q47 -16 59 -49q6 -12 -6 -39q-66 -141 -84 -271q-12 -86 -12 -166q0 -170 55 -194q20 -10 43 -10q80 0 160 118 q51 76 76 152l39 -12q-224 -333 -322 -333q-4 0 -8 1q-111 18 -133 319q-4 50 -4 98q0 154 39 292q-45 8 -80 49q-8 -49 -43 -191q-55 -176 -125 -303z" />
<glyph unicode="s" horiz-adv-x="692" d="M2 238q47 113 96 278q43 150 72 303q-14 51 -14 78q6 74 47 80q9 2 16 2q51 0 57 -70q2 -18 -12 -57q-14 -45 -16 -57q-2 -17 -2 -33q0 -67 33 -125l114 -148q86 -121 86 -229q0 -156 -110 -242q28 -26 70 -26q15 0 32 4q106 25 217 231q16 29 31 74l39 -14 q-6 -18 -39 -92q-102 -221 -268 -246q-11 -2 -22 -2q-57 0 -103 45q-39 -20 -82 -25q-14 -1 -28 -1q-104 0 -171 79q-29 33 -29 76q0 29 17 51q23 31 76 31q37 0 73 -17q68 -31 103 -86q53 49 57 156v22q0 92 -29 175q-12 39 -69 153q-29 55 -41 105q-18 -57 -64 -201 q-59 -205 -96 -279zM72 141q0 -39 45 -57q33 -14 65 -14q30 0 58 12q-10 29 -74 68q-25 12 -53 16h-7q-25 0 -32 -12q-2 -4 -2 -13z" />
<glyph unicode="t" horiz-adv-x="557" d="M8 256q49 106 98 303q10 43 25 197q14 135 14 182l-49 -2h-5q-39 0 -50 29q-2 5 -2 8q0 20 51 20h4h60q39 264 73 264q59 0 97 -45q25 -33 14 -59q-14 -61 -39 -160h150q31 0 26 -24q-2 -18 -29 -21l-161 -6q-68 -289 -68 -653q0 -219 55 -250q25 -14 54 -14 q100 0 182 122q49 76 74 152l39 -12q-18 -53 -89 -178q-39 -53 -108 -101q-80 -53 -145 -53q-160 0 -170 375v76q-25 -86 -70 -181z" />
<glyph unicode="u" horiz-adv-x="751" d="M18 352q0 88 15 240q16 184 39 225q6 9 20 9q11 0 27 -5q61 -20 78 -61q6 -12 -7 -39q-61 -141 -79 -324q-8 -74 -9 -151q0 -193 43 -211q12 -6 27 -6q53 0 115 71q51 61 69 121q16 45 27 320q8 168 25 223q8 25 24 24q43 0 82 -49q20 -27 16 -57q-51 -266 -61 -387 q-4 -59 -4 -104q0 -139 41 -156q16 -6 33 -6q84 0 161 118q51 76 76 152l39 -12q-18 -53 -88 -178q-109 -152 -213 -152q-11 0 -22 2q-74 12 -111 186q-39 -68 -105 -122q-76 -64 -138 -64h-7q-113 10 -113 393z" />
<glyph unicode="v" horiz-adv-x="686" d="M-37 743q0 14 12 31q35 45 76 51q20 2 21 -16q2 -90 51 -379q23 -129 57 -252q43 -147 70 -147q37 0 129 178q-59 104 -60 276q0 31 3 64q10 152 59 244q42 80 90 79h8q57 -8 58 -165q0 -117 -31 -267q-27 -123 -80 -227q23 -37 59.5 -54.5t71.5 -17.5q80 0 125 88 q14 31 31 72l39 -12q-10 -27 -37 -88q-51 -102 -160 -103q-35 0 -70 13q-49 20 -82 59q-121 -219 -176 -219q-53 0 -118 121q-68 129 -105 319q-41 219 -41 352zM369 502q0 -147 34 -242q37 63 60 186q33 172 33 283q0 90 -27 92h-3q-29 0 -58 -63q-27 -57 -33 -126t-6 -130 z" />
<glyph unicode="w" horiz-adv-x="985" d="M-41 743q0 14 12 31q35 45 76 51q20 2 21 -16q4 -133 45 -379q66 -385 112 -385q43 0 135 371q-36 194 -36 320v7q0 14 14 31q33 45 74 51q20 2 20 -16q6 -139 47 -381q20 -125 39 -252q29 -145 51 -145q33 0 109 178q-57 104 -57 276q0 31 2 64q10 152 59 244 q42 80 88 79h8q51 -8 51 -133q0 -111 -36 -290q-23 -106 -66 -236q23 -37 59.5 -54.5t71.5 -17.5q78 0 123 88q16 31 31 72l39 -12q-10 -27 -37 -88q-49 -102 -160 -103q-33 0 -68 13q-51 20 -81 59q-86 -219 -156 -219q-88 0 -172 385q-88 -385 -174 -385q-51 0 -108.5 122 t-94.5 318q-41 219 -41 352zM664 483q0 -117 41 -223q18 68 49 191q39 188 39 294q0 74 -23 76h-4q-31 0 -55 -63q-25 -55 -35 -125q-12 -82 -12 -150z" />
<glyph unicode="x" horiz-adv-x="798" d="M10 264q33 84 96 268q78 246 99 287q2 6 33 17q42 14 72 14q12 0 22 -2q18 -2 14 -17q-39 -96 -39 -233q0 -98 21 -219q29 45 57 90q78 115 270 350q12 14 23 6q12 -10 -8 -34q-133 -168 -236 -334q-43 -74 -90 -162q35 -113 98 -195q72 -92 150 -92q14 0 26 4 q47 10 113 107q57 84 82 155q14 41 35 29q11 -6 11 -17q0 -3 -1 -7q-23 -76 -88 -179q-82 -129 -156 -145q-25 -6 -49 -6q-168 0 -278 225q-63 -135 -88 -211q-2 -8 -17 -8q-23 4 -48 24.5t-17 40.5q20 57 135 240q-51 160 -51 342q0 47 4 84l-158 -440z" />
<glyph unicode="y" horiz-adv-x="653" d="M-18 -276q0 72 63 129q45 41 82 51q4 2 16 -6q39 -25 60 -68q4 -10 4 -16q0 -4 -6 -4q-53 0 -103 -21q-57 -27 -57 -68q0 -39 45 -75q61 -47 178 -47q211 0 223 149v7q0 33 -16 79q-37 86 -43 109q-18 61 -43 237q-35 -76 -104 -143q-78 -78 -142 -78h-6q-94 8 -110 317 q-2 28 -2 65q0 87 10 222q18 221 47 271q4 8 17 8q11 0 28 -6q61 -20 78 -62q6 -14 -6 -39q-47 -90 -84 -334q-10 -68 -11 -151q0 -197 45 -215q12 -4 25 -4q51 0 113 78q51 68 77 141q10 27 35 299q20 233 58 233q45 0 82 -49q25 -33 16 -57q-45 -127 -64 -336 q-8 -79 -8 -147q0 -136 31 -226q25 -59 50 -121q21 -49 21 -87q0 -9 -1 -17q-14 -90 -105 -141q-82 -47 -207 -47q-121 0 -200 45q-86 47 -86 125z" />
<glyph unicode="z" horiz-adv-x="745" d="M4 248q35 88 105 297q33 127 81 270q12 12 104.5 28.5t158.5 16.5q31 0 47 -6q57 -16 80 -45q35 -44 35 -75q0 -5 -1 -11q-6 -35 -16 -55q-80 -178 -223 -385h13q63 0 104 -35q57 -47 57 -162q0 -23 -2 -49q76 25 127 84t98 178l37 -10q-4 -20 -31 -84 q-49 -100 -110 -154q-55 -45 -129 -65q-31 -168 -111 -293q-51 -82 -130 -136.5t-136 -54.5q-70 0 -70 82q0 119 127 258q55 61 131 103q68 33 133 63v11q0 55 -18 87q-40 68 -151 68h-19q-61 -82 -117 -127q-63 -53 -119 -53q-37 0 -36 43q0 53 65 115q76 70 197 112 q80 152 153 330q59 148 59 176q0 4 -1 6q-6 8 -35 8q-49 0 -132 -17t-93 -28q-16 -14 -74 -180q-109 -313 -131 -350zM72 49q0 -12 10 -12q33 0 88 53q45 41 70 80q-70 -20 -117 -55q-51 -41 -51 -66zM170 -362q0 -61 49 -62q72 0 162 127q77 111 102 258 q-166 -74 -219 -135q-94 -106 -94 -188z" />
<glyph unicode="{" horiz-adv-x="874" d="M113 733v78q156 25 213 74q68 61 67 215v133q0 117 8 149q18 74 93 134q94 80 278 79v-47q-158 -27 -209 -83t-51 -214v-129q0 -100 -6 -135q-18 -78 -84 -123q-82 -59 -262 -90q197 -27 266 -86q86 -72 86 -258v-129q0 -96 8 -127q18 -70 87 -116t165 -56v-47 q-207 0 -309 104q-49 53 -64 117q-6 35 -6 139v129q0 96 -8 127q-16 70 -82 111q-51 31 -190 51z" />
<glyph unicode="|" horiz-adv-x="536" d="M238 -113v1702h81v-1702h-81z" />
<glyph unicode="}" horiz-adv-x="874" d="M133 2q96 10 165 56t87 116q6 31 6 127v129q0 186 88 258q70 59 266 86q-182 31 -264 90q-63 45 -82 123q-8 35 -8 135v129q0 158 -50 214.5t-208 82.5v47q182 0 279 -79q74 -59 92 -134q8 -33 8 -149v-133q0 -154 68 -215q55 -49 213 -74v-78q-139 -20 -191 -51 q-66 -41 -84 -111q-6 -31 -6 -127v-129q0 -104 -8 -139q-12 -63 -62 -117q-102 -104 -309 -104v47z" />
<glyph unicode="~" horiz-adv-x="778" d="M72 1413q33 68 67 96q53 41 146 33q45 -6 121.5 -45t125.5 -45q41 -4 72 14.5t35 44.5l57 -6q-72 -145 -209 -131q-49 4 -131 46t-120 46q-57 6 -107 -59z" />
<glyph unicode="&#xa1;" horiz-adv-x="483" d="M129 6q45 203 68 629q20 369 12 676q0 39 45 39q35 0 31 -41q-8 -166 -27 -1348q0 -25 -33 -24q-35 0 -68.5 21.5t-27.5 47.5zM195 1532q0 88 55 88q57 0 57 -88t-57 -88q-55 0 -55 88z" />
<glyph unicode="&#xa2;" horiz-adv-x="1228" d="M55 727q0 238 187 416q180 172 428 196l22 191q6 59 43 59q49 0 41 -59l-20 -189q248 -4 293 -110q37 4 49 -10q25 -25 20 -47q-2 -10 -30.5 -11.5t-47.5 -21.5q-20 -27 -65 -76q-57 -47 -101 -47q-18 0 -32 12q-8 6 -22.5 38t-14.5 52q0 23 22 15q31 -8 62 6 q31 27 102 71l8 5q-12 27 -72.5 45t-133.5 18q-20 0 -43 -2l-109 -1002q393 -12 467 209q4 16 20 17q33 0 21 -29q-8 -33 -37 -82q-51 -86 -160 -141q-135 -70 -321 -66l-21 -178q-4 -35 -55 -35q-33 0 -31 35l21 184q-174 25 -309 146q-145 127 -173 307q-8 41 -8 84z M129 698q0 -166 133 -282q119 -104 293 -131l109 981q-215 -47 -375 -216t-160 -352z" />
<glyph unicode="&#xa3;" horiz-adv-x="1105" d="M127 809q0 31 41 31h178q-20 217 45 372q84 201 285 201q113 0 191.5 -55t78.5 -139q0 -43 -26.5 -73t-69.5 -30q-31 0 -56.5 22.5t-25.5 55.5q0 53 59 76q-6 53 -51 80.5t-100 27.5q-143 0 -166 -207q-14 -121 12 -331h246q33 0 33 -27q0 -37 -33 -37h-233q6 -66 6 -129 q0 -199 -72 -340q45 -18 90 -37q57 -20 105 -22q262 -12 358 170l25 -15q-74 -281 -388 -280q-70 0 -135 37q-10 6 -102 69q-61 -80 -135 -90q-61 -8 -101.5 20.5t-40.5 84.5q0 43 43 73.5t111 30.5q39 0 76 -10q23 154 -17 438h-190q-41 0 -41 33zM190 240q0 -31 26 -49.5 t63 -10.5q63 12 81 86q-43 33 -81 35q-35 2 -62 -15.5t-27 -45.5z" />
<glyph unicode="&#xa4;" horiz-adv-x="1462" d="M70 614q0 29 30 29h219q-12 82 0 160h-174q-12 0 -22 16.5t-10 34.5q0 31 32 31h193q59 199 248.5 328.5t410.5 127.5q264 0 310 -110q37 4 49 -10q25 -25 20 -47q-2 -10 -30.5 -11.5t-47.5 -21.5q-20 -27 -65 -76q-57 -47 -100 -47q-18 0 -33 12q-8 6 -22.5 38t-14.5 52 q0 23 22 15q31 -8 62 6q31 27 104 71l6 5q-12 27 -72.5 45t-133.5 18q-190 0 -371 -117q-170 -115 -248 -278h426q25 0 25 -37q0 -45 -25 -45h-457q-23 -82 -10 -160h424q23 0 23 -37q0 -43 -23 -43h-401q53 -129 190 -207q127 -72 283 -77q403 -18 479 206q4 16 20 17 q33 0 21 -29q-8 -33 -37 -82q-51 -84 -153 -137q-129 -70 -310 -70q-190 0 -344 99q-164 102 -223 280h-240q-10 0 -20 16.5t-10 34.5z" />
<glyph unicode="&#xa7;" horiz-adv-x="911" d="M82 801q0 123 71.5 193.5t196.5 76.5q-106 98 -131 127q-66 82 -65 166q0 123 85 196.5t210 73.5q102 0 182 -51q92 -59 92 -156q0 -45 -29.5 -75.5t-72.5 -30.5q-39 0 -69 23.5t-30 60.5t34 71.5t34 51.5q0 35 -55 55q-41 16 -84 16q-74 0 -125.5 -49t-51.5 -120 q0 -109 144 -236q135 -109 268 -217q145 -129 145 -240q0 -129 -75.5 -197.5t-204.5 -68.5q96 -94 129 -137q66 -88 65 -172q0 -125 -98 -199q-88 -66 -217 -65q-106 0 -186 51q-92 59 -92 160q0 49 30.5 81.5t79.5 32.5q41 0 69.5 -25.5t28.5 -64.5q0 -43 -36.5 -76.5 t-36.5 -52.5q0 -33 59 -53q47 -16 88 -17q76 0 131 39q63 43 64 117q0 133 -142 264q-133 106 -264 211q-141 123 -141 236zM182 872q0 -94 147.5 -227t245.5 -133q63 0 103.5 47t40.5 113q0 98 -152 227q-147 123 -233 123q-61 0 -106.5 -45t-45.5 -105z" />
<glyph unicode="&#xa8;" horiz-adv-x="505" d="M84 1550q0 35 19.5 59.5t46.5 24.5t46 -24.5t19 -59.5q0 -33 -19.5 -57.5t-45.5 -24.5q-27 0 -46.5 25t-19.5 57zM315 1550q0 35 19.5 59.5t46.5 24.5t46 -24.5t19 -59.5q0 -33 -19 -57.5t-46 -24.5t-46.5 25t-19.5 57z" />
<glyph unicode="&#xa9;" horiz-adv-x="1601" d="M84 696q0 289 207 498t497 209q311 0 521.5 -206t210.5 -517q0 -299 -206 -501t-507 -202q-307 0 -515 206t-208 513zM158 698q0 -270 187 -457.5t456 -187.5q272 0 458.5 182.5t186.5 450.5q0 272 -190.5 455.5t-462.5 183.5q-256 0 -445.5 -186.5t-189.5 -440.5z M371 717q0 172 118.5 307t290.5 135q63 0 156.5 -38t95.5 -38q47 0 55 68h41v-348h-38q-72 307 -289 307q-139 0 -205 -139q-49 -106 -49 -262t61 -260q74 -123 219 -123q160 0 283 190l39 -22q-68 -121 -143 -177q-86 -61 -213 -61q-186 0 -308 139q-115 131 -114 322z" />
<glyph unicode="&#xab;" horiz-adv-x="862" d="M72 725l323 375h47l-229 -375l229 -371h-47zM317 725l324 375h47l-229 -375l229 -371h-47z" />
<glyph unicode="&#xad;" horiz-adv-x="849" d="M170 539q18 41 55 41h428q33 0 21 -35q-20 -51 -62 -51h-428q-31 0 -14 45z" />
<glyph unicode="&#xae;" horiz-adv-x="1019" d="M59 1130q0 176 127 306.5t303 130.5q197 0 327 -129t130 -324q0 -186 -131 -309t-315 -123q-188 0 -314.5 130t-126.5 318zM104 1128q0 -168 116 -283.5t286 -115.5q164 0 278.5 113.5t114.5 277.5q0 170 -117.5 285t-287.5 115q-158 0 -274 -117t-116 -275zM252 872v27 q49 0 61 6q27 8 27 49v344q0 43 -25 56q-16 6 -63 6v31h215q254 0 254 -129q0 -59 -59 -97q-47 -29 -115 -37q104 -47 129 -161q16 -66 35 -66q45 0 49 94h31q-8 -135 -113 -135q-78 0 -92 68q-6 61 -15 125q-23 66 -118 65h-29v-162q0 -41 27 -51q10 -6 61 -6v-27h-260z M424 1149h45q147 0 147 115q0 98 -122 98q-70 0 -70 -62v-151z" />
<glyph unicode="&#xaf;" horiz-adv-x="528" d="M78 1569v26q0 12 26 27h320q27 0 27 -27v-26q0 -27 -27 -27h-320q-27 0 -26 27z" />
<glyph unicode="&#xb0;" horiz-adv-x="413" d="M-104 1124l159 33l-26 70l71 -25l31 160l33 -160l78 35l-35 -78l842 -20q10 0 10 -9q0 -10 -10 -10l-842 -26l39 -80l-82 37l-31 -160l-33 160l-73 -27l28 70zM25 274q-12 350 51 533q10 27 24 27q45 0 82 -50q25 -31 17 -57q-63 -203 -64 -496q0 -178 45 -198 q14 -6 31 -6q72 0 151 120q51 76 76 152l39 -12q-18 -53 -88 -178q-45 -61 -108 -107q-76 -53 -127 -43q-49 12 -84 86q-41 88 -45 229z" />
<glyph unicode="&#xb4;" horiz-adv-x="407" d="M47 1407q0 18 56.5 42t125.5 122q29 41 45 41q27 0 51.5 -20.5t24.5 -47.5q0 -45 -114 -104q-104 -57 -158 -58q-31 0 -31 25z" />
<glyph unicode="&#xb6;" horiz-adv-x="1024" d="M100 1040q0 143 98.5 231.5t264.5 88.5h461v-113h-113v-1247h-59v1247h-164v-1247h-144v721q-158 6 -251 93t-93 226z" />
<glyph unicode="&#xb7;" horiz-adv-x="358" d="M135 567q0 86 55 86q56 0 56 -86q0 -88 -56 -88q-55 0 -55 88z" />
<glyph unicode="&#xb8;" horiz-adv-x="430" d="M76 -272q0 27 20 26q12 0 25.5 -20.5t28.5 -20.5q41 0 81.5 61.5t28.5 92.5q-6 10 -33 4q-25 -6 -41 -21q-4 -2 -10 0q-33 14 -33 31q0 10 19 25q27 20 69 94h74q-23 -27 -63 -80q90 10 90 -76q0 -61 -50.5 -121.5t-109.5 -62.5q-35 0 -61 16q-35 20 -35 52z" />
<glyph unicode="&#xbb;" horiz-adv-x="888" d="M209 342l229 371l-229 374h47l324 -374l-324 -371h-47zM432 342l230 371l-230 374h47l324 -374l-324 -371h-47z" />
<glyph unicode="&#xbf;" horiz-adv-x="811" d="M70 70q0 80 86 213q53 86 108 171t78 140q57 139 57 618q0 10 21 29q27 25 33 -4q18 -102 18 -377q0 -199 -25 -276q-14 -43 -86 -144q-98 -133 -122 -174q-102 -168 -103 -219q0 -43 43 -43q61 0 188.5 153.5t178.5 254.5q6 14 47 10q37 -4 57.5 -15.5t12.5 -31.5 q-14 -39 -74 -117q-70 -92 -144 -160q-160 -141 -266 -141q-47 0 -77.5 31.5t-30.5 81.5zM381 1407q0 88 55 88q56 0 56 -88q0 -86 -56 -86q-55 0 -55 86z" />
<glyph unicode="&#xc0;" horiz-adv-x="2166" d="M55 653q4 365 298 641.5t753 333.5q78 8 151 8q375 0 553 -217q33 -41 15 -61q-14 -16 -56 28q-170 184 -479 185q-72 0 -149 -10q-420 -57 -713 -359q-260 -268 -281 -561q-20 -264 164 -440q219 -207 656 -207q346 0 559 172q162 131 219 334q37 121 37 315 q0 86 -8.5 200.5t-8.5 123.5q0 31 17 49q39 43 102 74q35 18 45 6q12 -10 13 -133q0 -127 -17 -473q-14 -332 -12 -396q2 -131 12 -169t41 -42q43 -6 113 72q68 72 110 164q14 29 33 22q22 -10 8 -41q-47 -102 -133 -206q-102 -121 -166 -115q-129 14 -135 287q-2 70 -4 208 q-86 -240 -291 -397q-229 -174 -528 -174q-375 4 -645 225q-276 229 -273 553zM1073 1929q0 25 23.5 44.5t48.5 19.5q29 0 47 -39q10 -20 55 -64q39 -39 59.5 -50t41.5 -21q28 -15 28 -29q0 -25 -35 -25q-51 0 -155 58q-113 61 -113 106z" />
<glyph unicode="&#xc1;" horiz-adv-x="2166" d="M55 653q4 365 298 641.5t753 333.5q78 8 151 8q375 0 553 -217q33 -41 15 -61q-14 -16 -56 28q-170 184 -479 185q-72 0 -149 -10q-420 -57 -713 -359q-260 -268 -281 -561q-20 -264 164 -440q219 -207 656 -207q346 0 559 172q162 131 219 334q37 121 37 315 q0 86 -8.5 200.5t-8.5 123.5q0 31 17 49q39 43 102 74q35 18 45 6q12 -10 13 -133q0 -127 -17 -473q-14 -332 -12 -396q2 -131 12 -169t41 -42q43 -6 113 72q68 72 110 164q14 29 33 22q22 -10 8 -41q-47 -102 -133 -206q-102 -121 -166 -115q-129 14 -135 287q-2 70 -4 208 q-86 -240 -291 -397q-229 -174 -528 -174q-375 4 -645 225q-276 229 -273 553zM1178 1786q0 16 56 40.5t126 123.5q29 39 45 39q27 0 51.5 -19.5t24.5 -46.5q0 -45 -115 -106q-104 -55 -158 -56q-31 0 -30 25z" />
<glyph unicode="&#xc2;" horiz-adv-x="2166" d="M55 653q4 365 298 641.5t753 333.5q78 8 151 8q375 0 553 -217q33 -41 15 -61q-14 -16 -56 28q-170 184 -479 185q-72 0 -149 -10q-420 -57 -713 -359q-260 -268 -281 -561q-20 -264 164 -440q219 -207 656 -207q346 0 559 172q162 131 219 334q37 121 37 315 q0 86 -8.5 200.5t-8.5 123.5q0 31 17 49q39 43 102 74q35 18 45 6q12 -10 13 -133q0 -127 -17 -473q-14 -332 -12 -396q2 -131 12 -169t41 -42q43 -6 113 72q68 72 110 164q14 29 33 22q22 -10 8 -41q-47 -102 -133 -206q-102 -121 -166 -115q-129 14 -135 287q-2 70 -4 208 q-86 -240 -291 -397q-229 -174 -528 -174q-375 4 -645 225q-276 229 -273 553zM1087 1790q0 23 46 47q72 35 124 102q35 43 78 43q23 0 32 -18t17 -39q31 -76 103 -108q18 -9 18 -21q0 -33 -61 -33q-111 0 -172 135q-100 -131 -164 -131q-20 0 -21 23z" />
<glyph unicode="&#xc3;" horiz-adv-x="2166" d="M55 653q4 365 298 641.5t753 333.5q78 8 151 8q375 0 553 -217q33 -41 15 -61q-14 -16 -56 28q-170 184 -479 185q-72 0 -149 -10q-420 -57 -713 -359q-260 -268 -281 -561q-20 -264 164 -440q219 -207 656 -207q346 0 559 172q162 131 219 334q37 121 37 315 q0 86 -8.5 200.5t-8.5 123.5q0 31 17 49q39 43 102 74q35 18 45 6q12 -10 13 -133q0 -127 -17 -473q-14 -332 -12 -396q2 -131 12 -169t41 -42q43 -6 113 72q68 72 110 164q14 29 33 22q22 -10 8 -41q-47 -102 -133 -206q-102 -121 -166 -115q-129 14 -135 287q-2 70 -4 208 q-86 -240 -291 -397q-229 -174 -528 -174q-375 4 -645 225q-276 229 -273 553zM1067 1774q0 39 46 89t89 50q31 0 76 -34t70 -34q35 0 57 39t33 39q18 0 18 -27q0 -49 -37 -100t-84 -51q-29 0 -80 36t-73 36q-31 0 -63 -34t-34 -34q-18 0 -18 25z" />
<glyph unicode="&#xc4;" horiz-adv-x="2166" d="M55 653q4 365 298 641.5t753 333.5q78 8 151 8q375 0 553 -217q33 -41 15 -61q-14 -16 -56 28q-170 184 -479 185q-72 0 -149 -10q-420 -57 -713 -359q-260 -268 -281 -561q-20 -264 164 -440q219 -207 656 -207q346 0 559 172q162 131 219 334q37 121 37 315 q0 86 -8.5 200.5t-8.5 123.5q0 31 17 49q39 43 102 74q35 18 45 6q12 -10 13 -133q0 -127 -17 -473q-14 -332 -12 -396q2 -131 12 -169t41 -42q43 -6 113 72q68 72 110 164q14 29 33 22q22 -10 8 -41q-47 -102 -133 -206q-102 -121 -166 -115q-129 14 -135 287q-2 70 -4 208 q-86 -240 -291 -397q-229 -174 -528 -174q-375 4 -645 225q-276 229 -273 553zM973 1847q0 35 19.5 58.5t45.5 23.5q29 0 48.5 -23.5t19.5 -58.5t-19.5 -59.5t-48.5 -24.5q-27 0 -46 24.5t-19 59.5zM1204 1847q0 35 19.5 58.5t46.5 23.5q29 0 48 -23.5t19 -58.5t-19.5 -59.5 t-47.5 -24.5q-27 0 -46.5 24.5t-19.5 59.5z" />
<glyph unicode="&#xc5;" horiz-adv-x="2166" d="M55 653q4 365 298 641.5t753 333.5q78 8 151 8q375 0 553 -217q33 -41 15 -61q-14 -16 -56 28q-170 184 -479 185q-72 0 -149 -10q-420 -57 -713 -359q-260 -268 -281 -561q-20 -264 164 -440q219 -207 656 -207q346 0 559 172q162 131 219 334q37 121 37 315 q0 86 -8.5 200.5t-8.5 123.5q0 31 17 49q39 43 102 74q35 18 45 6q12 -10 13 -133q0 -127 -17 -473q-14 -332 -12 -396q2 -131 12 -169t41 -42q43 -6 113 72q68 72 110 164q14 29 33 22q22 -10 8 -41q-47 -102 -133 -206q-102 -121 -166 -115q-129 14 -135 287q-2 70 -4 208 q-86 -240 -291 -397q-229 -174 -528 -174q-375 4 -645 225q-276 229 -273 553zM1100 1917q0 61 42 104t103 43t104.5 -43t43.5 -104t-43 -104.5t-105 -43.5q-61 0 -103 43t-42 105zM1182 1915q0 -66 65 -66q68 0 68 66q0 68 -68 67q-66 0 -65 -67z" />
<glyph unicode="&#xc6;" horiz-adv-x="3639" d="M27 653q6 365 300 641.5t752 333.5q78 8 152 8q373 0 553 -217q33 -41 12 -61q-12 -16 -53 28q-170 184 -479 185q-72 0 -150 -10q-420 -57 -713 -359q-260 -268 -282 -561q-18 -264 166 -440q217 -207 653 -207q344 0 561 178q162 133 219 328q37 121 37 313 q0 88 -8 202.5t-8 123.5q0 31 16 49q39 43 100 74q35 18 48 6q20 -20 -7 -621q152 135 461 225q-406 123 -415 318q-10 201 307 334q295 121 682 116q281 0 438 -61q123 -47 149 -117q41 6 74 2q33 -6 51 -57q4 -8 2 -14q0 -6 -8 -4q-10 2 -24 2q-70 0 -112 -43t-126 -117 q-119 -78 -192 -68q-27 2 -42.5 12.5t-38 55.5t-24.5 67q-2 10 2 14.5t15 2.5q66 -18 133 8q35 14 88 49q61 43 84 53q12 6 59 25q-10 55 -145 92q-125 33 -281 33q-254 -2 -563 -88q-420 -117 -420 -307q0 -92 117 -169t295 -108q217 47 284 53q100 10 203 11 q299 0 311 -68q6 -39 -75 -70q-88 -31 -240 -36q-236 -10 -518 59q-240 -70 -382 -174.5t-147 -220.5q-10 -207 238 -342q229 -125 580 -142q74 -4 143 -4q528 0 729 213q45 45 76 117q8 18 29 12q24 -6 14 -24q-25 -47 -72 -125q-90 -125 -287 -205q-242 -98 -583 -98 q-66 0 -135 4q-309 16 -551 147q-305 164 -316 436q-84 -240 -288 -397q-229 -174 -531 -174q-373 4 -643 225q-279 229 -274 553z" />
<glyph unicode="&#xc7;" horiz-adv-x="2050" d="M33 684q0 397 401 682q393 276 907 274q281 0 439 -61q123 -47 149 -117q41 6 74 2q33 -6 51 -57q4 -8 2 -14q0 -6 -8 -4q-10 2 -25 2q-70 0 -111.5 -43t-125.5 -117q-119 -78 -193 -68q-27 2 -42 12.5t-37.5 55.5t-24.5 67q-2 10 2 14.5t14 2.5q66 -18 133 8 q35 14 88 49q61 43 84 53q10 6 60 25q-12 55 -146 90q-125 33 -280 35q-322 0 -633 -141q-297 -135 -485 -351q-193 -221 -193 -444q0 -51 10 -100q59 -258 357 -422q272 -147 626 -160q639 -20 875 223q43 45 74 119q8 18 28 12q25 -6 15 -24q-25 -47 -72 -125 q-92 -127 -287 -211q-242 -106 -577 -109q-18 -23 -52 -65q88 12 89 -74q0 -63 -49.5 -123.5t-110.5 -60.5q-33 -2 -63.5 16.5t-30.5 48.5q0 27 20 27q10 0 23.5 -19.5t27.5 -21.5q41 0 83 62.5t28 91.5q-4 12 -31 4q-25 -6 -43 -19q-4 -4 -10 -2q-33 14 -33 33 q0 10 18.5 23.5t61.5 78.5q-360 10 -659 183q-344 201 -406 528q-12 66 -12 131z" />
<glyph unicode="&#xc8;" horiz-adv-x="1892" d="M23 399q0 299 589 473q-406 123 -415 318q-12 201 307 334q293 121 682 116q279 0 438 -61q123 -47 150 -117q41 6 71 2q35 -6 53 -57q4 -8 3 -14q-2 -6 -9 -4q-12 2 -24 2q-70 0 -112 -43t-128 -117q-117 -78 -190 -68q-27 2 -42.5 12.5t-39 55.5t-25.5 67q0 10 4 14.5 t13 2.5q68 -18 135 8q35 14 88 49q61 43 84 53q10 6 57 25q-10 55 -145 92q-125 33 -281 33q-254 -2 -561 -88q-420 -117 -420 -307q0 -92 117 -169t295 -108q215 47 284 53q100 10 201 11q299 0 311 -68q8 -39 -76.5 -69.5t-236.5 -36.5q-238 -10 -518 59 q-242 -70 -383 -174.5t-147 -220.5q-8 -207 239 -342q227 -125 578 -142q76 -4 145 -4q526 0 729 213q43 45 76 117q6 18 27 12q26 -6 16 -24q-25 -47 -74 -125q-90 -125 -286 -205q-242 -98 -582 -98q-66 0 -135 4q-334 18 -592 172q-270 162 -270 364zM840 1896 q0 25 23.5 44.5t49.5 19.5q27 0 48 -39q10 -20 52 -61t62.5 -52.5t44 -24t23.5 -26.5q0 -25 -33 -24q-51 0 -158 57q-113 61 -112 106z" />
<glyph unicode="&#xc9;" horiz-adv-x="1892" d="M23 399q0 299 589 473q-406 123 -415 318q-12 201 307 334q293 121 682 116q279 0 438 -61q123 -47 150 -117q41 6 71 2q35 -6 53 -57q4 -8 3 -14q-2 -6 -9 -4q-12 2 -24 2q-70 0 -112 -43t-128 -117q-117 -78 -190 -68q-27 2 -42.5 12.5t-39 55.5t-25.5 67q0 10 4 14.5 t13 2.5q68 -18 135 8q35 14 88 49q61 43 84 53q10 6 57 25q-10 55 -145 92q-125 33 -281 33q-254 -2 -561 -88q-420 -117 -420 -307q0 -92 117 -169t295 -108q215 47 284 53q100 10 201 11q299 0 311 -68q8 -39 -76.5 -69.5t-236.5 -36.5q-238 -10 -518 59 q-242 -70 -383 -174.5t-147 -220.5q-8 -207 239 -342q227 -125 578 -142q76 -4 145 -4q526 0 729 213q43 45 76 117q6 18 27 12q26 -6 16 -24q-25 -47 -74 -125q-90 -125 -286 -205q-242 -98 -582 -98q-66 0 -135 4q-334 18 -592 172q-270 162 -270 364zM1006 1774 q0 18 56 41.5t126 121.5q29 41 45 41q27 0 51.5 -20t24.5 -47q0 -45 -115 -105q-104 -57 -158 -57q-31 0 -30 25z" />
<glyph unicode="&#xca;" horiz-adv-x="1892" d="M23 399q0 299 589 473q-406 123 -415 318q-12 201 307 334q293 121 682 116q279 0 438 -61q123 -47 150 -117q41 6 71 2q35 -6 53 -57q4 -8 3 -14q-2 -6 -9 -4q-12 2 -24 2q-70 0 -112 -43t-128 -117q-117 -78 -190 -68q-27 2 -42.5 12.5t-39 55.5t-25.5 67q0 10 4 14.5 t13 2.5q68 -18 135 8q35 14 88 49q61 43 84 53q10 6 57 25q-10 55 -145 92q-125 33 -281 33q-254 -2 -561 -88q-420 -117 -420 -307q0 -92 117 -169t295 -108q215 47 284 53q100 10 201 11q299 0 311 -68q8 -39 -76.5 -69.5t-236.5 -36.5q-238 -10 -518 59 q-242 -70 -383 -174.5t-147 -220.5q-8 -207 239 -342q227 -125 578 -142q76 -4 145 -4q526 0 729 213q43 45 76 117q6 18 27 12q26 -6 16 -24q-25 -47 -74 -125q-90 -125 -286 -205q-242 -98 -582 -98q-66 0 -135 4q-334 18 -592 172q-270 162 -270 364zM891 1776 q0 25 45 47q72 37 127 102q35 45 78 45q23 0 32 -19.5t17 -37.5q31 -76 102 -109q17 -8 17 -20q0 -35 -62 -35q-109 0 -172 137q-98 -131 -164 -131q-20 0 -20 21z" />
<glyph unicode="&#xcb;" horiz-adv-x="1894" d="M23 399q0 299 589 473q-406 123 -415 318q-12 201 307 334q293 121 682 116q279 0 438 -61q123 -47 150 -117q41 6 71 2q35 -6 53 -57q4 -8 3 -14q-2 -6 -9 -4q-12 2 -24 2q-70 0 -112 -43t-128 -117q-117 -78 -190 -68q-27 2 -42.5 12.5t-39 55.5t-25.5 67q0 10 4 14.5 t13 2.5q68 -18 135 8q35 14 88 49q61 43 84 53q10 6 57 25q-10 55 -145 92q-125 33 -281 33q-254 -2 -561 -88q-420 -117 -420 -307q0 -92 117 -169t295 -108q215 47 284 53q100 10 201 11q299 0 311 -68q8 -39 -76.5 -69.5t-236.5 -36.5q-238 -10 -518 59 q-242 -70 -383 -174.5t-147 -220.5q-8 -207 239 -342q227 -125 578 -142q76 -4 145 -4q526 0 729 213q43 45 76 117q6 18 27 12q26 -6 16 -24q-25 -47 -74 -125q-90 -125 -286 -205q-242 -98 -582 -98q-66 0 -135 4q-334 18 -592 172q-270 162 -270 364zM903 1823 q0 35 19.5 58.5t46.5 23.5q29 0 48 -23.5t19 -58.5t-19.5 -59.5t-47.5 -24.5q-27 0 -46.5 24.5t-19.5 59.5zM1135 1823q0 35 19.5 58.5t45.5 23.5q29 0 48.5 -23.5t19.5 -58.5t-19.5 -59.5t-48.5 -24.5q-27 0 -46 24.5t-19 59.5z" />
<glyph unicode="&#xcc;" horiz-adv-x="2004" d="M16 244q0 195 197 346q188 143 426 153q152 6 290 -49t201 -145q10 -16 9 -35q-4 -18 -17 -22q-20 -8 -45 28q-51 78 -182 128t-268 42q-195 -10 -355 -127q-168 -123 -168 -274q0 -33 9 -64q37 -139 200 -209q143 -59 361 -59q115 0 233 16q389 57 638 337t294 700 q8 70 8 143q0 188 -47 311q-55 150 -164 150q-113 0 -176 -144q-57 -127 -49 -286q8 -139 67.5 -268.5t143.5 -196.5q10 -6 6 -19q-12 -29 -41 -6q-113 90 -174 248q-55 143 -55 301q0 182 67 305q76 143 222 144q150 0 217 -228q53 -184 41 -442q-20 -428 -211 -719 q-207 -313 -584 -416q-184 -51 -393 -51q-254 0 -443 78q-258 109 -258 330zM1380 1939q0 27 25 46.5t49 19.5q27 0 47 -41q10 -20 52 -61t62.5 -52.5t44 -24t23.5 -26.5q0 -23 -32 -22q-51 0 -156 55q-115 61 -115 106z" />
<glyph unicode="&#xcd;" horiz-adv-x="2004" d="M16 244q0 195 197 346q188 143 426 153q152 6 290 -49t201 -145q10 -16 9 -35q-4 -18 -17 -22q-20 -8 -45 28q-51 78 -182 128t-268 42q-195 -10 -355 -127q-168 -123 -168 -274q0 -33 9 -64q37 -139 200 -209q143 -59 361 -59q115 0 233 16q389 57 638 337t294 700 q8 70 8 143q0 188 -47 311q-55 150 -164 150q-113 0 -176 -144q-57 -127 -49 -286q8 -139 67.5 -268.5t143.5 -196.5q10 -6 6 -19q-12 -29 -41 -6q-113 90 -174 248q-55 143 -55 301q0 182 67 305q76 143 222 144q150 0 217 -228q53 -184 41 -442q-20 -428 -211 -719 q-207 -313 -584 -416q-184 -51 -393 -51q-254 0 -443 78q-258 109 -258 330zM1579 1821q0 16 56.5 40.5t125.5 123.5q29 39 45 38q27 0 50.5 -19t23.5 -46q0 -45 -113 -107q-104 -55 -157 -55q-31 0 -31 25z" />
<glyph unicode="&#xce;" horiz-adv-x="2004" d="M16 244q0 195 197 346q188 143 426 153q152 6 290 -49t201 -145q10 -16 9 -35q-4 -18 -17 -22q-20 -8 -45 28q-51 78 -182 128t-268 42q-195 -10 -355 -127q-168 -123 -168 -274q0 -33 9 -64q37 -139 200 -209q143 -59 361 -59q115 0 233 16q389 57 638 337t294 700 q8 70 8 143q0 188 -47 311q-55 150 -164 150q-113 0 -176 -144q-57 -127 -49 -286q8 -139 67.5 -268.5t143.5 -196.5q10 -6 6 -19q-12 -29 -41 -6q-113 90 -174 248q-55 143 -55 301q0 182 67 305q76 143 222 144q150 0 217 -228q53 -184 41 -442q-20 -428 -211 -719 q-207 -313 -584 -416q-184 -51 -393 -51q-254 0 -443 78q-258 109 -258 330zM1440 1794q0 25 45 47q72 37 125 103q37 43 80 43q20 0 30.5 -18.5t16.5 -39.5q31 -74 104 -106q17 -9 17 -23q0 -33 -62 -33q-111 0 -172 136q-98 -129 -164 -129q-20 0 -20 20z" />
<glyph unicode="&#xcf;" horiz-adv-x="2004" d="M16 244q0 195 197 346q188 143 426 153q152 6 290 -49t201 -145q10 -16 9 -35q-4 -18 -17 -22q-20 -8 -45 28q-51 78 -182 128t-268 42q-195 -10 -355 -127q-168 -123 -168 -274q0 -33 9 -64q37 -139 200 -209q143 -59 361 -59q115 0 233 16q389 57 638 337t294 700 q8 70 8 143q0 188 -47 311q-55 150 -164 150q-113 0 -176 -144q-57 -127 -49 -286q8 -139 67.5 -268.5t143.5 -196.5q10 -6 6 -19q-12 -29 -41 -6q-113 90 -174 248q-55 143 -55 301q0 182 67 305q76 143 222 144q150 0 217 -228q53 -184 41 -442q-20 -428 -211 -719 q-207 -313 -584 -416q-184 -51 -393 -51q-254 0 -443 78q-258 109 -258 330zM1466 1866q0 35 19.5 59.5t48.5 24.5q27 0 46 -24.5t19 -59.5q0 -33 -19 -57.5t-46 -24.5q-29 0 -48.5 24.5t-19.5 57.5zM1698 1866q0 35 19.5 59.5t47.5 24.5q27 0 46.5 -24.5t19.5 -59.5 q0 -33 -19.5 -57.5t-46.5 -24.5q-29 0 -48 24.5t-19 57.5z" />
<glyph unicode="&#xd0;" horiz-adv-x="2232" d="M27 1128q0 20 2 43q25 190 306 325.5t652 135.5q106 0 211 -12q412 -49 680 -289q260 -233 260 -530q0 -401 -385 -647q-336 -215 -754 -209q-225 4 -458 92q2 -31 2 -37q6 -55 -27 -55q-6 0 -14 4q-80 45 -121 131q-2 4 -2 29q-137 68 -242 147q-37 29 -37 45 q0 10 21 10q27 0 53 -18q55 -41 205 -98q4 129 24 450l-186 -4q-63 -2 -63 70q0 39 28 39l228 -11l4 54l39 637q-166 -49 -265.5 -120t-97.5 -145q2 -156 211 -155q25 0 43 2q12 4 12 -27q0 -39 -18.5 -94t-32.5 -55q-61 0 -151 61q-127 86 -127 231zM502 1444 q-4 -162 12 -651l2 -58l207 -8q47 -2 47 -37q0 -39 -51 -39l-201 -4l19 -506q231 -68 452 -71q377 -10 660 110q405 175 428 572q14 285 -279 508q-268 203 -610 237q-94 8 -191 8q-262 0 -495 -61z" />
<glyph unicode="&#xd1;" horiz-adv-x="2113" d="M41 256q0 80 22 156q39 115 146 200q84 68 160 86q43 10 49 -12q10 -29 -33 -43q-166 -57 -219 -270q-16 -61 -16 -133q0 -270 188 -316q29 -6 57 -6q279 0 379 651q29 180 41 599t12 423q6 29 43 23q59 -10 107 -74q16 -20 18 -41q33 -334 172 -713q96 -262 248 -497 q137 -215 235.5 -290t164.5 -60q84 18 104 120q12 59 12 142q0 137 -71 604q-35 223 -35 377q0 360 200 458q49 25 121 25q154 0 258 -68q29 -16 13 -36q-6 -10 -43 2q-55 18 -111 18q-74 0 -125 -31q-205 -119 -205 -551q0 -106 15 -231q16 -133 32 -264q18 -166 19 -275 q0 -96 -14 -163q-16 -78 -66 -132q-55 -57 -131 -57q-115 0 -252 127q-94 86 -207 252q-160 236 -280 526q-94 229 -148 451l-18 -4q25 -457 -6 -715q-31 -270 -144 -448q-131 -203 -321 -203q-43 0 -86 10q-141 33 -217 145q-68 100 -68 238zM1315 1702q0 41 46 91t87 50 q33 0 77 -33.5t70 -33.5q33 0 55.5 38.5t35.5 38.5q16 1 16 -26q0 -49 -36 -100.5t-83 -51.5q-31 0 -82 36t-71 36q-31 0 -64 -34t-35 -34q-16 0 -16 23z" />
<glyph unicode="&#xd2;" d="M29 758q0 297 235 536q182 186 352 224q25 4 41 4q25 0 25 -11q0 -18 -49 -32q-164 -45 -320 -209q-211 -221 -211 -516q0 -322 297 -543q285 -213 668 -213q381 0 649 225q285 238 285 604q0 338 -246 539q-193 158 -434 178q-55 4 -109 4q-244 0 -395 -96 q-139 -86 -141 -205q0 -141 155 -231q117 -68 283 -88q59 -8 125 -8q156 0 250 28q37 12 49 4q14 -10 -14 -34q-115 -106 -318 -107q-53 0 -112 8q-199 25 -333 148t-134 268q0 205 241 328q205 104 422 94q307 -12 531 -232q243 -238 243 -598q0 -424 -290 -696 q-281 -262 -697 -262q-461 0 -754.5 252t-293.5 637zM825 1878q0 25 24.5 44.5t49.5 19.5q27 0 47 -39q10 -20 52 -61.5t62.5 -52.5t41.5 -22q26 -16 26 -28q0 -25 -32 -25q-51 0 -156 58q-115 61 -115 106z" />
<glyph unicode="&#xd3;" d="M29 758q0 297 235 536q182 186 352 224q25 4 41 4q25 0 25 -11q0 -18 -49 -32q-164 -45 -320 -209q-211 -221 -211 -516q0 -322 297 -543q285 -213 668 -213q381 0 649 225q285 238 285 604q0 338 -246 539q-193 158 -434 178q-55 4 -109 4q-244 0 -395 -96 q-139 -86 -141 -205q0 -141 155 -231q117 -68 283 -88q59 -8 125 -8q156 0 250 28q37 12 49 4q14 -10 -14 -34q-115 -106 -318 -107q-53 0 -112 8q-199 25 -333 148t-134 268q0 205 241 328q205 104 422 94q307 -12 531 -232q243 -238 243 -598q0 -424 -290 -696 q-281 -262 -697 -262q-461 0 -754.5 252t-293.5 637zM999 1741q0 16 56.5 40.5t126.5 123.5q29 39 45 39q27 0 51.5 -19.5t24.5 -46.5q0 -45 -115 -106q-104 -55 -158 -56q-31 0 -31 25z" />
<glyph unicode="&#xd4;" d="M29 758q0 297 235 536q182 186 352 224q25 4 41 4q25 0 25 -11q0 -18 -49 -32q-164 -45 -320 -209q-211 -221 -211 -516q0 -322 297 -543q285 -213 668 -213q381 0 649 225q285 238 285 604q0 338 -246 539q-193 158 -434 178q-55 4 -109 4q-244 0 -395 -96 q-139 -86 -141 -205q0 -141 155 -231q117 -68 283 -88q59 -8 125 -8q156 0 250 28q37 12 49 4q14 -10 -14 -34q-115 -106 -318 -107q-53 0 -112 8q-199 25 -333 148t-134 268q0 205 241 328q205 104 422 94q307 -12 531 -232q243 -238 243 -598q0 -424 -290 -696 q-281 -262 -697 -262q-461 0 -754.5 252t-293.5 637zM881 1757q0 23 45 47q72 37 127 103q35 43 77 43q23 0 32 -18.5t18 -39.5q31 -76 102 -108q16 -7 16 -21q0 -33 -59 -32q-111 0 -174 135q-98 -129 -162 -129q-23 0 -22 20z" />
<glyph unicode="&#xd5;" d="M29 758q0 297 235 536q182 186 352 224q25 4 41 4q25 0 25 -11q0 -18 -49 -32q-164 -45 -320 -209q-211 -221 -211 -516q0 -322 297 -543q285 -213 668 -213q381 0 649 225q285 238 285 604q0 338 -246 539q-193 158 -434 178q-55 4 -109 4q-244 0 -395 -96 q-139 -86 -141 -205q0 -141 155 -231q117 -68 283 -88q59 -8 125 -8q156 0 250 28q37 12 49 4q14 -10 -14 -34q-115 -106 -318 -107q-53 0 -112 8q-199 25 -333 148t-134 268q0 205 241 328q205 104 422 94q307 -12 531 -232q243 -238 243 -598q0 -424 -290 -696 q-281 -262 -697 -262q-461 0 -754.5 252t-293.5 637zM905 1759q0 41 46 91.5t87 50.5q33 0 77 -34t71 -34q35 0 56.5 38t33.5 38q16 0 16 -25q0 -51 -35 -98q-37 -53 -83 -53q-31 0 -82.5 35.5t-71.5 35.5q-31 0 -63.5 -34.5t-34.5 -34.5q-16 0 -17 24z" />
<glyph unicode="&#xd6;" d="M29 758q0 297 235 536q182 186 352 224q25 4 41 4q25 0 25 -11q0 -18 -49 -32q-164 -45 -320 -209q-211 -221 -211 -516q0 -322 297 -543q285 -213 668 -213q381 0 649 225q285 238 285 604q0 338 -246 539q-193 158 -434 178q-55 4 -109 4q-244 0 -395 -96 q-139 -86 -141 -205q0 -141 155 -231q117 -68 283 -88q59 -8 125 -8q156 0 250 28q37 12 49 4q14 -10 -14 -34q-115 -106 -318 -107q-53 0 -112 8q-199 25 -333 148t-134 268q0 205 241 328q205 104 422 94q307 -12 531 -232q243 -238 243 -598q0 -424 -290 -696 q-281 -262 -697 -262q-461 0 -754.5 252t-293.5 637zM874 1790q0 33 19.5 57.5t48.5 24.5q27 0 46.5 -24.5t19.5 -57.5q0 -35 -19.5 -59.5t-46.5 -24.5q-29 0 -48.5 24.5t-19.5 59.5zM1106 1790q0 33 19.5 57.5t48.5 24.5q27 0 46 -24.5t19 -57.5q0 -35 -19.5 -59.5 t-45.5 -24.5q-29 0 -48.5 24.5t-19.5 59.5z" />
<glyph unicode="&#xd8;" d="M29 758q0 297 235 536q182 186 352 224q25 4 41 4q25 0 25 -11q0 -18 -49 -32q-164 -45 -320 -209q-211 -221 -211 -516q0 -307 273 -527l725 590l-6 2q-199 23 -334 150q-133 121 -133 266q0 205 243 305q190 80 416 70q301 -12 522 -215l258 211v-93l-208 -170 q190 -211 190 -516q0 -426 -283 -694q-274 -260 -688 -260q-444 0 -735 233l-285 -231v94l230 187q-258 244 -258 602zM434 182q276 -193 633 -192q379 0 649 229q285 241 285 608q0 291 -184 482l-474 -385q94 8 146 24q37 12 49 4q14 -10 -14 -34q-117 -106 -318 -107z M676 1247q0 -141 155 -231q117 -68 283 -88q53 -8 111 -8l538 438q-193 164 -442 186q-55 4 -109 4q-244 0 -395 -96q-139 -86 -141 -205z" />
<glyph unicode="&#xd9;" horiz-adv-x="2037" d="M35 1241q-20 152 160 283q174 123 358 121q244 -4 397 -146q168 -154 160 -420q-6 -158 -172 -323q-154 -133 -307 -269q-164 -152 -164 -274q0 -141 170 -223q143 -66 330 -66q68 0 120 10q358 74 574 465q-16 717 -16 1043q0 31 16 49q49 53 86 72.5t49 7.5 q10 -10 10 -189q0 -180 -12 -630q-14 -428 -12 -486q2 -131 12 -169t41 -42q43 -6 113 72q68 72 110 164q14 29 33 22q22 -10 8 -41q-47 -102 -133 -206q-102 -121 -166 -115q-129 14 -135 287l-2 55q-203 -336 -545 -424q-86 -20 -190 -21q-240 0 -432 99 q-207 104 -207 256q0 98 127 229q74 78 270.5 232.5t245.5 203.5q111 109 121 201q16 186 -123 324q-145 141 -379 141q-217 0 -356 -113q-119 -94 -105 -186q12 -74 94 -133q90 -61 207 -62q41 0 33 -30q-4 -23 -39 -23q-98 0 -180 35q-150 63 -170 219zM1112 1845 q0 25 23.5 44.5t48.5 19.5q29 0 47 -39q10 -20 55 -64q39 -39 59.5 -50t40.5 -21q29 -17 29 -29q0 -25 -33 -25q-51 0 -157 58q-113 61 -113 106z" />
<glyph unicode="&#xda;" horiz-adv-x="2037" d="M35 1241q-20 152 160 283q174 123 358 121q244 -4 397 -146q168 -154 160 -420q-6 -158 -172 -323q-154 -133 -307 -269q-164 -152 -164 -274q0 -141 170 -223q143 -66 330 -66q68 0 120 10q358 74 574 465q-16 717 -16 1043q0 31 16 49q49 53 86 72.5t49 7.5 q10 -10 10 -189q0 -180 -12 -630q-14 -428 -12 -486q2 -131 12 -169t41 -42q43 -6 113 72q68 72 110 164q14 29 33 22q22 -10 8 -41q-47 -102 -133 -206q-102 -121 -166 -115q-129 14 -135 287l-2 55q-203 -336 -545 -424q-86 -20 -190 -21q-240 0 -432 99 q-207 104 -207 256q0 98 127 229q74 78 270.5 232.5t245.5 203.5q111 109 121 201q16 186 -123 324q-145 141 -379 141q-217 0 -356 -113q-119 -94 -105 -186q12 -74 94 -133q90 -61 207 -62q41 0 33 -30q-4 -23 -39 -23q-98 0 -180 35q-150 63 -170 219zM1274 1696 q0 16 56 39.5t126 122.5q29 41 45 40q27 0 51.5 -19t24.5 -46q0 -47 -115 -107q-104 -55 -157 -55q-31 0 -31 25z" />
<glyph unicode="&#xdb;" horiz-adv-x="2037" d="M35 1241q-20 152 160 283q174 123 358 121q244 -4 397 -146q168 -154 160 -420q-6 -158 -172 -323q-154 -133 -307 -269q-164 -152 -164 -274q0 -141 170 -223q143 -66 330 -66q68 0 120 10q358 74 574 465q-16 717 -16 1043q0 31 16 49q49 53 86 72.5t49 7.5 q10 -10 10 -189q0 -180 -12 -630q-14 -428 -12 -486q2 -131 12 -169t41 -42q43 -6 113 72q68 72 110 164q14 29 33 22q22 -10 8 -41q-47 -102 -133 -206q-102 -121 -166 -115q-129 14 -135 287l-2 55q-203 -336 -545 -424q-86 -20 -190 -21q-240 0 -432 99 q-207 104 -207 256q0 98 127 229q74 78 270.5 232.5t245.5 203.5q111 109 121 201q16 186 -123 324q-145 141 -379 141q-217 0 -356 -113q-119 -94 -105 -186q12 -74 94 -133q90 -61 207 -62q41 0 33 -30q-4 -23 -39 -23q-98 0 -180 35q-150 63 -170 219zM1159 1694 q0 23 45 45q72 37 125 104q35 43 78 43q23 0 35 -18q6 -20 14 -39q31 -76 103 -109q18 -8 18 -20q0 -33 -61 -33q-111 0 -173 135q-98 -131 -163 -131q-20 0 -21 23z" />
<glyph unicode="&#xdc;" horiz-adv-x="2037" d="M35 1241q-20 152 160 283q174 123 358 121q244 -4 397 -146q168 -154 160 -420q-6 -158 -172 -323q-154 -133 -307 -269q-164 -152 -164 -274q0 -141 170 -223q143 -66 330 -66q68 0 120 10q358 74 574 465q-16 717 -16 1043q0 31 16 49q49 53 86 72.5t49 7.5 q10 -10 10 -189q0 -180 -12 -630q-14 -428 -12 -486q2 -131 12 -169t41 -42q43 -6 113 72q68 72 110 164q14 29 33 22q22 -10 8 -41q-47 -102 -133 -206q-102 -121 -166 -115q-129 14 -135 287l-2 55q-203 -336 -545 -424q-86 -20 -190 -21q-240 0 -432 99 q-207 104 -207 256q0 98 127 229q74 78 270.5 232.5t245.5 203.5q111 109 121 201q16 186 -123 324q-145 141 -379 141q-217 0 -356 -113q-119 -94 -105 -186q12 -74 94 -133q90 -61 207 -62q41 0 33 -30q-4 -23 -39 -23q-98 0 -180 35q-150 63 -170 219zM1141 1677 q0 35 19.5 59.5t45.5 24.5q29 0 48.5 -24.5t19.5 -59.5q0 -33 -19.5 -57.5t-48.5 -24.5q-27 0 -46 25t-19 57zM1372 1677q0 35 19.5 59.5t46.5 24.5q29 0 48 -24.5t19 -59.5q0 -33 -19.5 -57.5t-47.5 -24.5q-27 0 -46.5 25t-19.5 57z" />
<glyph unicode="&#xdd;" horiz-adv-x="1744" d="M70 -137q14 270 387 350q45 10 49 -16q2 -16 -31 -23q-111 -14 -211 -86q-121 -84 -121 -192q0 -20 4 -41q29 -119 259 -189q209 -61 466 -53q256 8 428 74q193 70 232 190q14 47 14 92q0 35 -31.5 182.5t-29.5 303.5q2 293 55 536q-117 -283 -233 -479 q-182 -309 -312 -305q-162 4 -329 336q-106 209 -199 506q-106 344 -119 526q-2 41 8 49q12 10 54 0q53 -12 106 -90q8 -12 47 -191q51 -233 92 -380q184 -676 344 -676q125 0 304 346q156 305 200 526q33 174 19 330q-4 55 28 55q6 0 13 -4q47 -27 94 -76q63 -61 53 -100 q-49 -193 -88 -498q-41 -313 -41 -506q0 -88 14.5 -206.5t14.5 -161.5q0 -72 -23 -133q-117 -326 -719 -371q-51 -2 -102 -2q-299 0 -502 110.5t-194 266.5zM936 1647q0 18 56.5 41.5t125.5 121.5q29 41 45 41q29 0 52.5 -20t23.5 -45q0 -47 -109.5 -105.5t-162.5 -58.5 q-31 0 -31 25z" />
<glyph unicode="&#xdf;" horiz-adv-x="944" d="M14 -367l15 1198q6 408 34 545q57 260 240 260q242 0 242 -327q0 -219 -101 -451q-59 -137 -127 -229q115 -20 220 -66q184 -80 225 -203q12 -39 12 -79q0 -147 -102 -244q117 -2 192 78q55 59 105 186l41 -14q-45 -121 -103 -193q-66 -84 -194 -121q-104 -29 -215 -20 q-129 8 -283 125q-10 14 -8 33q12 68 82 88q29 8 45 -13q90 -131 215 -131q68 0 113 47.5t45 114.5q0 37 -13 74q-35 98 -164 160q-117 55 -217 45q-25 -4 -47 26.5t-22 67.5q0 29 16 51q205 319 199 741q-2 70 -41 136q-47 76 -115 75q-80 0 -121 -84q-31 -66 -30 -155 l-15 -1684q-2 -96 -59 -100q-27 -2 -45.5 16.5t-18.5 46.5z" />
<glyph unicode="&#xe0;" horiz-adv-x="765" d="M-2 305q0 49 8 101q29 178 144 305q106 117 212 120q70 4 111 -30q35 -27 37 -68q0 -18 -6 -28.5t-17 -6.5q-10 6 -12 25q-6 59 -80 59q-102 0 -190 -159q-70 -127 -86 -246q-6 -57 -6 -107q0 -233 114 -233q80 0 172 61q-20 72 -30 176q-6 82 2 201q10 133 39 199 q10 25 24 24q43 0 82 -49q25 -31 14 -57q-18 -55 -36 -172q-20 -131 -21 -230q0 -133 41 -155q16 -10 37 -10q70 0 145 104q53 78 88 170l39 -12q-18 -53 -88 -178q-109 -152 -207 -152q-82 0 -120 115q-96 -96 -199 -92q-84 2 -147.5 91t-63.5 234zM154 1071 q0 25 24.5 44.5t48.5 19.5q27 0 47 -41q10 -20 52.5 -61.5t63 -52.5t40.5 -19q27 -17 27 -29q0 -25 -33 -25q-51 0 -156 56q-115 61 -114 108z" />
<glyph unicode="&#xe1;" horiz-adv-x="765" d="M-2 305q0 49 8 101q29 178 144 305q106 117 212 120q70 4 111 -30q35 -27 37 -68q0 -18 -6 -28.5t-17 -6.5q-10 6 -12 25q-6 59 -80 59q-102 0 -190 -159q-70 -127 -86 -246q-6 -57 -6 -107q0 -233 114 -233q80 0 172 61q-20 72 -30 176q-6 82 2 201q10 133 39 199 q10 25 24 24q43 0 82 -49q25 -31 14 -57q-18 -55 -36 -172q-20 -131 -21 -230q0 -133 41 -155q16 -10 37 -10q70 0 145 104q53 78 88 170l39 -12q-18 -53 -88 -178q-109 -152 -207 -152q-82 0 -120 115q-96 -96 -199 -92q-84 2 -147.5 91t-63.5 234zM295 946q0 16 56.5 41 t125.5 123q29 39 45 39q27 0 51.5 -19.5t24.5 -46.5q0 -45 -115 -106q-104 -55 -157 -55q-31 0 -31 24z" />
<glyph unicode="&#xe2;" horiz-adv-x="765" d="M-2 305q0 49 8 101q29 178 144 305q106 117 212 120q70 4 111 -30q35 -27 37 -68q0 -18 -6 -28.5t-17 -6.5q-10 6 -12 25q-6 59 -80 59q-102 0 -190 -159q-70 -127 -86 -246q-6 -57 -6 -107q0 -233 114 -233q80 0 172 61q-20 72 -30 176q-6 82 2 201q10 133 39 199 q10 25 24 24q43 0 82 -49q25 -31 14 -57q-18 -55 -36 -172q-20 -131 -21 -230q0 -133 41 -155q16 -10 37 -10q70 0 145 104q53 78 88 170l39 -12q-18 -53 -88 -178q-109 -152 -207 -152q-82 0 -120 115q-96 -96 -199 -92q-84 2 -147.5 91t-63.5 234zM193 928q0 25 45 47 q72 37 127 102q35 43 77 43q23 0 32 -18.5t18 -38.5q31 -74 102 -107q16 -8 16 -20q0 -35 -59 -35q-111 0 -174 137q-98 -131 -162 -131q-23 0 -22 21z" />
<glyph unicode="&#xe3;" horiz-adv-x="765" d="M-2 305q0 49 8 101q29 178 144 305q106 117 212 120q70 4 111 -30q35 -27 37 -68q0 -18 -6 -28.5t-17 -6.5q-10 6 -12 25q-6 59 -80 59q-102 0 -190 -159q-70 -127 -86 -246q-6 -57 -6 -107q0 -233 114 -233q80 0 172 61q-20 72 -30 176q-6 82 2 201q10 133 39 199 q10 25 24 24q43 0 82 -49q25 -31 14 -57q-18 -55 -36 -172q-20 -131 -21 -230q0 -133 41 -155q16 -10 37 -10q70 0 145 104q53 78 88 170l39 -12q-18 -53 -88 -178q-109 -152 -207 -152q-82 0 -120 115q-96 -96 -199 -92q-84 2 -147.5 91t-63.5 234zM166 928q0 41 46 91 t89 50q33 0 77 -34t68 -34q35 0 57.5 38t33.5 38q18 1 18 -26q0 -49 -37 -100.5t-84 -51.5q-29 0 -80 36t-73 36q-31 0 -63 -34t-34 -34q-18 0 -18 25z" />
<glyph unicode="&#xe4;" horiz-adv-x="765" d="M-2 305q0 49 8 101q29 178 144 305q106 117 212 120q70 4 111 -30q35 -27 37 -68q0 -18 -6 -28.5t-17 -6.5q-10 6 -12 25q-6 59 -80 59q-102 0 -190 -159q-70 -127 -86 -246q-6 -57 -6 -107q0 -233 114 -233q80 0 172 61q-20 72 -30 176q-6 82 2 201q10 133 39 199 q10 25 24 24q43 0 82 -49q25 -31 14 -57q-18 -55 -36 -172q-20 -131 -21 -230q0 -133 41 -155q16 -10 37 -10q70 0 145 104q53 78 88 170l39 -12q-18 -53 -88 -178q-109 -152 -207 -152q-82 0 -120 115q-96 -96 -199 -92q-84 2 -147.5 91t-63.5 234zM205 977q0 33 19.5 57.5 t45.5 24.5q27 0 46.5 -24.5t19.5 -57.5q0 -35 -19.5 -59.5t-46.5 -24.5t-46 24.5t-19 59.5zM436 977q0 33 19.5 57.5t46.5 24.5t46 -24.5t19 -57.5q0 -35 -19.5 -59.5t-45.5 -24.5q-27 0 -46.5 24.5t-19.5 59.5z" />
<glyph unicode="&#xe5;" horiz-adv-x="765" d="M-2 305q0 49 8 101q29 178 144 305q106 117 212 120q70 4 111 -30q35 -27 37 -68q0 -18 -6 -28.5t-17 -6.5q-10 6 -12 25q-6 59 -80 59q-102 0 -190 -159q-70 -127 -86 -246q-6 -57 -6 -107q0 -233 114 -233q80 0 172 61q-20 72 -30 176q-6 82 2 201q10 133 39 199 q10 25 24 24q43 0 82 -49q25 -31 14 -57q-18 -55 -36 -172q-20 -131 -21 -230q0 -133 41 -155q16 -10 37 -10q70 0 145 104q53 78 88 170l39 -12q-18 -53 -88 -178q-109 -152 -207 -152q-82 0 -120 115q-96 -96 -199 -92q-84 2 -147.5 91t-63.5 234zM229 1051q0 61 43 104 t103 43q61 0 104 -43t43 -104t-43 -103.5t-104 -42.5q-59 0 -102.5 42t-43.5 104zM311 1049q0 -66 66 -66q67 0 67 66q0 68 -67 67q-66 0 -66 -67z" />
<glyph unicode="&#xe6;" horiz-adv-x="978" d="M4 309q0 47 6 97q27 178 144 305q106 115 213 120q72 4 112 -30q33 -27 35 -68v-8q104 106 209 104q121 -2 121 -129q0 -72 -43 -147q-49 -82 -135 -147q-61 -47 -93 -56q-27 -6 -26 23q0 23 24 30q104 39 189 183q31 55 31 114q0 88 -76 88q-61 2 -112.5 -64.5 t-78.5 -166.5q-12 -78 -12 -268q20 -88 70.5 -150.5t105.5 -75.5q37 -8 70 -8q82 0 153 72q47 49 90 172l41 -14q-16 -43 -81 -166q-49 -74 -127 -119q-88 -51 -179 -41q-74 8 -139 59q2 -45 2 -53q-2 -10 -16 -16q-20 -6 -58 0q-41 4 -43 20q8 27 13 103q-96 -96 -201 -92 q-84 2 -145 88q-63 94 -64 241zM117 268q0 -231 114 -231q80 0 175 61q-20 72 -31 176q-8 82 0 201q12 133 39 199q10 25 24 24q20 0 41 -12q7 6 13 12q-10 6 -13 25q-6 57 -84 57q-14 0 -28 -4q-68 -12 -144 -127q-82 -125 -98 -272q-8 -57 -8 -109z" />
<glyph unicode="&#xe7;" horiz-adv-x="655" d="M6 383q10 195 125 332q98 119 188 114q102 -2 142 -90q29 -66 6 -164q-10 -51 -45 -40q-51 16 -74.5 28t-21.5 27q2 8 24 20q12 8 26.5 48t8.5 73q-12 61 -66 62q-74 0 -135 -131.5t-61 -276.5q0 -127 45 -218t115 -114q51 -16 98 -16q125 0 209 90q45 47 90 172l41 -14 q-14 -43 -82 -166q-86 -133 -260 -162q-18 -23 -55 -68q90 10 90 -75q0 -61 -50.5 -122t-109.5 -63q-35 0 -61 17q-35 20 -35 51q0 27 20 27q12 0 25.5 -20.5t27.5 -20.5q41 0 82 61t29 92q-6 10 -33 4q-25 -6 -41 -20q-4 -2 -10 0q-33 14 -33 30q0 10 18.5 24.5t59.5 78.5 q-25 2 -51 6q-96 18 -166 107q-92 119 -80 317z" />
<glyph unicode="&#xe8;" horiz-adv-x="561" d="M-12 385q4 186 112 324q96 125 197 125q94 0 94 -113q0 -88 -49 -191q-70 -139 -223 -245q20 -88 70.5 -149.5t103.5 -72.5q35 -6 61 -6q72 0 142 70q47 49 90 172l41 -14q-14 -43 -82 -166q-115 -178 -285 -160q-100 10 -176 96q-102 117 -96 330zM20 1077q0 25 24 44.5 t50 19.5q27 0 47 -39q10 -20 52.5 -61.5t62.5 -52.5t39 -21q29 -15 29 -29q0 -25 -33 -25q-51 0 -158 58q-113 61 -113 106zM106 387q0 -27 5 -51q127 86 192 219q45 96 45 170q0 70 -55 70q-72 0 -131 -140q-55 -131 -56 -268z" />
<glyph unicode="&#xe9;" horiz-adv-x="561" d="M-12 385q4 186 112 324q96 125 197 125q94 0 94 -113q0 -88 -49 -191q-70 -139 -223 -245q20 -88 70.5 -149.5t103.5 -72.5q35 -6 61 -6q72 0 142 70q47 49 90 172l41 -14q-14 -43 -82 -166q-115 -178 -285 -160q-100 10 -176 96q-102 117 -96 330zM106 387q0 -27 5 -51 q127 86 192 219q45 96 45 170q0 70 -55 70q-72 0 -131 -140q-55 -131 -56 -268zM199 934q0 16 56 40.5t126 123.5q29 39 45 39q27 0 51.5 -19.5t24.5 -46.5q0 -45 -115 -106q-104 -55 -158 -56q-31 0 -30 25z" />
<glyph unicode="&#xea;" horiz-adv-x="561" d="M-12 385q4 186 112 324q96 125 197 125q94 0 94 -113q0 -88 -49 -191q-70 -139 -223 -245q20 -88 70.5 -149.5t103.5 -72.5q35 -6 61 -6q72 0 142 70q47 49 90 172l41 -14q-14 -43 -82 -166q-115 -178 -285 -160q-100 10 -176 96q-102 117 -96 330zM78 913q0 25 45 48 q72 37 125 102q35 43 78 43q23 0 32 -18.5t17 -38.5q31 -74 102 -109q19 -6 19 -20q0 -33 -62 -33q-111 0 -172 135q-100 -129 -164 -129q-20 0 -20 20zM106 387q0 -27 5 -51q127 86 192 219q45 96 45 170q0 70 -55 70q-72 0 -131 -140q-55 -131 -56 -268z" />
<glyph unicode="&#xeb;" horiz-adv-x="561" d="M-12 385q4 186 112 324q96 125 197 125q94 0 94 -113q0 -88 -49 -191q-70 -139 -223 -245q20 -88 70.5 -149.5t103.5 -72.5q35 -6 61 -6q72 0 142 70q47 49 90 172l41 -14q-14 -43 -82 -166q-115 -178 -285 -160q-100 10 -176 96q-102 117 -96 330zM106 387q0 -27 5 -51 q127 86 192 219q45 96 45 170q0 70 -55 70q-72 0 -131 -140q-55 -131 -56 -268zM106 979q0 35 19.5 58.5t48.5 23.5q27 0 46.5 -23.5t19.5 -58.5t-19.5 -59.5t-46.5 -24.5q-29 0 -48.5 24.5t-19.5 59.5zM338 979q0 35 19.5 58.5t48.5 23.5q27 0 46 -23.5t19 -58.5 t-19.5 -59.5t-45.5 -24.5q-29 0 -48.5 24.5t-19.5 59.5z" />
<glyph unicode="&#xec;" horiz-adv-x="413" d="M-109 1071q0 25 24 44.5t50 19.5q27 0 47 -39q10 -20 52 -61.5t62.5 -52.5t39.5 -21q29 -15 29 -29q0 -25 -33 -25q-51 0 -158 58q-113 61 -113 106zM25 274q-12 350 51 533q10 27 24 27q45 0 82 -50q25 -31 17 -57q-63 -203 -64 -496q0 -178 45 -198q14 -6 31 -6 q72 0 151 120q51 76 76 152l39 -12q-18 -53 -88 -178q-45 -61 -108 -107q-76 -53 -127 -43q-49 12 -84 86q-41 88 -45 229z" />
<glyph unicode="&#xed;" horiz-adv-x="413" d="M25 274q-12 350 51 533q10 27 24 27q45 0 82 -50q25 -31 17 -57q-63 -203 -64 -496q0 -178 45 -198q14 -6 31 -6q72 0 151 120q51 76 76 152l39 -12q-18 -53 -88 -178q-45 -61 -108 -107q-76 -53 -127 -43q-49 12 -84 86q-41 88 -45 229zM76 930q0 16 56 40.5t126 123.5 q29 41 45 41q27 0 51.5 -20.5t24.5 -47.5q0 -45 -115 -106q-104 -55 -158 -56q-31 0 -30 25z" />
<glyph unicode="&#xee;" horiz-adv-x="413" d="M-59 920q0 23 45 47q72 35 125 102q35 43 77 43q23 0 32 -18.5t18 -38.5q31 -76 102 -109q18 -8 18 -20q0 -33 -61 -33q-111 0 -172 135q-98 -131 -164 -131q-20 0 -20 23zM25 274q-12 350 51 533q10 27 24 27q45 0 82 -50q25 -31 17 -57q-63 -203 -64 -496 q0 -178 45 -198q14 -6 31 -6q72 0 151 120q51 76 76 152l39 -12q-18 -53 -88 -178q-45 -61 -108 -107q-76 -53 -127 -43q-49 12 -84 86q-41 88 -45 229z" />
<glyph unicode="&#xef;" horiz-adv-x="413" d="M-45 999q0 35 19.5 59.5t48.5 24.5q27 0 46 -24.5t19 -59.5q0 -33 -19.5 -57t-45.5 -24q-29 0 -48.5 24.5t-19.5 56.5zM25 274q-12 350 51 533q10 27 24 27q45 0 82 -50q25 -31 17 -57q-63 -203 -64 -496q0 -178 45 -198q14 -6 31 -6q72 0 151 120q51 76 76 152l39 -12 q-18 -53 -88 -178q-45 -61 -108 -107q-76 -53 -127 -43q-49 12 -84 86q-41 88 -45 229zM186 999q0 35 19.5 59.5t48.5 24.5q27 0 46 -24.5t19 -59.5q0 -33 -19 -57t-46 -24q-29 0 -48.5 24.5t-19.5 56.5z" />
<glyph unicode="&#xf0;" horiz-adv-x="741" d="M14 334q0 182 97.5 338.5t216.5 156.5q66 0 116 -43q-23 109 -92 207q-29 43 -76 97l-94 -80l-32 37l92 79q-90 96 -150 131q-10 6 -10 19q0 33 31 22q78 -27 180 -127l98 86l35 -38l-96 -82q43 -49 78 -103q174 -266 167 -639q-4 -168 -53 -274q133 0 199 88 q25 33 45 90l39 -12q-8 -29 -51 -107q-86 -121 -256 -104q-68 -104 -176 -113q-137 -12 -228 123q-80 115 -80 248zM88 266q0 -109 59 -182q55 -66 127 -72q58 -1 119 97q-102 55 -153 204q-41 113 -41 226q0 37 6 65q-98 -162 -115 -295q-2 -23 -2 -43zM254 551 q0 -125 31 -211q51 -145 131 -188q45 79 65 208q12 84 13 158q0 248 -127 248q-63 0 -93 -82q-20 -57 -20 -133z" />
<glyph unicode="&#xf1;" horiz-adv-x="757" d="M6 133q2 53 10 170q12 135 47 309t52 195q6 6 18 6q47 0 70 -47q4 -10 -27 -184q-37 -203 -37 -322q2 -23 2 -80q20 63 101 260q59 143 122.5 264t84.5 127q14 6 40 -4q61 -20 80 -61q4 -10 -8 -39q-127 -299 -127 -491q0 -178 45 -201q20 -10 43 -10q102 0 185 122 q51 76 75 152l39 -12q-20 -53 -88 -178q-41 -55 -100 -101q-74 -53 -135 -53q-92 0 -125 127q-14 61 -19 194q0 98 21 242q18 119 37 180q-35 -61 -133 -274q-82 -199 -134 -389q-4 -20 -20 -45q-6 -2 -59 33q-72 47 -60 110zM106 911q0 41 46.5 91.5t87.5 50.5 q33 0 76.5 -34t68.5 -34q35 0 57.5 39t34.5 39q17 0 17 -27q0 -49 -36 -100t-83 -51q-31 0 -82 35.5t-72 35.5q-31 0 -63.5 -33.5t-34.5 -33.5q-16 0 -17 22z" />
<glyph unicode="&#xf2;" horiz-adv-x="761" d="M14 334q0 182 97.5 338.5t216.5 156.5q115 0 182 -127q66 -119 65 -307q0 -162 -53 -274q133 0 199 88q25 33 45 90l39 -12q-8 -29 -51 -107q-86 -121 -256 -104q-68 -104 -176 -113q-137 -12 -228 123q-80 115 -80 248zM88 266q0 -109 59 -182q55 -66 127 -72 q58 -1 119 97q-102 55 -153 204q-41 113 -41 226q0 37 6 65q-98 -162 -115 -295q-2 -23 -2 -43zM129 1044q0 25 23.5 44.5t48.5 19.5q29 0 47 -39q10 -20 55 -63q39 -39 59.5 -50.5t40.5 -21.5q29 -15 29 -29q0 -25 -33 -24q-51 0 -157 57q-113 61 -113 106zM254 551 q0 -125 31 -211q51 -145 131 -188q78 136 78 372q0 227 -109 240q-59 6 -100 -55q-31 -47 -31 -158z" />
<glyph unicode="&#xf3;" horiz-adv-x="761" d="M14 334q0 182 97.5 338.5t216.5 156.5q115 0 182 -127q66 -119 65 -307q0 -162 -53 -274q133 0 199 88q25 33 45 90l39 -12q-8 -29 -51 -107q-86 -121 -256 -104q-68 -104 -176 -113q-137 -12 -228 123q-80 115 -80 248zM88 266q0 -109 59 -182q55 -66 127 -72 q58 -1 119 97q-102 55 -153 204q-41 113 -41 226q0 37 6 65q-98 -162 -115 -295q-2 -23 -2 -43zM254 551q0 -125 31 -211q51 -145 131 -188q78 136 78 372q0 227 -109 240q-59 6 -100 -55q-31 -47 -31 -158zM274 915q0 16 56.5 41t126.5 123q29 39 45 39q27 0 51.5 -19 t24.5 -46q0 -45 -115 -107q-104 -55 -158 -55q-31 0 -31 24z" />
<glyph unicode="&#xf4;" horiz-adv-x="763" d="M14 334q0 182 97.5 338.5t216.5 156.5q115 0 182 -127q66 -119 65 -307q0 -162 -53 -274q133 0 199 88q25 33 45 90l39 -12q-8 -29 -51 -107q-86 -121 -256 -104q-68 -104 -176 -113q-137 -12 -228 123q-80 115 -80 248zM88 266q0 -109 59 -182q55 -66 127 -72 q58 -1 119 97q-102 55 -153 204q-41 113 -41 226q0 37 6 65q-98 -162 -115 -295q-2 -23 -2 -43zM152 877q0 23 45 47q72 37 127 102q35 43 77 43q23 0 32 -18.5t18 -38.5q31 -76 102 -109q16 -6 16 -20q0 -33 -61 -33q-109 0 -172 135q-98 -129 -164 -129q-20 0 -20 21z M254 551q0 -125 31 -211q51 -145 131 -188q78 136 78 372q0 227 -109 240q-59 6 -100 -55q-31 -47 -31 -158z" />
<glyph unicode="&#xf5;" horiz-adv-x="763" d="M14 334q0 182 97.5 338.5t216.5 156.5q115 0 182 -127q66 -119 65 -307q0 -162 -53 -274q133 0 199 88q25 33 45 90l39 -12q-8 -29 -51 -107q-86 -121 -256 -104q-68 -104 -176 -113q-137 -12 -228 123q-80 115 -80 248zM88 266q0 -109 59 -182q55 -66 127 -72 q58 -1 119 97q-102 55 -153 204q-41 113 -41 226q0 37 6 65q-98 -162 -115 -295q-2 -23 -2 -43zM141 911q0 41 46 91.5t87 50.5q33 0 77 -34t69 -34q35 0 57.5 39t34.5 39q16 0 16 -27q0 -49 -35.5 -100t-82.5 -51q-31 0 -82.5 35.5t-71.5 35.5q-31 0 -63.5 -33.5 t-34.5 -33.5q-16 0 -17 22zM254 551q0 -125 31 -211q51 -145 131 -188q78 136 78 372q0 227 -109 240q-59 6 -100 -55q-31 -47 -31 -158z" />
<glyph unicode="&#xf6;" horiz-adv-x="763" d="M14 334q0 182 97.5 338.5t216.5 156.5q115 0 182 -127q66 -119 65 -307q0 -162 -53 -274q133 0 199 88q25 33 45 90l39 -12q-8 -29 -51 -107q-86 -121 -256 -104q-68 -104 -176 -113q-137 -12 -228 123q-80 115 -80 248zM88 266q0 -109 59 -182q55 -66 127 -72 q58 -1 119 97q-102 55 -153 204q-41 113 -41 226q0 37 6 65q-98 -162 -115 -295q-2 -23 -2 -43zM168 956q0 35 19.5 59.5t48.5 24.5q27 0 46 -24.5t19 -59.5t-19.5 -58.5t-45.5 -23.5q-29 0 -48.5 24t-19.5 58zM254 551q0 -125 31 -211q51 -145 131 -188q78 136 78 372 q0 227 -109 240q-59 6 -100 -55q-31 -47 -31 -158zM399 956q0 35 19.5 59.5t48.5 24.5q27 0 46 -24.5t19 -59.5t-19 -58.5t-46 -23.5q-29 0 -48.5 24t-19.5 58z" />
<glyph unicode="&#xf8;" horiz-adv-x="755" d="M16 334q0 182 97.5 338.5t216.5 156.5q127 0 213 -141l139 176v-102l-109 -135q45 -106 45 -232q0 -162 -53 -274q117 -8 174 86q20 35 39 92l39 -12q-8 -27 -47 -109q-55 -104 -188 -104q-20 0 -41 2q-68 -104 -176 -113q-129 -10 -236 107l-109 -133v102l68 84 q-72 109 -72 211zM100 303q-8 -76 21 -141l125 155q-37 96 -37 205q0 43 6 76q-98 -162 -115 -295zM156 104q70 -86 161 -92q58 -1 119 97q-106 57 -160 145zM258 537q0 -96 25 -172l231 290q-29 92 -96 103q-72 12 -123 -56q-37 -51 -37 -165zM311 301q61 -102 148 -149 q96 190 71 421z" />
<glyph unicode="&#xf9;" horiz-adv-x="747" d="M18 352q0 88 15 240q16 184 39 225q10 16 47 4q61 -20 78 -61q6 -12 -7 -39q-61 -141 -79 -324q-8 -74 -9 -151q0 -193 43 -211q12 -6 27 -6q53 0 115 71q51 61 69 121q16 45 27 320q8 168 25 223q8 25 24 24q43 0 82 -49q20 -27 16 -57q-51 -266 -61 -387 q-18 -238 37 -260q16 -6 33 -6q84 0 161 118q51 76 76 152l39 -12q-18 -53 -88 -178q-121 -168 -235 -150q-74 12 -111 186q-39 -68 -105 -122q-80 -68 -145 -64q-113 10 -113 393zM100 1028q0 25 23.5 44.5t50.5 19.5t47 -39q10 -20 52 -61.5t62.5 -52.5t44 -23.5 t23.5 -26.5q0 -25 -32 -25q-51 0 -158 58q-113 61 -113 106z" />
<glyph unicode="&#xfa;" horiz-adv-x="749" d="M18 352q0 88 15 240q16 184 39 225q10 16 47 4q61 -20 78 -61q6 -12 -7 -39q-61 -141 -79 -324q-8 -74 -9 -151q0 -193 43 -211q12 -6 27 -6q53 0 115 71q51 61 69 121q16 45 27 320q8 168 25 223q8 25 24 24q43 0 82 -49q20 -27 16 -57q-51 -266 -61 -387 q-18 -238 37 -260q16 -6 33 -6q84 0 161 118q51 76 76 152l39 -12q-18 -53 -88 -178q-121 -168 -235 -150q-74 12 -111 186q-39 -68 -105 -122q-80 -68 -145 -64q-113 10 -113 393zM281 883q0 16 56 40.5t126 123.5q29 41 45 40q27 0 51.5 -20t24.5 -47q0 -45 -115 -107 q-104 -55 -158 -55q-31 0 -30 25z" />
<glyph unicode="&#xfb;" horiz-adv-x="749" d="M18 352q0 88 15 240q16 184 39 225q10 16 47 4q61 -20 78 -61q6 -12 -7 -39q-61 -141 -79 -324q-8 -74 -9 -151q0 -193 43 -211q12 -6 27 -6q53 0 115 71q51 61 69 121q16 45 27 320q8 168 25 223q8 25 24 24q43 0 82 -49q20 -27 16 -57q-51 -266 -61 -387 q-18 -238 37 -260q16 -6 33 -6q84 0 161 118q51 76 76 152l39 -12q-18 -53 -88 -178q-121 -168 -235 -150q-74 12 -111 186q-39 -68 -105 -122q-80 -68 -145 -64q-113 10 -113 393zM137 915q0 25 47 48q70 37 125 102q35 45 78 45q23 0 32 -19.5t17 -37.5q31 -76 103 -109 q16 -8 16 -20q0 -33 -59 -33q-111 0 -172 135q-100 -131 -164 -131q-23 0 -23 20z" />
<glyph unicode="&#xfc;" horiz-adv-x="749" d="M18 352q0 88 15 240q16 184 39 225q10 16 47 4q61 -20 78 -61q6 -12 -7 -39q-61 -141 -79 -324q-8 -74 -9 -151q0 -193 43 -211q12 -6 27 -6q53 0 115 71q51 61 69 121q16 45 27 320q8 168 25 223q8 25 24 24q43 0 82 -49q20 -27 16 -57q-51 -266 -61 -387 q-18 -238 37 -260q16 -6 33 -6q84 0 161 118q51 76 76 152l39 -12q-18 -53 -88 -178q-121 -168 -235 -150q-74 12 -111 186q-39 -68 -105 -122q-80 -68 -145 -64q-113 10 -113 393zM182 950q0 35 19.5 59.5t48.5 24.5q27 0 46 -24.5t19 -59.5t-19.5 -58.5t-45.5 -23.5 q-29 0 -48.5 23.5t-19.5 58.5zM389 950q0 35 19.5 59.5t46.5 24.5t46 -24.5t19 -59.5t-19.5 -58.5t-45.5 -23.5q-27 0 -46.5 23.5t-19.5 58.5z" />
<glyph unicode="&#xfd;" horiz-adv-x="651" d="M-18 -276q0 72 63 129q45 41 82 51q4 2 16 -6q39 -25 60 -68q4 -10 4 -16q0 -4 -6 -4q-53 0 -103 -21q-57 -27 -57 -68q0 -39 45 -75q61 -47 178 -47q211 0 223 149q2 35 -16 86q-37 86 -43 109q-18 61 -43 237q-35 -76 -104 -143q-82 -82 -148 -78q-94 8 -110 317 q-6 94 8 287q18 221 47 271q8 14 45 2q61 -20 78 -62q6 -14 -6 -39q-47 -90 -84 -334q-10 -68 -11 -151q0 -197 45 -215q12 -4 25 -4q51 0 113 78q51 68 77 141q10 27 35 299q20 233 58 233q45 0 82 -49q25 -33 16 -57q-45 -127 -64 -336q-23 -238 23 -373 q25 -59 50.5 -120.5t19.5 -104.5q-14 -90 -105 -141q-82 -47 -207 -47q-121 0 -200 45q-86 47 -86 125zM272 905q0 18 57.5 42t127.5 122q27 41 45 41q27 0 50 -20.5t23 -45.5q0 -47 -112 -106q-104 -57 -158 -57q-33 0 -33 24z" />
<glyph unicode="&#xff;" horiz-adv-x="651" d="M-18 -276q0 72 63 129q45 41 82 51q4 2 16 -6q39 -25 60 -68q4 -10 4 -16q0 -4 -6 -4q-53 0 -103 -21q-57 -27 -57 -68q0 -39 45 -75q61 -47 178 -47q211 0 223 149q2 35 -16 86q-37 86 -43 109q-18 61 -43 237q-35 -76 -104 -143q-82 -82 -148 -78q-94 8 -110 317 q-6 94 8 287q18 221 47 271q8 14 45 2q61 -20 78 -62q6 -14 -6 -39q-47 -90 -84 -334q-10 -68 -11 -151q0 -197 45 -215q12 -4 25 -4q51 0 113 78q51 68 77 141q10 27 35 299q20 233 58 233q45 0 82 -49q25 -33 16 -57q-45 -127 -64 -336q-23 -238 23 -373 q25 -59 50.5 -120.5t19.5 -104.5q-14 -90 -105 -141q-82 -47 -207 -47q-121 0 -200 45q-86 47 -86 125zM158 989q0 35 19.5 58.5t45.5 23.5q29 0 48.5 -23.5t19.5 -58.5t-19.5 -59.5t-48.5 -24.5q-27 0 -46 24.5t-19 59.5zM389 989q0 35 19.5 58.5t48.5 23.5q27 0 46 -23.5 t19 -58.5t-19.5 -59.5t-45.5 -24.5q-29 0 -48.5 24.5t-19.5 59.5z" />
<glyph unicode="&#x152;" horiz-adv-x="3317" d="M33 758q0 297 233 536q184 186 355 224q23 4 38 4q27 0 27 -11q0 -18 -51 -32q-164 -45 -320 -209q-209 -221 -209 -516q0 -324 297 -547q285 -217 668 -217q283 0 518 137q-143 129 -143 272q0 299 590 473q-406 123 -416 318q-6 113 98 209q-78 57 -196 98 q-109 39 -199 47q-55 4 -106 4q-244 0 -398 -94q-137 -88 -139 -207q-2 -141 154 -231q119 -68 284 -88q59 -8 123 -8q156 0 252 28q35 12 47 4q16 -10 -12 -34q-117 -106 -318 -107q-55 0 -114 8q-197 25 -331 148t-134 268q0 205 243 305q190 80 414 70q264 -10 475 -174 q137 98 373 153q225 53 473 51q279 0 438 -61q123 -47 150 -117q41 6 72 2q35 -6 53 -57q4 -8 2 -14t-8 -4q-12 2 -25 2q-70 0 -111.5 -43t-127.5 -117q-117 -78 -191 -68q-27 2 -42 12.5t-38.5 55.5t-25.5 67q0 10 4 14.5t12 2.5q68 -18 135 8q35 14 88 49q61 43 84 53 q10 6 57 25q-10 55 -145 92q-125 33 -280 33q-254 -2 -562 -88q-420 -117 -419 -307q0 -92 116.5 -169t294.5 -108q215 47 285 53q100 10 201 11q299 0 311 -68q8 -39 -77 -69.5t-237 -36.5q-238 -10 -518 59q-242 -70 -383 -174.5t-147 -220.5q-8 -207 240 -342 q227 -125 577 -142q76 -4 145 -4q526 0 730 213q43 45 75 117q6 18 27 12q26 -6 16 -24q-25 -47 -73 -125q-90 -125 -287 -205q-242 -98 -582 -98q-66 0 -135 4q-360 18 -627 194q-106 -82 -272 -133t-330 -51q-461 0 -753.5 250t-292.5 635z" />
<glyph unicode="&#x153;" horiz-adv-x="1089" d="M8 334q0 182 97.5 338.5t216.5 156.5q152 0 237 -190q53 90 135 143q76 49 140 47q121 -2 120 -129q0 -72 -43 -147q-49 -82 -133 -147q-63 -47 -94 -56q-27 -6 -27 23q0 23 25 30q104 39 188 183q33 55 33 114q0 88 -78 88q-88 2 -151 -129q-61 -123 -62 -272 q0 -123 60 -219q55 -88 127 -105q37 -8 69 -8q82 0 154 72q47 49 90 172l41 -14q-14 -43 -82 -166q-47 -74 -127 -119q-88 -51 -178 -41q-137 16 -217 147q-8 -16 -17 -30q-74 -104 -176 -113q-139 -12 -250 123q-98 121 -98 248zM90 264q0 -106 76 -180q66 -66 143 -72 q117 -6 187 250q-10 57 -9 123q2 96 35 180q-16 178 -112 193q-106 18 -213 -174q-88 -158 -105 -281q-2 -20 -2 -39z" />
<glyph unicode="&#x178;" horiz-adv-x="1744" d="M70 -137q14 270 387 350q45 10 49 -16q2 -16 -31 -23q-111 -14 -211 -86q-121 -84 -121 -192q0 -20 4 -41q29 -119 259 -189q209 -61 466 -53q256 8 428 74q193 70 232 190q14 47 14 92q0 35 -31.5 182.5t-29.5 303.5q2 293 55 536q-117 -283 -233 -479 q-182 -309 -312 -305q-162 4 -329 336q-106 209 -199 506q-106 344 -119 526q-2 41 8 49q12 10 54 0q53 -12 106 -90q8 -12 47 -191q51 -233 92 -380q184 -676 344 -676q125 0 304 346q156 305 200 526q33 174 19 330q-4 55 28 55q6 0 13 -4q47 -27 94 -76q63 -61 53 -100 q-49 -193 -88 -498q-41 -313 -41 -506q0 -88 14.5 -206.5t14.5 -161.5q0 -72 -23 -133q-117 -326 -719 -371q-51 -2 -102 -2q-299 0 -502 110.5t-194 266.5zM893 1753q0 33 19.5 57.5t45.5 24.5q29 0 48.5 -24.5t19.5 -57.5q0 -35 -19.5 -59.5t-48.5 -24.5q-27 0 -46 24.5 t-19 59.5zM1124 1753q0 33 19.5 57.5t46.5 24.5q29 0 48 -24.5t19 -57.5q0 -35 -19 -59.5t-48 -24.5q-27 0 -46.5 24.5t-19.5 59.5z" />
<glyph unicode="&#x2c6;" horiz-adv-x="532" d="M55 1432q0 25 45 47q72 37 125 104q35 43 78 43q23 0 32 -19.5t17 -37.5q31 -76 103 -109q18 -8 18 -20q0 -33 -61 -33q-111 0 -172 135q-98 -131 -164 -131q-20 0 -21 21z" />
<glyph unicode="&#x2dc;" horiz-adv-x="483" d="M47 1475q0 41 46 91t87 50q33 0 77 -34t71 -34q35 0 56.5 38t33.5 38q16 0 16 -27q0 -49 -36 -100t-83 -51q-31 0 -82 36t-71 36q-31 0 -63.5 -34t-35.5 -34q-16 0 -16 25z" />
<glyph unicode="&#x2000;" horiz-adv-x="1032" />
<glyph unicode="&#x2001;" horiz-adv-x="2064" />
<glyph unicode="&#x2002;" horiz-adv-x="1032" />
<glyph unicode="&#x2003;" horiz-adv-x="2064" />
<glyph unicode="&#x2004;" horiz-adv-x="688" />
<glyph unicode="&#x2005;" horiz-adv-x="516" />
<glyph unicode="&#x2006;" horiz-adv-x="344" />
<glyph unicode="&#x2007;" horiz-adv-x="344" />
<glyph unicode="&#x2008;" horiz-adv-x="258" />
<glyph unicode="&#x2009;" horiz-adv-x="412" />
<glyph unicode="&#x200a;" horiz-adv-x="114" />
<glyph unicode="&#x2010;" horiz-adv-x="849" d="M170 539q18 41 55 41h428q33 0 21 -35q-20 -51 -62 -51h-428q-31 0 -14 45z" />
<glyph unicode="&#x2011;" horiz-adv-x="849" d="M170 539q18 41 55 41h428q33 0 21 -35q-20 -51 -62 -51h-428q-31 0 -14 45z" />
<glyph unicode="&#x2012;" horiz-adv-x="849" d="M170 539q18 41 55 41h428q33 0 21 -35q-20 -51 -62 -51h-428q-31 0 -14 45z" />
<glyph unicode="&#x2013;" horiz-adv-x="1126" d="M170 539q18 41 55 41h762q33 0 21 -35q-20 -51 -62 -51h-762q-31 0 -14 45z" />
<glyph unicode="&#x2014;" horiz-adv-x="1779" d="M170 539q18 41 55 41h1403q33 0 21 -35q-20 -51 -62 -51h-1403q-31 0 -14 45z" />
<glyph unicode="&#x2018;" horiz-adv-x="399" d="M129 1397q-10 80 37 174q18 39 51 63l16 -16q-16 -10 -45 -64q-10 -33 -4 -69q56 0 56 -88q0 -86 -56 -86q-45 0 -55 86z" />
<glyph unicode="&#x2019;" horiz-adv-x="425" d="M164 1548q0 86 57 86q43 0 55 -86q10 -80 -36 -174q-18 -37 -54 -63l-14 16q14 10 43 64q12 33 6 69q-57 0 -57 88z" />
<glyph unicode="&#x201a;" horiz-adv-x="358" d="M135 25q0 86 55 86q46 0 56 -86q10 -80 -37 -177q-18 -37 -51 -63l-17 16q14 10 45 64q10 35 4 72q-55 0 -55 88z" />
<glyph unicode="&#x201c;" horiz-adv-x="505" d="M72 1397q-10 80 37 174q18 39 51 63l16 -16q-16 -10 -45 -64q-10 -33 -4 -69q55 0 55 -88q0 -86 -55 -86q-45 0 -55 86zM233 1397q-10 80 37 174q18 39 54 63l14 -16q-14 -10 -43 -64q-12 -33 -6 -69q57 0 57 -88q0 -86 -57 -86q-43 0 -56 86z" />
<glyph unicode="&#x201d;" horiz-adv-x="505" d="M164 1548q0 86 57 86q43 0 55 -86q10 -80 -36 -174q-18 -37 -54 -63l-14 16q14 10 43 64q12 33 6 69q-57 0 -57 88zM328 1548q0 86 55 86q45 0 55 -86q10 -80 -37 -174q-18 -37 -51 -63l-16 16q16 10 45 64q10 33 4 69q-55 0 -55 88z" />
<glyph unicode="&#x201e;" horiz-adv-x="475" d="M135 25q0 86 55 86q46 0 56 -86q10 -80 -37 -177q-18 -37 -51 -63l-17 16q14 10 45 64q10 35 4 72q-55 0 -55 88zM297 25q0 86 55 86q46 0 58 -86q8 -80 -37 -177q-18 -37 -54 -63l-14 16q14 10 43 64q12 35 4 72q-55 0 -55 88z" />
<glyph unicode="&#x2022;" horiz-adv-x="1019" d="M254 750q0 115 81 195.5t195 80.5q113 0 194 -80.5t81 -195.5t-81 -196t-194 -81q-115 0 -195.5 81t-80.5 196z" />
<glyph unicode="&#x2026;" horiz-adv-x="933" d="M135 25q0 86 55 86q56 0 56 -86q0 -88 -56 -88q-55 0 -55 88zM442 25q0 86 56 86q55 0 55 -86q0 -88 -55 -88t-56 88zM741 25q0 86 56 86q55 0 55 -86q0 -88 -55 -88t-56 88z" />
<glyph unicode="&#x202f;" horiz-adv-x="412" />
<glyph unicode="&#x2039;" horiz-adv-x="606" d="M61 725l324 375h47l-229 -375l229 -371h-47z" />
<glyph unicode="&#x203a;" horiz-adv-x="641" d="M209 342l229 371l-229 374h47l324 -374l-324 -371h-47z" />
<glyph unicode="&#x205f;" horiz-adv-x="516" />
<glyph unicode="&#x2122;" horiz-adv-x="1550" d="M88 1370l6 154h563l7 -154h-37q-20 72 -33 86q-20 29 -78 29h-88v-438q0 -55 51 -56h45v-39h-293v39h48q49 0 49 56v438h-92q-55 0 -78 -29q-12 -14 -33 -86h-37zM694 952v39q86 0 86 99v337q0 33 -9 44.5t-40 11.5h-33v39h179l202 -441l195 441h186v-39h-47 q-45 0 -45 -56v-380q0 -55 49 -56h43v-39h-282v39h41q27 0 37 10.5t10 45.5v364l-203 -459h-33l-209 457v-319q0 -98 94 -99v-39h-221z" />
<glyph unicode="&#xe000;" horiz-adv-x="849" d="M0 0v850h850v-850h-850z" />
</font>
</defs>
</svg>
